<?xml version="1.0" encoding="UTF-8" standalone="no"?>
<svg width="561.446mm" height="551.656mm"
 viewBox="0 0 2122 2085"
 xmlns="http://www.w3.org/2000/svg" xmlns:xlink="http://www.w3.org/1999/xlink"  version="1.2" baseProfile="tiny">
<title>Pattern</title>
<defs>
</defs>
<g fill="none" stroke="black" stroke-width="1" fill-rule="evenodd" stroke-linecap="square" stroke-linejoin="bevel" >

<g fill="none" stroke="#000000" stroke-opacity="1" stroke-width="1.51181" stroke-linecap="round" stroke-linejoin="round" transform="matrix(1,0,0,1,0,0)"
font-family="Arial" font-size="10.6667" font-weight="400" font-style="normal" 
>
</g>

<g fill="none" stroke="#000000" stroke-opacity="1" stroke-width="1.51181" stroke-linecap="round" stroke-linejoin="round" transform="matrix(1,0,0,1,0,0)"
font-family="Arial" font-size="10.6667" font-weight="400" font-style="normal" 
>
</g>

<g fill="none" stroke="#000000" stroke-opacity="1" stroke-width="1.51181" stroke-linecap="round" stroke-linejoin="round" transform="matrix(1,0,0,1,0,0)"
font-family="Arial" font-size="10.6667" font-weight="400" font-style="normal" 
>
</g>

<g fill="none" stroke="#000000" stroke-opacity="1" stroke-width="1" stroke-linecap="square" stroke-linejoin="bevel" transform="matrix(1,0,0,1,0,0)"
font-family="Arial" font-size="10.6667" font-weight="400" font-style="normal" 
>
<path vector-effect="none" fill-rule="nonzero" d="M2117,96 L2117,1475.53 L2100.36,1475.54 L2066.83,1475.9 L2034.02,1477.15 L2010.62,1479.02 L1995.78,1480.78 L1981.74,1483.05 L1968.64,1485.9 L1956.61,1489.37 L1945.79,1493.55 L1936.33,1498.49 L1930.25,1502.77 L1926.67,1505.87 L1923.49,1509.2 L1920.75,1512.77 L1918.46,1516.57 L1916.64,1520.63 L1915.93,1522.77 L1604.87,1426.39 L1607.67,1417.59 L1615.19,1391 L1621.01,1366.81 L1626.87,1337.4 L1630.89,1311.96 L1633.29,1293.64 L1635.36,1274.19 L1637.02,1253.64 L1638.2,1232.05 L1638.83,1209.44 L1638.89,1197.73 L1638.86,1190.58 L1638.45,1176.43 L1637.65,1162.47 L1636.47,1148.71 L1634.92,1135.18 L1633,1121.9 L1630.73,1108.87 L1628.11,1096.12 L1625.16,1083.67 L1621.88,1071.53 L1618.3,1059.73 L1614.4,1048.27 L1610.21,1037.18 L1605.74,1026.48 L1600.99,1016.18 L1595.98,1006.3 L1590.72,996.856 L1585.21,987.872 L1579.46,979.362 L1573.49,971.345 L1567.3,963.837 L1560.91,956.857 L1554.33,950.422 L1547.56,944.551 L1540.61,939.261 L1533.5,934.57 L1526.23,930.495 L1518.82,927.056 L1511.27,924.268 L1503.6,922.151 L1495.81,920.722 L1487.92,919.998 L1483.93,919.937 L1483.93,560.882 L1387.93,560.882 L1387.93,96 L1483.93,96 L2117,96 M2117,0 L2117,1499.53 L2100.49,1499.54 L2067.42,1499.9 L2035.43,1501.11 L2012.99,1502.91 L1999.11,1504.56 L1986.2,1506.64 L1974.52,1509.18 L1964.28,1512.14 L1955.7,1515.45 L1948.84,1519.03 L1945.04,1521.71 L1943.24,1523.26 L1941.75,1524.83 L1940.62,1526.31 L1939.77,1527.71 L1939.03,1529.36 L1923.72,1575.44 L1544.5,1457.94 L1561.69,1403.8 L1568.74,1378.85 L1574.12,1356.5 L1579.61,1328.95 L1583.38,1305.09 L1585.62,1287.99 L1587.56,1269.71 L1589.13,1250.39 L1590.24,1230.07 L1590.84,1208.66 L1590.89,1197.73 L1590.86,1191.38 L1590.49,1178.48 L1589.77,1165.89 L1588.71,1153.51 L1587.31,1141.35 L1585.59,1129.45 L1583.56,1117.82 L1581.24,1106.48 L1578.62,1095.46 L1575.74,1084.77 L1572.6,1074.43 L1569.21,1064.48 L1565.6,1054.92 L1561.79,1045.78 L1557.78,1037.09 L1553.6,1028.86 L1549.28,1021.11 L1544.84,1013.86 L1540.3,1007.14 L1535.69,1000.96 L1531.05,995.326 L1526.41,990.256 L1521.8,985.752 L1517.26,981.814 L1512.82,978.433 L1508.51,975.591 L1504.36,973.262 L1500.37,971.411 L1496.55,969.999 L1492.86,968.982 L1489.28,968.324 L1485.36,967.964 L1435.93,967.208 L1435.93,608.882 L1339.93,608.882 L1339.93,0 L1483.93,0 L2117,0 M1567.83,1060.13 L1590.75,1053.03 M1569.5,1065.54 L1592.43,1058.44"/>
</g>

<g fill="none" stroke="#000000" stroke-opacity="1" stroke-width="1.51181" stroke-linecap="round" stroke-linejoin="round" transform="matrix(1,0,0,1,0,0)"
font-family="Arial" font-size="10.6667" font-weight="400" font-style="normal" 
>
</g>

<g fill="none" stroke="#000000" stroke-opacity="1" stroke-width="1.51181" stroke-linecap="round" stroke-linejoin="round" transform="matrix(1,0,0,1,0,0)"
font-family="Arial" font-size="10.6667" font-weight="400" font-style="normal" 
>
</g>

<g fill="#000000" fill-opacity="1" stroke="#000000" stroke-opacity="1" stroke-width="1.51181" stroke-linecap="round" stroke-linejoin="round" transform="matrix(1,0,0,1,0,0)"
font-family="Arial" font-size="10.6667" font-weight="400" font-style="normal" 
>
<path vector-effect="none" fill-rule="evenodd" d="M2016.89,437.932 L2023.35,455.689 L2010.43,455.689 L2016.89,437.932 L2016.89,1193.84 L2010.43,1176.08 L2023.35,1176.08 L2016.89,1193.84"/>
</g>

<g fill="none" stroke="#000000" stroke-opacity="1" stroke-width="1.51181" stroke-linecap="round" stroke-linejoin="round" transform="matrix(1,0,0,1,0,0)"
font-family="Arial" font-size="10.6667" font-weight="400" font-style="normal" 
>
</g>

<g fill="none" stroke="#000000" stroke-opacity="1" stroke-width="1.51181" stroke-linecap="round" stroke-linejoin="round" transform="matrix(1,0,0,1,0,0)"
font-family="Arial" font-size="10.6667" font-weight="400" font-style="normal" 
>
</g>

<g fill="none" stroke="#000000" stroke-opacity="1" stroke-width="1.51181" stroke-linecap="round" stroke-linejoin="round" transform="matrix(1,0,0,1,0,0)"
font-family="Arial" font-size="10.6667" font-weight="400" font-style="normal" 
>
</g>

<g fill="none" stroke="#000000" stroke-opacity="1" stroke-width="1" stroke-linecap="square" stroke-linejoin="bevel" transform="matrix(1,0,0,1,0,0)"
font-family="Arial" font-size="10.6667" font-weight="400" font-style="normal" 
>
<path vector-effect="none" fill-rule="nonzero" d="M1176.73,96 L1272.73,96 L1272.73,560.882 L1176.73,560.882 L1176.73,919.937 L1172.16,919.998 L1163.11,920.722 L1154.18,922.151 L1145.38,924.268 L1136.73,927.056 L1128.24,930.495 L1119.91,934.57 L1111.75,939.261 L1103.79,944.551 L1096.03,950.422 L1088.48,956.857 L1081.15,963.837 L1074.06,971.345 L1067.22,979.362 L1060.63,987.872 L1054.31,996.856 L1048.28,1006.3 L1042.53,1016.18 L1037.09,1026.48 L1032.76,1035.5 L1031.96,1037.18 L1027.16,1048.27 L1022.7,1059.73 L1018.59,1071.53 L1014.83,1083.67 L1011.45,1096.12 L1008.45,1108.87 L1005.84,1121.9 L1003.64,1135.18 L1001.86,1148.71 L1000.51,1162.47 L999.593,1176.43 L999.13,1190.58 L999.091,1197.73 L999.176,1208.65 L1000.13,1229.54 L1001.93,1249.31 L1004.45,1267.97 L1007.59,1285.52 L1011.22,1301.98 L1015.24,1317.36 L1019.53,1331.67 L1026.22,1351.27 L1035.04,1373.56 L1042.89,1391.74 L1048.84,1405.87 L1050.69,1411.28 L744.729,1522.77 L741.151,1513.04 L733.674,1493.79 L725.756,1474.88 L717.334,1456.47 L708.345,1438.68 L698.725,1421.64 L688.411,1405.49 L677.34,1390.36 L668.475,1379.8 L662.312,1373.13 L655.924,1366.78 L649.304,1360.77 L642.442,1355.14 L635.332,1349.87 L627.966,1345.01 L620.334,1340.56 L612.431,1336.53 L604.247,1332.95 L595.775,1329.83 L587.007,1327.19 L577.934,1325.05 L568.55,1323.41 L558.846,1322.31 L548.814,1321.75 L543.658,1321.7 L543.658,96 L1176.73,96 M543.658,0 L1176.73,0 L1320.73,0 L1320.73,608.882 L1224.73,608.882 L1224.73,967.3 L1174.39,967.972 L1168.82,968.418 L1163.6,969.253 L1158.38,970.511 L1153.12,972.206 L1147.81,974.355 L1142.45,976.979 L1137.03,980.095 L1131.58,983.719 L1126.1,987.86 L1120.63,992.525 L1115.18,997.715 L1109.79,1003.43 L1104.47,1009.65 L1099.26,1016.38 L1094.19,1023.6 L1089.26,1031.3 L1084.52,1039.46 L1079.96,1048.09 L1076.1,1056.13 L1075.71,1056.96 L1071.57,1066.52 L1067.74,1076.34 L1064.19,1086.53 L1060.93,1097.06 L1057.98,1107.91 L1055.36,1119.08 L1053.07,1130.52 L1051.13,1142.24 L1049.55,1154.2 L1048.35,1166.39 L1047.54,1178.78 L1047.13,1191.5 L1047.09,1197.68 L1047.17,1207.37 L1048.03,1226.27 L1049.64,1243.92 L1051.88,1260.53 L1054.67,1276.12 L1057.89,1290.74 L1061.46,1304.4 L1065.25,1317.02 L1071.27,1334.68 L1079.4,1355.21 L1087.04,1372.9 L1093.73,1388.77 L1111.31,1440.27 L738.752,1576.04 L718.7,1521.53 L711.415,1502.77 L703.769,1484.51 L695.703,1466.88 L687.174,1450 L678.147,1434.01 L668.593,1419.05 L658.444,1405.18 L650.456,1395.67 L645.027,1389.78 L639.397,1384.19 L633.615,1378.95 L627.675,1374.06 L621.571,1369.55 L615.294,1365.4 L608.831,1361.63 L602.168,1358.24 L595.286,1355.23 L588.164,1352.61 L580.781,1350.38 L573.111,1348.57 L565.131,1347.18 L556.816,1346.23 L548.033,1345.74 L543.658,1345.7 L543.658,0 M1076.02,1056.28 L1054.39,1045.89"/>
</g>

<g fill="none" stroke="#000000" stroke-opacity="1" stroke-width="1.51181" stroke-linecap="round" stroke-linejoin="round" transform="matrix(1,0,0,1,0,0)"
font-family="Arial" font-size="10.6667" font-weight="400" font-style="normal" 
>
</g>

<g fill="none" stroke="#000000" stroke-opacity="1" stroke-width="1.51181" stroke-linecap="round" stroke-linejoin="round" transform="matrix(1,0,0,1,0,0)"
font-family="Arial" font-size="10.6667" font-weight="400" font-style="normal" 
>
</g>

<g fill="#000000" fill-opacity="1" stroke="#000000" stroke-opacity="1" stroke-width="1.51181" stroke-linecap="round" stroke-linejoin="round" transform="matrix(1,0,0,1,0,0)"
font-family="Arial" font-size="10.6667" font-weight="400" font-style="normal" 
>
<path vector-effect="none" fill-rule="evenodd" d="M656.07,1165.44 L649.607,1147.68 L662.534,1147.68 L656.07,1165.44 L656.07,409.532 L662.534,427.289 L649.607,427.289 L656.07,409.532"/>
</g>

<g fill="none" stroke="#000000" stroke-opacity="1" stroke-width="1.51181" stroke-linecap="round" stroke-linejoin="round" transform="matrix(1,0,0,1,0,0)"
font-family="Arial" font-size="10.6667" font-weight="400" font-style="normal" 
>
</g>

<g fill="none" stroke="#000000" stroke-opacity="1" stroke-width="1.51181" stroke-linecap="round" stroke-linejoin="round" transform="matrix(1,0,0,1,0,0)"
font-family="Arial" font-size="10.6667" font-weight="400" font-style="normal" 
>
</g>

<g fill="none" stroke="#000000" stroke-opacity="1" stroke-width="1.51181" stroke-linecap="round" stroke-linejoin="round" transform="matrix(1,0,0,1,0,0)"
font-family="Arial" font-size="10.6667" font-weight="400" font-style="normal" 
>
</g>

<g fill="none" stroke="#000000" stroke-opacity="1" stroke-width="1" stroke-linecap="square" stroke-linejoin="bevel" transform="matrix(1,0,0,1,0,0)"
font-family="Arial" font-size="10.6667" font-weight="400" font-style="normal" 
>
<path vector-effect="none" fill-rule="nonzero" d="M745.353,1594.07 L835.551,1561.2 L925.748,1528.33 L1403.72,1354.15 L1404.79,1357.09 L1411.02,1378.86 L1416.04,1400.85 L1419.59,1421.06 L1421.64,1435.88 L1423.3,1451.72 L1424.42,1468.47 L1424.89,1486 L1424.58,1504.18 L1423.36,1522.89 L1421.11,1542.01 L1419.5,1551.69 L1418.22,1558.49 L1414.8,1572.77 L1410.47,1587.67 L1405.41,1602.95 L1396.83,1626.14 L1384.21,1656.36 L1371.54,1684.11 L1360.1,1707.61 L1347.52,1732.06 L1345.61,1735.56 L1343.06,1743.46 L1330.34,1786.14 L1324.2,1809.31 L1320.99,1823.24 L1319.87,1829.21 L1318.34,1838.2 L1316,1854.67 L1314.46,1869.46 L1313.64,1882.68 L1313.44,1894.47 L1313.8,1904.95 L1314.62,1914.26 L1315.82,1922.53 L1316.55,1926.27 L1087.77,1972.95 L992.671,1992.36 L907.379,2038.69 L745.353,1594.07 M923.996,2084.29 L745.353,1594.07 L835.551,1561.2 L925.748,1528.33 L1448.82,1337.71 L1450.48,1342.31 L1457.53,1366.91 L1463.1,1391.36 L1467.01,1413.6 L1469.3,1430.09 L1471.13,1447.62 L1472.38,1466.22 L1472.9,1485.77 L1472.55,1506.15 L1471.18,1527.26 L1468.65,1548.74 L1466.77,1560.04 L1465.18,1568.52 L1461.21,1585.07 L1456.32,1601.91 L1450.72,1618.83 L1441.5,1643.73 L1428.2,1675.58 L1414.95,1704.59 L1403.02,1729.1 L1389.9,1754.6 L1388.91,1757.68 L1376.55,1799.14 L1370.8,1820.85 L1367.98,1833.07 L1367.12,1837.68 L1365.77,1845.6 L1363.65,1860.53 L1362.3,1873.43 L1361.61,1884.56 L1361.46,1894.05 L1361.73,1902.03 L1362.31,1908.7 L1363.15,1914.49 L1372.74,1963.79 L1097.37,2019.98 L1009.29,2037.96 L923.996,2084.29 M1389.9,1754.6 L1367.85,1745.13"/>
</g>

<g fill="none" stroke="#000000" stroke-opacity="1" stroke-width="1.51181" stroke-linecap="round" stroke-linejoin="round" transform="matrix(1,0,0,1,0,0)"
font-family="Arial" font-size="10.6667" font-weight="400" font-style="normal" 
>
</g>

<g fill="none" stroke="#000000" stroke-opacity="1" stroke-width="1.51181" stroke-linecap="round" stroke-linejoin="round" transform="matrix(1,0,0,1,0,0)"
font-family="Arial" font-size="10.6667" font-weight="400" font-style="normal" 
>
</g>

<g fill="none" stroke="#000000" stroke-opacity="1" stroke-width="1" stroke-linecap="square" stroke-linejoin="bevel" transform="matrix(1,0,0,1,0,0)"
font-family="Arial" font-size="10.6667" font-weight="400" font-style="normal" 
>
<path vector-effect="none" fill-rule="nonzero" d="M992.671,1992.36 L835.551,1561.2 L925.748,1528.33 L1087.77,1972.95"/>
</g>

<g fill="none" stroke="#000000" stroke-opacity="1" stroke-width="1.51181" stroke-linecap="round" stroke-linejoin="round" transform="matrix(1,0,0,1,0,0)"
font-family="Arial" font-size="10.6667" font-weight="400" font-style="normal" 
>
</g>

<g fill="none" stroke="#000000" stroke-opacity="1" stroke-width="1.51181" stroke-linecap="round" stroke-linejoin="round" transform="matrix(1,0,0,1,0,0)"
font-family="Arial" font-size="10.6667" font-weight="400" font-style="normal" 
>
</g>

<g fill="#000000" fill-opacity="1" stroke="#000000" stroke-opacity="1" stroke-width="1.51181" stroke-linecap="round" stroke-linejoin="round" transform="matrix(1,0,0,1,0,0)"
font-family="Arial" font-size="10.6667" font-weight="400" font-style="normal" 
>
<path vector-effect="none" fill-rule="evenodd" d="M1422.59,1463.51 L1408.12,1475.67 L1403.7,1463.52 L1422.59,1463.51 L1067.48,1592.92 L1081.96,1580.77 L1086.38,1592.91 L1067.48,1592.92"/>
</g>

<g fill="none" stroke="#000000" stroke-opacity="1" stroke-width="1.51181" stroke-linecap="round" stroke-linejoin="round" transform="matrix(1,0,0,1,0,0)"
font-family="Arial" font-size="10.6667" font-weight="400" font-style="normal" 
>
</g>

<g fill="none" stroke="#000000" stroke-opacity="1" stroke-width="1.51181" stroke-linecap="round" stroke-linejoin="round" transform="matrix(1,0,0,1,0,0)"
font-family="Arial" font-size="10.6667" font-weight="400" font-style="normal" 
>
</g>

<g fill="none" stroke="#000000" stroke-opacity="1" stroke-width="1.51181" stroke-linecap="round" stroke-linejoin="round" transform="matrix(1,0,0,1,0,0)"
font-family="Arial" font-size="10.6667" font-weight="400" font-style="normal" 
>
</g>
</g>
</svg>
