<?xml version="1.0" encoding="UTF-8" standalone="no"?>
<svg width="980.281mm" height="1198.56mm"
 viewBox="0 0 3705 4530"
 xmlns="http://www.w3.org/2000/svg" xmlns:xlink="http://www.w3.org/1999/xlink"  version="1.2" baseProfile="tiny">
<title>Pattern</title>
<defs>
</defs>
<g fill="none" stroke="black" stroke-width="1" fill-rule="evenodd" stroke-linecap="square" stroke-linejoin="bevel" >

<g fill="none" stroke="#000000" stroke-opacity="1" stroke-width="1.51181" stroke-linecap="round" stroke-linejoin="round" transform="matrix(1,0,0,1,0,0)"
font-family="Arial" font-size="10.6667" font-weight="400" font-style="normal" 
>
</g>

<g fill="none" stroke="#000000" stroke-opacity="1" stroke-width="1.51181" stroke-linecap="round" stroke-linejoin="round" transform="matrix(1,0,0,1,0,0)"
font-family="Arial" font-size="10.6667" font-weight="400" font-style="normal" 
>
</g>

<g fill="none" stroke="#000000" stroke-opacity="1" stroke-width="1.51181" stroke-linecap="round" stroke-linejoin="round" transform="matrix(1,0,0,1,-4,189)"
font-family="Arial" font-size="10.6667" font-weight="400" font-style="normal" 
>
</g>

<g fill="none" stroke="#000000" stroke-opacity="1" stroke-width="1" stroke-linecap="square" stroke-linejoin="bevel" transform="matrix(1,0,0,1,-4,189)"
font-family="Arial" font-size="10.6667" font-weight="400" font-style="normal" 
>
<path vector-effect="none" fill-rule="nonzero" d="M1872.36,1472 L1868.56,1471.62 L1848.89,1468.25 L1825.42,1464.87 L1806.55,1462.77 L1785.19,1461.08 L1761.61,1460.09 L1749,1460 L1738.29,1460.05 L1717.1,1460.57 L1696.36,1461.56 L1676.22,1462.93 L1647.36,1465.53 L1627.36,1467.96 L1591.28,1164.5 L1590.53,1159.1 L1587.65,1145.67 L1581.34,1122.23 L1567.04,1077.11 L1564.03,1068.49 L1562.2,1057.4 L1548.32,970.772 L1541.64,926.24 L1519.25,783.99 L1388.58,-46.3609 L1635.87,-127.84 L1643.42,-104.156 L1658.41,-53.7689 L1670.59,-15.1189 L1679.52,10.3978 L1689.37,35.3288 L1697.55,53.3967 L1703.38,65.0977 L1709.57,76.4572 L1716.15,87.4318 L1723.14,97.9782 L1730.58,108.053 L1738.49,117.613 L1746.89,126.615 L1755.82,135.015 L1765.31,142.77 L1775.38,149.837 L1786.06,156.172 L1797.38,161.732 L1809.37,166.474 L1822.05,170.355 L1835.46,173.33 L1849.62,175.357 L1864.56,176.392 L1872.36,176.48 L1872.36,1472 M1920.36,1524.97 L1862.14,1519.22 L1841.42,1515.67 L1819.34,1512.49 L1801.99,1510.55 L1782.3,1509 L1760.43,1508.09 L1748.93,1508 L1738.99,1508.04 L1718.84,1508.55 L1699.13,1509.48 L1680,1510.78 L1652.41,1513.27 L1585.37,1521.41 L1543.68,1170.65 L1543.23,1167.46 L1540.98,1156.95 L1535.26,1135.72 L1521.5,1092.28 L1517.34,1080.4 L1514.82,1065.09 L1500.89,978.13 L1494.2,933.532 L1471.84,791.453 L1334.82,-79.1869 L1666.87,-188.594 L1689.3,-118.292 L1704.3,-67.8276 L1716.15,-30.2644 L1724.51,-6.35518 L1733.58,16.6019 L1740.91,32.7873 L1745.95,42.8961 L1751.25,52.6222 L1756.76,61.8172 L1762.48,70.4469 L1768.41,78.484 L1774.56,85.9102 L1780.91,92.717 L1787.49,98.907 L1794.32,104.492 L1801.45,109.491 L1808.92,113.923 L1816.82,117.803 L1825.24,121.135 L1834.29,123.903 L1844.07,126.073 L1854.68,127.593 L1866.49,128.41 L1920.36,129.018 L1920.36,1524.97 M1543.74,1171.13 L1567.51,1167.82 M1471.84,791.453 L1495.55,787.721"/>
</g>

<g fill="none" stroke="#000000" stroke-opacity="1" stroke-width="1.51181" stroke-linecap="round" stroke-linejoin="round" transform="matrix(1,0,0,1,-4,189)"
font-family="Arial" font-size="10.6667" font-weight="400" font-style="normal" 
>
</g>

<g fill="none" stroke="#000000" stroke-opacity="1" stroke-width="1.51181" stroke-linecap="round" stroke-linejoin="round" transform="matrix(1,0,0,1,-4,189)"
font-family="Arial" font-size="10.6667" font-weight="400" font-style="normal" 
>
</g>

<g fill="none" stroke="#000000" stroke-opacity="1" stroke-width="1" stroke-linecap="square" stroke-linejoin="bevel" transform="matrix(1,0,0,1,-4,189)"
font-family="Arial" font-size="10.6667" font-weight="400" font-style="normal" 
>
<path vector-effect="none" fill-rule="nonzero" d="M3399.3,380.616 L3385.56,379.111 L3359.25,375.448 L3334.33,371.032 L3310.8,365.896 L3288.65,360.076 L3267.86,353.605 L3248.43,346.519 L3230.35,338.85 L3213.62,330.635 L3198.22,321.906 L3184.14,312.698 L3171.37,303.046 L3159.92,292.984 L3149.76,282.547 L3140.89,271.768 L3133.31,260.682 L3130.04,255.023 L3119.06,235.357 L3101.81,205.894 L3089.73,186.54 L3077.02,167.621 L3063.58,149.313 L3049.29,131.791 L3037.91,119.306 L3030.02,111.3 L3021.85,103.589 L3013.39,96.1954 L3004.63,89.141 L2995.55,82.4479 L2986.13,76.1379 L2976.37,70.233 L2966.24,64.7553 L2955.74,59.7265 L2944.85,55.1687 L2933.55,51.1038 L2921.84,47.5537 L2909.69,44.5405 L2897.09,42.086 L2884.04,40.2122 L2870.5,38.941 L2856.48,38.2945 L2849.26,38.2397 L2841.95,38.2821 L2827.73,38.7817 L2813.96,39.762 L2800.64,41.2038 L2787.76,43.0883 L2775.3,45.3963 L2763.26,48.1089 L2751.62,51.2071 L2740.38,54.6719 L2729.53,58.4842 L2719.05,62.6251 L2708.93,67.0755 L2699.17,71.8164 L2689.76,76.8289 L2676.22,84.7872 L2659.34,96.2132 L2643.66,108.383 L2629.09,121.145 L2615.57,134.347 L2602.99,147.836 L2591.29,161.461 L2580.39,175.07 L2570.2,188.511 L2565.37,195.104 L2557.28,206.112 L2541.24,226.921 L2525.33,246.302 L2509.51,264.279 L2493.72,280.878 L2477.92,296.123 L2462.06,310.038 L2446.09,322.649 L2429.96,333.981 L2413.64,344.057 L2397.06,352.902 L2380.18,360.542 L2362.95,367 L2345.33,372.303 L2327.26,376.473 L2308.71,379.537 L2305.77,379.87 L2318.16,377.889 L2330.15,375.262 L2341.65,372.023 L2352.7,368.192 L2363.31,363.784 L2373.49,358.819 L2383.29,353.315 L2392.71,347.288 L2401.78,340.757 L2410.53,333.741 L2418.96,326.256 L2427.11,318.321 L2435,309.954 L2442.64,301.172 L2450.07,291.993 L2460.86,277.565 L2474.66,257.044 L2487.98,235.259 L2500.98,212.353 L2520.28,176.301 L2529.63,158.219 L2546.54,125.482 L2560.41,99.2317 L2563.7,92.5525 L2570.45,79.5912 L2577.4,67.1029 L2584.56,55.0842 L2591.9,43.5312 L2599.44,32.4404 L2607.15,21.8081 L2615.05,11.6305 L2623.11,1.90413 L2631.35,-7.37482 L2639.74,-16.21 L2648.29,-24.605 L2656.99,-32.5636 L2665.84,-40.0894 L2674.83,-47.1861 L2683.95,-53.8573 L2693.21,-60.1068 L2702.58,-65.9381 L2712.08,-71.355 L2721.69,-76.3612 L2731.41,-80.9602 L2741.23,-85.1558 L2751.15,-88.9516 L2761.16,-92.3514 L2771.26,-95.3587 L2781.44,-97.9773 L2791.7,-100.211 L2802.03,-102.063 L2812.43,-103.537 L2822.88,-104.637 L2838.66,-105.64 L2849.26,-105.76 L2856.6,-105.695 L2861.21,-105.499 L2870.85,-104.925 L2884.57,-103.41 L2897.78,-101.174 L2910.5,-98.2426 L2922.75,-94.6406 L2934.55,-90.3928 L2945.91,-85.5241 L2956.84,-80.0592 L2967.38,-74.023 L2977.52,-67.4405 L2987.3,-60.3364 L2996.73,-52.7356 L3005.82,-44.663 L3014.6,-36.1434 L3023.07,-27.2016 L3031.27,-17.8626 L3039.2,-8.15119 L3050.66,7.02106 L3065.13,28.3801 L3078.85,50.7814 L3091.96,74.0262 L3104.59,97.9155 L3122.97,134.505 L3135,159.152 L3145,176.606 L3159.95,202.611 L3160.42,203.451 L3171.15,221.427 L3182.41,239.287 L3194.37,256.86 L3207.17,273.972 L3220.96,290.453 L3232.08,302.266 L3239.85,309.871 L3247.96,317.221 L3256.42,324.295 L3265.24,331.071 L3274.46,337.528 L3284.08,343.644 L3294.12,349.398 L3304.61,354.768 L3315.56,359.733 L3326.99,364.271 L3338.92,368.36 L3351.36,371.98 L3364.35,375.109 L3377.89,377.725 L3392,379.806 L3399.3,380.616 M3452.27,338.197 L3441.76,433.553 L3379.64,426.75 L3351.75,422.867 L3325.02,418.13 L3299.58,412.577 L3275.41,406.227 L3252.49,399.094 L3230.82,391.189 L3210.39,382.522 L3191.19,373.096 L3173.22,362.913 L3156.49,351.972 L3141.02,340.27 L3126.83,327.808 L3113.97,314.589 L3102.48,300.628 L3092.65,286.267 L3088.29,278.713 L3077.39,259.184 L3060.74,230.737 L3049.44,212.64 L3037.74,195.219 L3025.61,178.706 L3012.92,163.151 L3003.06,152.331 L2996.44,145.608 L2989.57,139.122 L2982.53,132.974 L2975.33,127.173 L2967.93,121.725 L2960.34,116.633 L2952.52,111.902 L2944.45,107.536 L2936.1,103.54 L2927.45,99.9199 L2918.46,96.6848 L2909.09,93.8468 L2899.32,91.4217 L2889.09,89.429 L2878.38,87.8921 L2867.15,86.8375 L2855.19,86.2861 L2849.21,86.2407 L2842.93,86.2772 L2830.28,86.7218 L2818.25,87.5781 L2806.7,88.8284 L2795.61,90.4511 L2784.95,92.4254 L2774.71,94.7317 L2764.87,97.3518 L2755.41,100.268 L2746.3,103.466 L2737.54,106.93 L2729.09,110.646 L2720.94,114.603 L2713.21,118.722 L2701.86,125.393 L2687.54,135.089 L2674.22,145.427 L2661.7,156.398 L2649.9,167.905 L2638.77,179.847 L2628.24,192.111 L2618.25,204.583 L2608.69,217.195 L2604.07,223.5 L2595.63,234.983 L2578.81,256.807 L2561.91,277.395 L2544.92,296.689 L2527.79,314.706 L2510.43,331.455 L2492.78,346.938 L2474.78,361.15 L2456.39,374.077 L2437.56,385.697 L2418.27,395.987 L2398.52,404.928 L2378.31,412.505 L2357.66,418.719 L2336.58,423.585 L2315.33,427.093 L2299.19,332.314 L2309.23,330.708 L2318.5,328.676 L2327.27,326.206 L2335.61,323.315 L2343.57,320.008 L2351.2,316.286 L2358.58,312.141 L2365.74,307.562 L2372.72,302.537 L2379.55,297.05 L2386.27,291.09 L2392.89,284.648 L2399.42,277.72 L2405.87,270.307 L2412.18,262.508 L2421.71,249.778 L2434.25,231.125 L2446.62,210.887 L2458.95,189.174 L2477.8,153.952 L2486.98,136.182 L2504,103.253 L2517.65,77.4144 L2520.87,70.8643 L2528.19,56.8251 L2535.8,43.148 L2543.67,29.927 L2551.79,17.1613 L2560.15,4.8503 L2568.76,-7.00616 L2577.6,-18.4079 L2586.68,-29.3544 L2595.99,-39.8447 L2605.52,-49.8778 L2615.27,-59.4523 L2625.24,-68.5667 L2635.41,-77.2192 L2645.78,-85.4084 L2656.34,-93.1325 L2667.09,-100.39 L2678.01,-107.18 L2689.09,-113.502 L2700.33,-119.356 L2711.71,-124.74 L2723.22,-129.658 L2734.85,-134.109 L2746.59,-138.095 L2758.43,-141.621 L2770.36,-144.688 L2782.36,-147.301 L2794.42,-149.464 L2806.54,-151.183 L2818.85,-152.478 L2836.87,-153.623 L2849.2,-153.763 L2857.84,-153.686 L2863.66,-153.438 L2874.91,-152.768 L2891.21,-150.968 L2907.18,-148.266 L2922.67,-144.696 L2937.67,-140.287 L2952.15,-135.071 L2966.11,-129.089 L2979.52,-122.386 L2992.39,-115.012 L3004.71,-107.02 L3016.49,-98.461 L3027.74,-89.3874 L3038.49,-79.8479 L3048.75,-69.8887 L3058.55,-59.5523 L3067.91,-48.8777 L3076.95,-37.8044 L3089.7,-20.9244 L3105.48,2.36938 L3120.23,26.4496 L3134.08,51.0138 L3147.26,75.9212 L3165.98,113.201 L3177.44,136.664 L3186.64,152.715 L3201.64,178.822 L3201.92,179.32 L3212.06,196.322 L3222.57,212.973 L3233.45,228.97 L3244.83,244.177 L3256.87,258.576 L3266.35,268.644 L3272.77,274.92 L3279.49,281.017 L3286.44,286.833 L3293.65,292.362 L3301.12,297.601 L3308.9,302.544 L3317,307.187 L3325.47,311.523 L3334.33,315.543 L3343.64,319.236 L3353.41,322.587 L3363.69,325.578 L3374.53,328.188 L3385.95,330.394 L3398.15,332.194 L3452.27,338.197 M2488.28,133.669 L2509.6,144.685 M2485.68,138.705 L2507,149.722 M2864.07,-153.414 L2862.64,-129.456 M3201.19,178.058 L3180.57,190.334"/>
</g>

<g fill="none" stroke="#000000" stroke-opacity="1" stroke-width="1.51181" stroke-linecap="round" stroke-linejoin="round" transform="matrix(1,0,0,1,-4,189)"
font-family="Arial" font-size="10.6667" font-weight="400" font-style="normal" 
>
</g>

<g fill="none" stroke="#000000" stroke-opacity="1" stroke-width="1.51181" stroke-linecap="round" stroke-linejoin="round" transform="matrix(1,0,0,1,-4,189)"
font-family="Arial" font-size="10.6667" font-weight="400" font-style="normal" 
>
</g>

<g fill="none" stroke="#000000" stroke-opacity="1" stroke-width="1" stroke-linecap="square" stroke-linejoin="bevel" transform="matrix(1,0,0,1,-4,189)"
font-family="Arial" font-size="10.6667" font-weight="400" font-style="normal" 
>
<path vector-effect="none" fill-rule="nonzero" d="M76.2,4292.48 L76.2,2912 L76.2,2005.76 L310.512,2005.76 L388.92,2576 L467.328,2005.76 L562.512,2005.76 L640.92,2576 L719.328,2005.76 L869.16,2005.76 L869.16,2007.26 L878.965,2028.41 L897.717,2070.04 L915.463,2110.87 L932.23,2150.89 L948.045,2190.08 L962.935,2228.45 L976.926,2265.98 L990.045,2302.66 L1002.32,2338.48 L1013.77,2373.44 L1024.44,2407.52 L1034.33,2440.72 L1043.49,2473.03 L1051.94,2504.44 L1059.7,2534.94 L1066.81,2564.52 L1073.28,2593.17 L1079.15,2620.88 L1086.94,2660.8 L1095.37,2710.51 L1101.86,2756.31 L1106.62,2798.13 L1109.87,2835.91 L1111.83,2869.57 L1112.7,2899.04 L1112.76,2912 L1112.76,4292.48 L76.2,4292.48 M28.2,4340.48 L28.2,2912 L28.2,1957.76 L352.364,1957.76 L388.92,2223.62 L425.476,1957.76 L604.364,1957.76 L640.92,2223.62 L677.476,1957.76 L917.16,1957.76 L917.16,1996.67 L922.623,2008.46 L941.612,2050.62 L959.611,2092.03 L976.624,2132.63 L992.678,2172.42 L1007.8,2211.38 L1022.01,2249.51 L1035.35,2286.8 L1047.83,2323.23 L1059.49,2358.8 L1070.34,2393.5 L1080.43,2427.32 L1089.76,2460.25 L1098.38,2492.29 L1106.3,2523.41 L1113.56,2553.62 L1120.17,2582.91 L1126.19,2611.31 L1134.17,2652.19 L1142.8,2703.13 L1149.47,2750.23 L1154.39,2793.36 L1157.75,2832.46 L1159.79,2867.47 L1160.69,2898.21 L1160.76,2911.88 L1160.76,4340.48 L28.2,4340.48 M28.2,2912 L52.2,2912 M1160.76,2912 L1136.76,2912"/>
</g>

<g fill="none" stroke="#000000" stroke-opacity="1" stroke-width="1.51181" stroke-linecap="round" stroke-linejoin="round" transform="matrix(1,0,0,1,-4,189)"
font-family="Arial" font-size="10.6667" font-weight="400" font-style="normal" 
>
</g>

<g fill="none" stroke="#000000" stroke-opacity="1" stroke-width="1.51181" stroke-linecap="round" stroke-linejoin="round" transform="matrix(1,0,0,1,-4,189)"
font-family="Arial" font-size="10.6667" font-weight="400" font-style="normal" 
>
</g>

<g fill="none" stroke="#000000" stroke-opacity="1" stroke-width="1" stroke-linecap="square" stroke-linejoin="bevel" transform="matrix(1,0,0,1,-4,189)"
font-family="Arial" font-size="10.6667" font-weight="400" font-style="normal" 
>
<path vector-effect="none" fill-rule="nonzero" d="M492.314,1468.86 L421.844,1021.07 L420.36,1011 L417.991,988.69 L416.349,964.457 L415.437,939.07 L415.262,913.295 L415.828,887.898 L417.14,863.645 L419.205,841.301 L420.552,831.212 L442.728,676.627 L484.622,489.854 L577.371,188.764 L772.156,282.117 L768.702,289.381 L759.779,309.574 L751.931,329.364 L746.398,344.519 L740.724,361.349 L735.017,379.848 L729.384,400.01 L723.932,421.829 L718.77,445.3 L714.006,470.417 L709.746,497.175 L706.099,525.567 L703.173,555.588 L701.076,587.232 L700.412,603.728 L700.034,612.582 L699.503,657.649 L699.481,677.491 L699.521,686.755 L700.219,714.911 L701.934,741.98 L704.14,761.445 L706.076,774.038 L708.456,786.281 L711.321,798.16 L714.714,809.656 L718.677,820.753 L723.253,831.434 L728.483,841.681 L734.409,851.478 L741.073,860.808 L748.518,869.653 L756.786,877.997 L765.918,885.822 L775.958,893.112 L786.946,899.849 L798.926,906.017 L811.939,911.598 L826.027,916.576 L841.233,920.933 L857.598,924.652 L866.28,926.24 L771.098,1471.82 L767.142,1471.1 L745.116,1467.62 L718.527,1464.44 L697.122,1462.5 L672.924,1460.97 L646.267,1460.08 L632.04,1460 L620.412,1460.05 L597.439,1460.57 L574.96,1461.56 L553.149,1462.93 L521.921,1465.53 L492.314,1468.86 M452.036,1521.68 L374.392,1028.3 L372.731,1017.04 L370.163,992.848 L368.407,966.942 L367.443,940.095 L367.258,912.923 L367.857,886.066 L369.26,860.138 L371.498,835.914 L373.005,824.627 L395.481,667.953 L438.196,477.517 L547.893,121.409 L836.051,259.512 L812.338,309.39 L804.058,328.129 L796.793,346.445 L791.692,360.419 L786.408,376.094 L781.073,393.384 L775.791,412.288 L770.666,432.804 L765.799,454.93 L761.297,478.665 L757.263,504.007 L753.802,530.954 L751.019,559.505 L749.012,589.784 L748.371,605.718 L748.021,613.891 L747.503,657.957 L747.481,677.414 L747.519,686.057 L748.182,712.798 L749.763,737.757 L751.728,755.093 L753.375,765.809 L755.369,776.07 L757.699,785.73 L760.37,794.778 L763.383,803.214 L766.74,811.051 L770.45,818.32 L774.531,825.068 L779.023,831.356 L783.986,837.252 L789.504,842.821 L795.684,848.116 L802.645,853.17 L810.51,857.992 L819.397,862.568 L829.413,866.864 L840.647,870.833 L853.172,874.422 L867.239,877.619 L921.748,887.587 L810.074,1527.7 L759.096,1518.43 L738.515,1515.17 L713.509,1512.18 L693.44,1510.36 L670.612,1508.92 L645.33,1508.08 L631.996,1508 L621.059,1508.04 L599.039,1508.55 L577.516,1509.49 L556.648,1510.8 L526.593,1513.31 L452.036,1521.68 M373.038,824.396 L396.795,827.804 M395.481,667.953 L419.086,672.287 M747.493,680.119 L723.493,680.222 M747.469,674.45 L723.469,674.553"/>
</g>

<g fill="none" stroke="#000000" stroke-opacity="1" stroke-width="1.51181" stroke-linecap="round" stroke-linejoin="round" transform="matrix(1,0,0,1,-4,189)"
font-family="Arial" font-size="10.6667" font-weight="400" font-style="normal" 
>
</g>

<g fill="none" stroke="#000000" stroke-opacity="1" stroke-width="1.51181" stroke-linecap="round" stroke-linejoin="round" transform="matrix(1,0,0,1,-4,189)"
font-family="Arial" font-size="10.6667" font-weight="400" font-style="normal" 
>
</g>

<g fill="none" stroke="#000000" stroke-opacity="1" stroke-width="1" stroke-linecap="square" stroke-linejoin="bevel" transform="matrix(1,0,0,1,-4,189)"
font-family="Arial" font-size="10.6667" font-weight="400" font-style="normal" 
>
<path vector-effect="none" fill-rule="nonzero" d="M1129.46,1471.82 L1034.28,926.24 L1040.73,925.003 L1052.34,921.669 L1062.46,917.358 L1071.15,912.128 L1078.48,906.038 L1084.51,899.147 L1089.31,891.516 L1092.94,883.202 L1095.46,874.265 L1096.94,864.764 L1097.44,854.759 L1097.02,844.308 L1095.75,833.47 L1093.69,822.306 L1090.91,810.872 L1087.47,799.23 L1083.44,787.439 L1078.87,775.556 L1071.21,757.684 L1059.64,734.084 L1047.1,711.186 L1034.09,689.462 L1021.12,669.386 L1019.16,666.521 L735.419,383.803 L816.394,260.358 L1443.68,820.011 L1459.32,833.742 L1484.12,855.212 L1500.04,869.541 L1514.53,883.578 L1523.87,893.719 L1529.26,900.252 L1533.82,906.552 L1537.44,912.584 L1540.01,918.312 L1541.44,923.7 L1541.64,926.24 L1541.85,933.761 L1541.76,948.401 L1541.13,962.502 L1540.04,976.001 L1537.74,995.082 L1533.72,1017.72 L1529.26,1036.84 L1524.98,1051.92 L1520.04,1066.56 L1519.25,1068.49 L1516.24,1077.11 L1501.94,1122.23 L1495.63,1145.67 L1492.75,1159.1 L1492,1164.5 L1455.29,1470.91 L1446.9,1469.75 L1408.77,1465.53 L1376.7,1462.93 L1353.97,1461.56 L1330.16,1460.57 L1305.33,1460.05 L1292.52,1460 L1275.83,1460.08 L1244.49,1460.97 L1215.98,1462.5 L1190.75,1464.44 L1159.43,1467.62 L1133.75,1471.1 L1129.46,1471.82 M1090.37,1527.05 L978.882,887.991 L1029.56,878.27 L1036.25,876.35 L1040.57,874.507 L1043.28,872.876 L1044.88,871.551 L1045.9,870.385 L1046.76,869.019 L1047.63,867.015 L1048.48,864.026 L1049.12,859.87 L1049.39,854.522 L1049.13,848.061 L1048.26,840.615 L1046.73,832.331 L1044.55,823.351 L1041.73,813.809 L1038.31,803.828 L1034.39,793.633 L1027.57,777.715 L1017.02,756.185 L1005.45,735.056 L993.328,714.825 L981.944,697.203 L673.824,390.189 L806.8,187.471 L1475.5,784.067 L1490.87,797.565 L1515.88,819.227 L1532.8,834.448 L1548.91,850.05 L1560.07,862.167 L1567.26,870.888 L1573.92,880.09 L1580.05,890.311 L1585.4,902.206 L1588.96,915.631 L1589.59,923.72 L1589.85,933.24 L1589.75,949.619 L1589.04,965.507 L1587.81,980.808 L1585.24,1002.15 L1580.76,1027.38 L1575.75,1048.85 L1570.84,1066.16 L1565.04,1083.33 L1564.15,1085.51 L1561.78,1092.28 L1548.02,1135.72 L1542.3,1156.95 L1540.05,1167.46 L1539.6,1170.67 L1497.13,1525.14 L1440.97,1517.39 L1404.18,1513.32 L1373.31,1510.81 L1351.54,1509.5 L1328.66,1508.55 L1304.74,1508.04 L1292.55,1508 L1276.63,1508.08 L1246.45,1508.93 L1219.11,1510.4 L1195.01,1512.25 L1165.08,1515.29 L1140.95,1518.56 L1090.37,1527.05 M982.094,697.353 L1000.54,682.004 M1475.35,783.942 L1459.52,801.976 M1539.66,1170.21 L1515.83,1167.36"/>
</g>

<g fill="none" stroke="#000000" stroke-opacity="1" stroke-width="1.51181" stroke-linecap="round" stroke-linejoin="round" transform="matrix(1,0,0,1,-4,189)"
font-family="Arial" font-size="10.6667" font-weight="400" font-style="normal" 
>
</g>

<g fill="none" stroke="#000000" stroke-opacity="1" stroke-width="1.51181" stroke-linecap="round" stroke-linejoin="round" transform="matrix(1,0,0,1,218.09,126.084)"
font-family="Arial" font-size="10.6667" font-weight="400" font-style="normal" 
>
</g>

<g fill="none" stroke="#000000" stroke-opacity="1" stroke-width="1" stroke-linecap="square" stroke-linejoin="bevel" transform="matrix(1,0,0,1,218.09,126.084)"
font-family="Arial" font-size="10.6667" font-weight="400" font-style="normal" 
>
<path vector-effect="none" fill-rule="nonzero" d="M1112.76,4292.48 L1112.76,2912 L1112.8,2904.4 L1113.3,2888.58 L1114.29,2872.04 L1115.8,2854.75 L1117.83,2836.72 L1120.38,2817.94 L1123.46,2798.4 L1127.08,2778.09 L1131.25,2757 L1135.97,2735.14 L1144.03,2700.96 L1156.88,2652.46 L1172.08,2600.71 L1189.68,2545.65 L1209.74,2487.23 L1232.33,2425.4 L1257.5,2360.09 L1285.3,2291.26 L1315.8,2218.83 L1349.06,2142.77 L1385.13,2063.01 L1404.36,2021.57 L1439.68,2027.72 L1508.22,2038.89 L1574.09,2048.79 L1610.84,2053.87 L1644.6,2432 L1677.58,2062.62 L1696.99,2065.08 L1753.64,2071.61 L1792.79,2075.71 L1824.6,2432 L1855.87,2081.8 L1856.33,2081.85 L1901.99,2085.69 L1943.59,2088.79 L1998.53,2092.28 L2055.03,2094.92 L2091.77,2095.94 L2101.32,2096 L2101.32,2912 L2101.32,4292.48 L1112.76,4292.48 M1064.76,4340.48 L1064.76,2911.87 L1064.81,2903.51 L1065.34,2886.39 L1066.42,2868.51 L1068.04,2849.99 L1070.19,2830.82 L1072.88,2810.97 L1076.12,2790.45 L1079.9,2769.22 L1084.24,2747.28 L1089.14,2724.56 L1097.46,2689.3 L1110.64,2639.55 L1126.18,2586.63 L1144.12,2530.54 L1164.5,2471.2 L1187.39,2408.53 L1212.85,2342.47 L1240.93,2272.95 L1271.69,2199.9 L1305.2,2123.27 L1341.49,2043.02 L1376.32,1967.97 L1447.65,1980.38 L1515.65,1991.47 L1580.94,2001.29 L1643.37,2009.91 L1702.75,2017.43 L1758.88,2023.9 L1837.08,2032.08 L1812.35,2029.49 L1860.6,2034.03 L1905.79,2037.84 L1946.9,2040.91 L2001.17,2044.35 L2056.82,2046.95 L2092.59,2047.94 L2149.32,2048.3 L2149.32,2912 L2149.32,4340.48 L1064.76,4340.48 M1064.76,2911.74 L1088.76,2911.87 M2149.32,2912 L2125.32,2912"/>
</g>

<g fill="none" stroke="#000000" stroke-opacity="1" stroke-width="1.51181" stroke-linecap="round" stroke-linejoin="round" transform="matrix(1,0,0,1,218.09,126.084)"
font-family="Arial" font-size="10.6667" font-weight="400" font-style="normal" 
>
</g>

<g fill="none" stroke="#000000" stroke-opacity="1" stroke-width="1.51181" stroke-linecap="round" stroke-linejoin="round" transform="matrix(1,0,0,1,-4,189)"
font-family="Arial" font-size="10.6667" font-weight="400" font-style="normal" 
>
</g>

<g fill="none" stroke="#000000" stroke-opacity="1" stroke-width="1" stroke-linecap="square" stroke-linejoin="bevel" transform="matrix(1,0,0,1,-4,189)"
font-family="Arial" font-size="10.6667" font-weight="400" font-style="normal" 
>
<path vector-effect="none" fill-rule="nonzero" d="M321.509,1468.97 L295.873,1465.53 L269.382,1462.93 L250.577,1461.56 L230.842,1460.57 L210.221,1460.05 L199.56,1460 L186.946,1460.09 L163.369,1461.08 L142.01,1462.77 L123.135,1464.87 L99.6662,1468.25 L79.997,1471.62 L76.2,1472 L76.2,220.64 L89.0306,220.679 L111.152,220.512 L127.033,219.981 L143.638,218.88 L160.735,217.013 L178.092,214.184 L195.477,210.195 L208.382,206.277 L216.878,203.229 L225.25,199.781 L233.47,195.908 L241.508,191.585 L249.335,186.788 L256.924,181.493 L264.243,175.675 L271.265,169.309 L277.961,162.371 L284.301,154.837 L290.257,146.681 L295.799,137.879 L300.899,128.406 L305.527,118.239 L309.655,107.352 L311.499,101.6 L517.85,165.44 L442.728,676.627 L420.552,831.212 L321.509,1468.97 M361.726,1522.79 L290.336,1513.22 L265.29,1510.76 L247.636,1509.47 L229.032,1508.54 L209.502,1508.04 L199.633,1508 L188.126,1508.09 L166.261,1509 L146.567,1510.55 L129.218,1512.49 L107.143,1515.67 L86.4229,1519.22 L4.2,1527.34 L4.2,196.419 L88.9765,196.679 L110.66,196.515 L125.838,196.007 L141.541,194.966 L157.5,193.224 L173.473,190.62 L189.3,186.988 L200.84,183.485 L208.251,180.826 L215.559,177.816 L222.664,174.469 L229.545,170.768 L236.187,166.698 L242.576,162.24 L248.7,157.372 L254.552,152.067 L260.124,146.294 L265.406,140.016 L270.387,133.194 L275.054,125.782 L279.387,117.734 L283.362,109.003 L286.992,99.4284 L303.227,48.7958 L571.318,131.737 L490.23,683.524 L468.026,838.304 L361.726,1522.79 M490.242,683.443 L466.485,680.035 M468.026,838.304 L444.289,834.758"/>
</g>

<g fill="none" stroke="#000000" stroke-opacity="1" stroke-width="1.51181" stroke-linecap="round" stroke-linejoin="round" transform="matrix(1,0,0,1,-4,189)"
font-family="Arial" font-size="10.6667" font-weight="400" font-style="normal" 
>
</g>

<g fill="none" stroke="#000000" stroke-opacity="1" stroke-width="1.51181" stroke-linecap="round" stroke-linejoin="round" transform="matrix(1,0,0,1,-173.228,-1554.05)"
font-family="Arial" font-size="10.6667" font-weight="400" font-style="normal" 
>
</g>

<g fill="none" stroke="#000000" stroke-opacity="1" stroke-width="1" stroke-linecap="square" stroke-linejoin="bevel" transform="matrix(1,0,0,1,-173.228,-1554.05)"
font-family="Arial" font-size="10.6667" font-weight="400" font-style="normal" 
>
<path vector-effect="none" fill-rule="nonzero" d="M3061.32,2439.95 L3061.32,2735.9 L3068.37,2728.94 L3082.65,2715.64 L3097.17,2703.07 L3111.89,2691.24 L3126.81,2680.12 L3141.92,2669.71 L3157.18,2659.99 L3172.6,2650.96 L3188.16,2642.6 L3203.84,2634.91 L3219.63,2627.86 L3235.52,2621.46 L3251.48,2615.69 L3267.51,2610.54 L3283.59,2606 L3299.7,2602.06 L3315.83,2598.7 L3331.97,2595.92 L3348.11,2593.71 L3364.22,2592.06 L3380.29,2590.94 L3396.31,2590.37 L3412.26,2590.31 L3428.14,2590.77 L3443.91,2591.73 L3459.58,2593.18 L3475.12,2595.11 L3490.53,2597.51 L3505.78,2600.37 L3520.86,2603.68 L3535.75,2607.42 L3550.45,2611.59 L3564.94,2616.18 L3579.2,2621.17 L3593.22,2626.56 L3606.98,2632.33 L3620.48,2638.47 L3633.69,2644.97 L3646.59,2651.83 L3659.19,2659.02 L3671.45,2666.55 L3683.37,2674.39 L3694.94,2682.55 L3706.13,2691 L3716.93,2699.73 L3727.34,2708.75 L3737.32,2718.02 L3746.88,2727.56 L3755.99,2737.33 L3764.63,2747.34 L3772.81,2757.57 L3780.5,2768.01 L3787.68,2778.66 L3794.34,2789.49 L3800.47,2800.5 L3806.06,2811.68 L3811.08,2823.02 L3815.52,2834.51 L3819.37,2846.13 L3822.62,2857.87 L3825.25,2869.73 L3827.24,2881.7 L3828.58,2893.76 L3829.26,2905.9 L3829.32,2912 L3829.28,2921.54 L3828.81,2940.59 L3827.87,2959.57 L3826.46,2978.48 L3824.59,2997.32 L3822.26,3016.07 L3819.47,3034.73 L3816.23,3053.29 L3812.55,3071.75 L3808.41,3090.08 L3803.83,3108.3 L3798.81,3126.38 L3793.36,3144.32 L3787.47,3162.12 L3781.15,3179.76 L3774.41,3197.23 L3767.24,3214.54 L3759.65,3231.67 L3751.65,3248.61 L3743.23,3265.35 L3734.4,3281.9 L3725.16,3298.23 L3715.52,3314.35 L3705.47,3330.24 L3695.03,3345.89 L3684.2,3361.31 L3672.97,3376.47 L3661.36,3391.38 L3649.36,3406.02 L3636.99,3420.39 L3624.23,3434.48 L3611.1,3448.28 L3604.38,3455.06 L3597.6,3461.78 L3583.8,3474.91 L3569.71,3487.67 L3555.34,3500.04 L3540.7,3512.04 L3525.79,3523.65 L3510.63,3534.88 L3495.22,3545.71 L3479.56,3556.15 L3463.67,3566.2 L3447.55,3575.84 L3431.22,3585.08 L3414.67,3593.91 L3397.93,3602.33 L3380.99,3610.33 L3363.86,3617.92 L3346.55,3625.09 L3329.08,3631.83 L3311.44,3638.15 L3293.64,3644.04 L3275.7,3649.49 L3257.62,3654.51 L3239.4,3659.09 L3221.07,3663.22 L3202.61,3666.91 L3184.05,3670.15 L3165.39,3672.94 L3146.64,3675.27 L3127.8,3677.14 L3108.89,3678.55 L3089.91,3679.49 L3070.86,3679.96 L3061.32,3680 L3051.78,3679.96 L3032.73,3679.49 L3013.75,3678.55 L2994.84,3677.14 L2976,3675.27 L2957.25,3672.94 L2938.59,3670.15 L2920.03,3666.91 L2901.57,3663.22 L2883.24,3659.09 L2865.02,3654.51 L2846.94,3649.49 L2829,3644.04 L2811.2,3638.15 L2793.56,3631.83 L2776.09,3625.09 L2758.78,3617.92 L2741.65,3610.33 L2724.71,3602.33 L2707.97,3593.91 L2691.42,3585.08 L2675.09,3575.84 L2658.97,3566.2 L2643.08,3556.15 L2627.42,3545.71 L2612.01,3534.88 L2596.85,3523.65 L2581.94,3512.04 L2567.3,3500.04 L2552.93,3487.67 L2538.84,3474.91 L2525.04,3461.78 L2518.26,3455.06 L2511.54,3448.28 L2498.41,3434.48 L2485.65,3420.39 L2473.28,3406.02 L2461.28,3391.38 L2449.67,3376.47 L2438.44,3361.31 L2427.61,3345.89 L2417.17,3330.24 L2407.12,3314.35 L2397.48,3298.23 L2388.24,3281.9 L2379.41,3265.35 L2370.99,3248.61 L2362.99,3231.67 L2355.4,3214.54 L2348.23,3197.23 L2341.49,3179.76 L2335.17,3162.12 L2329.28,3144.32 L2323.83,3126.38 L2318.81,3108.3 L2314.23,3090.08 L2310.09,3071.75 L2306.41,3053.29 L2303.17,3034.73 L2300.38,3016.07 L2298.05,2997.32 L2296.18,2978.48 L2294.77,2959.57 L2293.83,2940.59 L2293.36,2921.54 L2293.32,2912 L2293.36,2902.46 L2293.83,2883.41 L2294.77,2864.43 L2296.18,2845.52 L2298.05,2826.68 L2300.38,2807.93 L2303.17,2789.27 L2306.41,2770.71 L2310.09,2752.25 L2314.23,2733.92 L2318.81,2715.7 L2323.83,2697.62 L2329.28,2679.68 L2335.17,2661.88 L2341.49,2644.24 L2348.23,2626.77 L2355.4,2609.46 L2362.99,2592.33 L2370.99,2575.39 L2379.41,2558.65 L2388.24,2542.1 L2397.48,2525.77 L2407.12,2509.65 L2417.17,2493.76 L2427.61,2478.1 L2438.44,2462.69 L2449.67,2447.52 L2461.28,2432.62 L2473.28,2417.97 L2485.65,2403.61 L2498.41,2389.52 L2511.54,2375.72 L2518.26,2368.94 L2525.04,2362.22 L2538.84,2349.09 L2552.93,2336.33 L2567.3,2323.95 L2581.94,2311.96 L2596.85,2300.34 L2612.01,2289.12 L2627.42,2278.29 L2643.08,2267.85 L2658.97,2257.8 L2675.09,2248.16 L2691.42,2238.92 L2707.97,2230.09 L2724.71,2221.67 L2741.65,2213.67 L2758.78,2206.08 L2776.09,2198.91 L2793.56,2192.17 L2811.2,2185.85 L2829,2179.96 L2846.94,2174.51 L2865.02,2169.49 L2883.24,2164.91 L2901.57,2160.77 L2920.03,2157.09 L2938.59,2153.85 L2957.25,2151.06 L2976,2148.73 L2994.84,2146.86 L3013.75,2145.45 L3032.73,2144.51 L3051.78,2144.04 L3061.32,2144 L3061.32,2439.95 M3109.32,2439.95 L3109.32,2633.88 L3115.4,2629.69 L3132.16,2619.02 L3149.11,2609.09 L3166.22,2599.9 L3183.49,2591.43 L3200.88,2583.67 L3218.38,2576.62 L3235.97,2570.26 L3253.64,2564.58 L3271.35,2559.58 L3289.11,2555.23 L3306.87,2551.54 L3324.64,2548.48 L3342.39,2546.05 L3360.1,2544.23 L3377.77,2543 L3395.36,2542.37 L3412.87,2542.31 L3430.29,2542.81 L3447.59,2543.86 L3464.75,2545.45 L3481.78,2547.57 L3498.65,2550.2 L3515.34,2553.33 L3531.85,2556.95 L3548.16,2561.05 L3564.25,2565.61 L3580.12,2570.64 L3595.74,2576.11 L3611.11,2582.01 L3626.21,2588.34 L3641.03,2595.09 L3655.55,2602.24 L3669.76,2609.78 L3683.65,2617.72 L3697.2,2626.03 L3710.4,2634.72 L3723.24,2643.77 L3735.69,2653.17 L3747.75,2662.92 L3759.4,2673.01 L3770.62,2683.44 L3781.4,2694.19 L3791.72,2705.27 L3801.56,2716.65 L3810.9,2728.35 L3819.74,2740.35 L3828.03,2752.65 L3835.77,2765.23 L3842.93,2778.09 L3849.49,2791.23 L3855.43,2804.63 L3860.71,2818.28 L3865.32,2832.17 L3869.22,2846.28 L3872.39,2860.6 L3874.8,2875.1 L3876.44,2889.76 L3877.25,2904.33 L3877.32,2911.87 L3877.28,2922.24 L3876.78,2942.37 L3875.78,2962.54 L3874.28,2982.64 L3872.3,3002.65 L3869.82,3022.58 L3866.86,3042.4 L3863.42,3062.12 L3859.5,3081.73 L3855.11,3101.21 L3850.24,3120.57 L3844.91,3139.78 L3839.11,3158.84 L3832.86,3177.75 L3826.15,3196.49 L3818.98,3215.06 L3811.36,3233.45 L3803.3,3251.65 L3794.79,3269.65 L3785.85,3287.44 L3776.47,3305.02 L3766.65,3322.37 L3756.41,3339.5 L3745.74,3356.38 L3734.64,3373.01 L3723.13,3389.39 L3711.2,3405.51 L3698.87,3421.35 L3686.12,3436.9 L3672.97,3452.17 L3659.41,3467.14 L3645.53,3481.73 L3638.32,3489 L3631.05,3496.21 L3616.46,3510.09 L3601.49,3523.65 L3586.22,3536.8 L3570.67,3549.55 L3554.83,3561.88 L3538.71,3573.81 L3522.33,3585.32 L3505.7,3596.42 L3488.82,3607.09 L3471.69,3617.33 L3454.34,3627.14 L3436.76,3636.53 L3418.97,3645.47 L3400.97,3653.98 L3382.77,3662.04 L3364.38,3669.66 L3345.81,3676.82 L3327.07,3683.54 L3308.16,3689.79 L3289.1,3695.59 L3269.89,3700.92 L3250.53,3705.78 L3231.05,3710.18 L3211.44,3714.1 L3191.72,3717.54 L3171.9,3720.5 L3151.97,3722.97 L3131.96,3724.96 L3111.86,3726.46 L3091.69,3727.46 L3071.56,3727.96 L3061.32,3728 L3051.08,3727.96 L3030.95,3727.46 L3010.78,3726.46 L2990.68,3724.96 L2970.67,3722.97 L2950.74,3720.5 L2930.92,3717.54 L2911.2,3714.1 L2891.59,3710.18 L2872.11,3705.78 L2852.75,3700.92 L2833.54,3695.59 L2814.48,3689.79 L2795.57,3683.54 L2776.83,3676.82 L2758.26,3669.66 L2739.87,3662.04 L2721.67,3653.98 L2703.67,3645.47 L2685.88,3636.53 L2668.3,3627.14 L2650.95,3617.33 L2633.82,3607.09 L2616.94,3596.42 L2600.31,3585.32 L2583.93,3573.81 L2567.81,3561.88 L2551.97,3549.55 L2536.42,3536.8 L2521.15,3523.65 L2506.18,3510.09 L2491.59,3496.21 L2484.32,3489 L2477.11,3481.73 L2463.23,3467.14 L2449.67,3452.17 L2436.52,3436.9 L2423.77,3421.35 L2411.44,3405.51 L2399.51,3389.39 L2388,3373.01 L2376.9,3356.38 L2366.23,3339.5 L2355.99,3322.37 L2346.17,3305.02 L2336.79,3287.44 L2327.85,3269.65 L2319.34,3251.65 L2311.28,3233.45 L2303.66,3215.06 L2296.49,3196.49 L2289.78,3177.75 L2283.53,3158.84 L2277.73,3139.78 L2272.4,3120.57 L2267.53,3101.21 L2263.14,3081.73 L2259.22,3062.12 L2255.78,3042.4 L2252.82,3022.58 L2250.34,3002.65 L2248.36,2982.64 L2246.86,2962.54 L2245.86,2942.37 L2245.36,2922.24 L2245.32,2912 L2245.36,2901.76 L2245.86,2881.63 L2246.86,2861.46 L2248.36,2841.36 L2250.34,2821.35 L2252.82,2801.42 L2255.78,2781.6 L2259.22,2761.87 L2263.14,2742.27 L2267.53,2722.78 L2272.4,2703.43 L2277.73,2684.22 L2283.53,2665.16 L2289.78,2646.25 L2296.49,2627.51 L2303.66,2608.94 L2311.28,2590.55 L2319.34,2572.35 L2327.85,2554.35 L2336.79,2536.56 L2346.17,2518.98 L2355.99,2501.63 L2366.23,2484.5 L2376.9,2467.62 L2388,2450.99 L2399.51,2434.61 L2411.44,2418.49 L2423.77,2402.65 L2436.52,2387.1 L2449.67,2371.83 L2463.23,2356.86 L2477.11,2342.27 L2484.32,2335 L2491.59,2327.79 L2506.18,2313.91 L2521.15,2300.35 L2536.42,2287.2 L2551.97,2274.45 L2567.81,2262.12 L2583.93,2250.19 L2600.31,2238.68 L2616.94,2227.58 L2633.82,2216.91 L2650.95,2206.67 L2668.3,2196.85 L2685.88,2187.47 L2703.67,2178.53 L2721.67,2170.02 L2739.87,2161.96 L2758.26,2154.34 L2776.83,2147.17 L2795.57,2140.46 L2814.48,2134.21 L2833.54,2128.41 L2852.75,2123.08 L2872.11,2118.21 L2891.59,2113.82 L2911.2,2109.9 L2930.92,2106.46 L2950.74,2103.5 L2970.67,2101.02 L2990.68,2099.04 L3010.78,2097.54 L3030.95,2096.54 L3051.08,2096.04 L3109.32,2095.8 L3109.32,2439.95"/>
</g>

<g fill="none" stroke="#000000" stroke-opacity="1" stroke-width="1.51181" stroke-linecap="round" stroke-linejoin="round" transform="matrix(1,0,0,1,-173.228,-1554.05)"
font-family="Arial" font-size="10.6667" font-weight="400" font-style="normal" 
>
</g>

<g fill="none" stroke="#000000" stroke-opacity="1" stroke-width="1.51181" stroke-linecap="round" stroke-linejoin="round" transform="matrix(1,0,0,1,-173.228,-1554.05)"
font-family="Arial" font-size="10.6667" font-weight="400" font-style="normal" 
>
</g>

<g fill="none" stroke="#000000" stroke-opacity="1" stroke-width="1" stroke-linecap="square" stroke-linejoin="bevel" transform="matrix(1,0,0,1,-173.228,-1554.05)"
font-family="Arial" font-size="10.6667" font-weight="400" font-style="normal" 
>
<path vector-effect="none" fill-rule="nonzero" d="M3237.42,2912 L3237.39,2907.62 L3236.95,2898.92 L3236.1,2890.28 L3234.82,2881.72 L3233.13,2873.26 L3231.03,2864.91 L3228.53,2856.68 L3225.63,2848.59 L3222.34,2840.65 L3218.67,2832.88 L3214.62,2825.3 L3210.2,2817.91 L3205.41,2810.73 L3200.26,2803.77 L3194.76,2797.06 L3188.91,2790.6 L3185.84,2787.48 L3182.72,2784.41 L3176.26,2778.56 L3169.55,2773.06 L3162.59,2767.91 L3155.41,2763.12 L3148.02,2758.7 L3140.44,2754.65 L3132.67,2750.98 L3124.73,2747.69 L3116.64,2744.79 L3108.41,2742.29 L3100.06,2740.19 L3091.6,2738.5 L3083.04,2737.22 L3074.4,2736.37 L3065.69,2735.93 L3061.32,2735.9 L3056.95,2735.93 L3048.24,2736.37 L3039.6,2737.22 L3031.04,2738.5 L3022.58,2740.19 L3014.23,2742.29 L3006,2744.79 L2997.91,2747.69 L2989.97,2750.98 L2982.2,2754.65 L2974.62,2758.7 L2967.23,2763.12 L2960.05,2767.91 L2953.09,2773.06 L2946.38,2778.56 L2939.92,2784.41 L2936.8,2787.48 L2933.73,2790.6 L2927.88,2797.06 L2922.38,2803.77 L2917.23,2810.73 L2912.44,2817.91 L2908.02,2825.3 L2903.97,2832.88 L2900.3,2840.65 L2897.01,2848.59 L2894.11,2856.68 L2891.61,2864.91 L2889.51,2873.26 L2887.82,2881.72 L2886.54,2890.28 L2885.69,2898.92 L2885.25,2907.62 L2885.22,2912 L2885.25,2916.37 L2885.69,2925.08 L2886.54,2933.72 L2887.82,2942.28 L2889.51,2950.74 L2891.61,2959.09 L2894.11,2967.32 L2897.01,2975.41 L2900.3,2983.35 L2903.97,2991.12 L2908.02,2998.7 L2912.44,3006.09 L2917.23,3013.27 L2922.38,3020.23 L2927.88,3026.94 L2933.73,3033.4 L2936.8,3036.52 L2939.92,3039.59 L2946.38,3045.44 L2953.09,3050.94 L2960.05,3056.09 L2967.23,3060.88 L2974.62,3065.3 L2982.2,3069.35 L2989.97,3073.02 L2997.91,3076.31 L3006,3079.21 L3014.23,3081.71 L3022.58,3083.81 L3031.04,3085.5 L3039.6,3086.78 L3048.24,3087.63 L3056.95,3088.07 L3061.32,3088.1 L3065.69,3088.07 L3074.4,3087.63 L3083.04,3086.78 L3091.6,3085.5 L3100.06,3083.81 L3108.41,3081.71 L3116.64,3079.21 L3124.73,3076.31 L3132.67,3073.02 L3140.44,3069.35 L3148.02,3065.3 L3155.41,3060.88 L3162.59,3056.09 L3169.55,3050.94 L3176.26,3045.44 L3182.72,3039.59 L3185.84,3036.52 L3188.91,3033.4 L3194.76,3026.94 L3200.26,3020.23 L3205.41,3013.27 L3210.2,3006.09 L3214.62,2998.7 L3218.67,2991.12 L3222.34,2983.35 L3225.63,2975.41 L3228.53,2967.32 L3231.03,2959.09 L3233.13,2950.74 L3234.82,2942.28 L3236.1,2933.72 L3236.95,2925.08 L3237.39,2916.37 L3237.42,2912"/>
</g>

<g fill="none" stroke="#000000" stroke-opacity="1" stroke-width="1.51181" stroke-linecap="round" stroke-linejoin="round" transform="matrix(1,0,0,1,-173.228,-1554.05)"
font-family="Arial" font-size="10.6667" font-weight="400" font-style="normal" 
>
</g>

<g fill="none" stroke="#000000" stroke-opacity="1" stroke-width="1.51181" stroke-linecap="round" stroke-linejoin="round" transform="matrix(1,0,0,1,0,0)"
font-family="Arial" font-size="10.6667" font-weight="400" font-style="normal" 
>
</g>
</g>
</svg>
