<?xml version="1.0" encoding="UTF-8" standalone="no"?>
<svg width="761.735mm" height="631.56mm"
 viewBox="0 0 2879 2387"
 xmlns="http://www.w3.org/2000/svg" xmlns:xlink="http://www.w3.org/1999/xlink"  version="1.2" baseProfile="tiny">
<title>Pattern</title>
<defs>
</defs>
<g fill="none" stroke="black" stroke-width="1" fill-rule="evenodd" stroke-linecap="square" stroke-linejoin="bevel" >

<g fill="none" stroke="#000000" stroke-opacity="1" stroke-width="1.51181" stroke-linecap="round" stroke-linejoin="round" transform="matrix(1,0,0,1,0,0)"
font-family="Arial" font-size="10.6667" font-weight="400" font-style="normal" 
>
</g>

<g fill="none" stroke="#000000" stroke-opacity="1" stroke-width="1.51181" stroke-linecap="round" stroke-linejoin="round" transform="matrix(1,0,0,1,0,0)"
font-family="Arial" font-size="10.6667" font-weight="400" font-style="normal" 
>
</g>

<g fill="none" stroke="#000000" stroke-opacity="1" stroke-width="1.51181" stroke-linecap="round" stroke-linejoin="round" transform="matrix(1,0,0,1,0,0)"
font-family="Arial" font-size="10.6667" font-weight="400" font-style="normal" 
>
</g>

<g fill="none" stroke="#000000" stroke-opacity="1" stroke-width="1" stroke-linecap="square" stroke-linejoin="bevel" transform="matrix(1,0,0,1,0,0)"
font-family="Arial" font-size="10.6667" font-weight="400" font-style="normal" 
>
<path vector-effect="none" fill-rule="nonzero" d="M1134.9,48 L2539,48 L2539.04,53.1535 L2539.55,63.408 L2540.56,73.5842 L2542.06,83.6651 L2544.06,93.6336 L2546.53,103.473 L2549.48,113.166 L2552.89,122.695 L2556.76,132.044 L2561.09,141.196 L2565.86,150.134 L2571.06,158.84 L2576.7,167.298 L2582.77,175.49 L2589.25,183.4 L2596.14,191.011 L2599.76,194.685 L1606.91,1187.53 L1592.81,1173.31 L1565.25,1144.35 L1538.49,1114.79 L1512.51,1084.64 L1487.34,1053.92 L1462.97,1022.63 L1439.42,990.813 L1416.68,958.467 L1394.77,925.615 L1373.7,892.272 L1353.47,858.455 L1334.09,824.18 L1315.56,789.464 L1297.89,754.324 L1281.09,718.776 L1265.17,682.836 L1250.13,646.521 L1235.97,609.848 L1222.71,572.833 L1210.36,535.492 L1198.91,497.842 L1188.38,459.9 L1178.78,421.682 L1170.1,383.204 L1162.36,344.484 L1155.56,305.537 L1149.72,266.38 L1144.83,227.03 L1140.91,187.503 L1137.95,147.816 L1135.98,107.985 L1134.98,68.0261 L1134.9,48 M1086.7,0 L2586.6,0 L2587.03,51.765 L2587.43,59.8454 L2588.21,67.6655 L2589.36,75.4119 L2590.89,83.0723 L2592.79,90.6338 L2595.06,98.0835 L2597.68,105.408 L2600.66,112.594 L2603.98,119.628 L2607.65,126.497 L2611.65,133.188 L2615.99,139.688 L2620.65,145.983 L2625.63,152.062 L2631.06,158.059 L2667.36,194.965 L1606.77,1255.55 L1558.38,1206.76 L1530.07,1177.01 L1502.51,1146.57 L1475.76,1115.52 L1449.83,1083.88 L1424.74,1051.67 L1400.48,1018.9 L1377.07,985.587 L1354.51,951.755 L1332.81,917.419 L1311.98,882.594 L1292.02,847.299 L1272.94,811.549 L1254.74,775.362 L1237.44,738.756 L1221.05,701.746 L1205.56,664.349 L1190.98,626.584 L1177.33,588.467 L1164.61,550.014 L1152.82,511.243 L1141.98,472.17 L1132.08,432.814 L1123.15,393.19 L1115.18,353.315 L1108.18,313.208 L1102.16,272.884 L1097.12,232.361 L1093.08,191.657 L1090.04,150.787 L1088.01,109.769 L1086.99,68.7209 L1086.7,0"/>
</g>

<g fill="none" stroke="#000000" stroke-opacity="1" stroke-width="1.51181" stroke-linecap="round" stroke-linejoin="round" transform="matrix(1,0,0,1,0,0)"
font-family="Arial" font-size="10.6667" font-weight="400" font-style="normal" 
>
</g>

<g fill="none" stroke="#000000" stroke-opacity="1" stroke-width="1.51181" stroke-linecap="round" stroke-linejoin="round" transform="matrix(1,0,0,1,0,0)"
font-family="Arial" font-size="10.6667" font-weight="400" font-style="normal" 
>
</g>

<g fill="#000000" fill-opacity="1" stroke="#000000" stroke-opacity="1" stroke-width="1.51181" stroke-linecap="round" stroke-linejoin="round" transform="matrix(1,0,0,1,0,0)"
font-family="Arial" font-size="10.6667" font-weight="400" font-style="normal" 
>
<path vector-effect="none" fill-rule="evenodd" d="M1373.73,208.205 L1391.48,201.741 L1391.48,214.668 L1373.73,208.205 L2318.61,208.205 L2300.85,214.668 L2300.85,201.741 L2318.61,208.205"/>
</g>

<g fill="none" stroke="#000000" stroke-opacity="1" stroke-width="1.51181" stroke-linecap="round" stroke-linejoin="round" transform="matrix(1,0,0,1,0,0)"
font-family="Arial" font-size="10.6667" font-weight="400" font-style="normal" 
>
</g>

<g fill="none" stroke="#000000" stroke-opacity="1" stroke-width="1.51181" stroke-linecap="round" stroke-linejoin="round" transform="matrix(1,0,0,1,0,0)"
font-family="Arial" font-size="10.6667" font-weight="400" font-style="normal" 
>
</g>

<g fill="none" stroke="#000000" stroke-opacity="1" stroke-width="1.51181" stroke-linecap="round" stroke-linejoin="round" transform="matrix(1,0,0,1,0,0)"
font-family="Arial" font-size="10.6667" font-weight="400" font-style="normal" 
>
</g>

<g fill="none" stroke="#000000" stroke-opacity="1" stroke-width="1" stroke-linecap="square" stroke-linejoin="bevel" transform="matrix(1,0,0,1,0,0)"
font-family="Arial" font-size="10.6667" font-weight="400" font-style="normal" 
>
<path vector-effect="none" fill-rule="nonzero" d="M1075.16,209.535 L1177.55,1585.26 L1174.52,1585.51 L1152.49,1585.81 L1130.57,1584.88 L1110.72,1583.01 L1096.3,1581.12 L1081.03,1578.57 L1065.05,1575.28 L1048.51,1571.16 L1031.57,1566.12 L1014.37,1560.08 L997.059,1552.93 L988.415,1548.87 L982.34,1545.85 L969.824,1538.81 L957.015,1530.75 L944.073,1521.89 L931.159,1512.44 L918.434,1502.61 L899.982,1487.6 L877.605,1468.21 L858.888,1451.12 L839.635,1432.7 L836.911,1429.95 L830.259,1425.45 L793.94,1402.12 L773.951,1390.18 L761.765,1383.45 L756.455,1380.81 L748.454,1377 L733.66,1370.46 L720.234,1365.11 L708.08,1360.84 L697.101,1357.56 L687.204,1355.15 L678.291,1353.51 L670.269,1352.55 L666.592,1352.3 L729.048,235.294 L1075.16,209.535 M683.475,190.553 L1071.6,161.667 L1181.11,1633.13 L1176.82,1633.48 L1151.79,1633.82 L1127.31,1632.78 L1105.35,1630.72 L1089.23,1628.6 L1072.24,1625.77 L1054.41,1622.1 L1035.87,1617.48 L1016.76,1611.8 L997.244,1604.94 L977.688,1596.87 L967.526,1592.09 L959.875,1588.29 L945.261,1580.07 L930.667,1570.89 L916.332,1561.07 L902.306,1550.81 L888.611,1540.23 L869.112,1524.36 L845.702,1504.08 L826.111,1486.19 L806.131,1467.08 L803.833,1465.53 L768.651,1442.92 L750.039,1431.8 L739.47,1425.97 L735.454,1423.97 L728.431,1420.63 L715.058,1414.72 L703.391,1410.07 L693.243,1406.51 L684.54,1403.9 L677.191,1402.11 L671.08,1400.99 L665.798,1400.36 L616.016,1397.04 L683.475,190.553 M806.131,1467.08 L821.448,1448.61"/>
</g>

<g fill="none" stroke="#000000" stroke-opacity="1" stroke-width="1.51181" stroke-linecap="round" stroke-linejoin="round" transform="matrix(1,0,0,1,0,0)"
font-family="Arial" font-size="10.6667" font-weight="400" font-style="normal" 
>
</g>

<g fill="none" stroke="#000000" stroke-opacity="1" stroke-width="1.51181" stroke-linecap="round" stroke-linejoin="round" transform="matrix(1,0,0,1,0,0)"
font-family="Arial" font-size="10.6667" font-weight="400" font-style="normal" 
>
</g>

<g fill="#000000" fill-opacity="1" stroke="#000000" stroke-opacity="1" stroke-width="1.51181" stroke-linecap="round" stroke-linejoin="round" transform="matrix(1,0,0,1,0,0)"
font-family="Arial" font-size="10.6667" font-weight="400" font-style="normal" 
>
<path vector-effect="none" fill-rule="evenodd" d="M1021.58,1320.23 L1013.81,1303 L1026.7,1302.04 L1021.58,1320.23 L979.498,754.867 L987.261,772.096 L974.37,773.055 L979.498,754.867"/>
</g>

<g fill="none" stroke="#000000" stroke-opacity="1" stroke-width="1.51181" stroke-linecap="round" stroke-linejoin="round" transform="matrix(1,0,0,1,0,0)"
font-family="Arial" font-size="10.6667" font-weight="400" font-style="normal" 
>
</g>

<g fill="none" stroke="#000000" stroke-opacity="1" stroke-width="1.51181" stroke-linecap="round" stroke-linejoin="round" transform="matrix(1,0,0,1,0,0)"
font-family="Arial" font-size="10.6667" font-weight="400" font-style="normal" 
>
</g>

<g fill="none" stroke="#000000" stroke-opacity="1" stroke-width="1.51181" stroke-linecap="round" stroke-linejoin="round" transform="matrix(1,0,0,1,0,0)"
font-family="Arial" font-size="10.6667" font-weight="400" font-style="normal" 
>
</g>

<g fill="none" stroke="#000000" stroke-opacity="1" stroke-width="1" stroke-linecap="square" stroke-linejoin="bevel" transform="matrix(1,0,0,1,0,0)"
font-family="Arial" font-size="10.6667" font-weight="400" font-style="normal" 
>
<path vector-effect="none" fill-rule="nonzero" d="M1920.52,2235.98 L1803.58,2243.22 L1803.26,2239.14 L1802.06,2231.11 L1800.18,2223.24 L1797.64,2215.52 L1794.46,2207.97 L1790.65,2200.6 L1786.23,2193.41 L1781.23,2186.42 L1775.65,2179.64 L1769.52,2173.07 L1762.86,2166.72 L1755.68,2160.61 L1748,2154.73 L1739.84,2149.11 L1731.21,2143.75 L1722.14,2138.65 L1712.64,2133.83 L1702.73,2129.3 L1692.43,2125.07 L1681.75,2121.14 L1675.58,2119.08 L1670.72,2117.52 L1659.35,2114.23 L1647.66,2111.27 L1635.67,2108.65 L1623.4,2106.38 L1610.85,2104.47 L1598.06,2102.93 L1585.04,2101.76 L1571.8,2100.99 L1558.37,2100.6 L1544.76,2100.63 L1531,2101.06 L1524.06,2101.46 L1513.05,2102.2 L1491.85,2104.14 L1471.66,2106.57 L1452.49,2109.41 L1434.38,2112.6 L1417.36,2116.04 L1393.78,2121.52 L1366.58,2129.06 L1344.22,2136.27 L1319.54,2145.35 L1311.13,2148.71 L1189.43,1833.98 L1192.51,1832.73 L1198.22,1829.8 L1203.4,1826.39 L1208.09,1822.52 L1212.29,1818.21 L1216.04,1813.5 L1219.35,1808.4 L1222.25,1802.93 L1224.76,1797.14 L1226.89,1791.04 L1229.49,1781.38 L1231.8,1767.62 L1233.01,1753.06 L1233.31,1737.92 L1232.87,1722.39 L1231.23,1698.79 L1227.97,1667.8 L1224.86,1638.87 L1223.89,1625.85 L1880.27,1585.26 L1920.52,2235.98 M1925.22,1534.39 L1971.39,2280.93 L1759.32,2294.04 L1755.54,2244.53 L1754.9,2240.26 L1753.96,2236.34 L1752.66,2232.38 L1750.95,2228.34 L1748.82,2224.21 L1746.22,2219.98 L1743.13,2215.67 L1739.53,2211.28 L1735.39,2206.85 L1730.72,2202.4 L1725.52,2197.97 L1719.79,2193.59 L1713.53,2189.28 L1706.77,2185.07 L1699.52,2181 L1691.8,2177.08 L1683.62,2173.34 L1675.01,2169.8 L1665.87,2166.44 L1660.66,2164.7 L1656.72,2163.44 L1646.78,2160.56 L1636.65,2157.99 L1626.18,2155.71 L1615.42,2153.72 L1604.37,2152.03 L1593.05,2150.67 L1581.49,2149.64 L1569.71,2148.95 L1557.73,2148.61 L1545.57,2148.63 L1533.12,2149.02 L1527.02,2149.37 L1516.84,2150.05 L1496.91,2151.87 L1478.05,2154.14 L1460.17,2156.8 L1443.3,2159.76 L1427.56,2162.95 L1405.64,2168.05 L1380.36,2175.05 L1359.88,2181.66 L1336.73,2190.17 L1283.86,2211.27 L1136.3,1829.68 L1182.49,1810.89 L1186.11,1809.04 L1189.12,1807.06 L1191.81,1804.83 L1194.26,1802.32 L1196.54,1799.46 L1198.65,1796.21 L1200.6,1792.53 L1202.39,1788.4 L1203.95,1783.95 L1206.01,1776.27 L1207.96,1764.63 L1209.03,1751.82 L1209.31,1738.03 L1208.89,1723.57 L1207.32,1700.88 L1204.1,1670.34 L1200.95,1641.04 L1196.37,1579.46 L1925.22,1534.39 M1657.7,2163.72 L1665.3,2140.95 M1663.08,2165.51 L1670.67,2142.74"/>
</g>

<g fill="none" stroke="#000000" stroke-opacity="1" stroke-width="1.51181" stroke-linecap="round" stroke-linejoin="round" transform="matrix(1,0,0,1,0,0)"
font-family="Arial" font-size="10.6667" font-weight="400" font-style="normal" 
>
</g>

<g fill="none" stroke="#000000" stroke-opacity="1" stroke-width="1.51181" stroke-linecap="round" stroke-linejoin="round" transform="matrix(1,0,0,1,0,0)"
font-family="Arial" font-size="10.6667" font-weight="400" font-style="normal" 
>
</g>

<g fill="#000000" fill-opacity="1" stroke="#000000" stroke-opacity="1" stroke-width="1.51181" stroke-linecap="round" stroke-linejoin="round" transform="matrix(1,0,0,1,0,0)"
font-family="Arial" font-size="10.6667" font-weight="400" font-style="normal" 
>
<path vector-effect="none" fill-rule="evenodd" d="M1402.03,2001.25 L1419.36,1993.7 L1420.15,2006.61 L1402.03,2001.25 L1779.26,1977.92 L1761.94,1985.47 L1761.14,1972.57 L1779.26,1977.92"/>
</g>

<g fill="none" stroke="#000000" stroke-opacity="1" stroke-width="1.51181" stroke-linecap="round" stroke-linejoin="round" transform="matrix(1,0,0,1,0,0)"
font-family="Arial" font-size="10.6667" font-weight="400" font-style="normal" 
>
</g>

<g fill="none" stroke="#000000" stroke-opacity="1" stroke-width="1.51181" stroke-linecap="round" stroke-linejoin="round" transform="matrix(1,0,0,1,0,0)"
font-family="Arial" font-size="10.6667" font-weight="400" font-style="normal" 
>
</g>

<g fill="none" stroke="#000000" stroke-opacity="1" stroke-width="1.51181" stroke-linecap="round" stroke-linejoin="round" transform="matrix(1,0,0,1,0,0)"
font-family="Arial" font-size="10.6667" font-weight="400" font-style="normal" 
>
</g>

<g fill="none" stroke="#000000" stroke-opacity="1" stroke-width="1" stroke-linecap="square" stroke-linejoin="bevel" transform="matrix(1,0,0,1,0,0)"
font-family="Arial" font-size="10.6667" font-weight="400" font-style="normal" 
>
<path vector-effect="none" fill-rule="nonzero" d="M543.52,1489.88 L332.197,1478.06 L404.99,176.159 L616.314,187.975 L543.52,1489.88 M664.239,190.654 L588.766,1540.48 L281.592,1523.31 L357.065,173.479 L664.239,190.654"/>
</g>

<g fill="none" stroke="#000000" stroke-opacity="1" stroke-width="1.51181" stroke-linecap="round" stroke-linejoin="round" transform="matrix(1,0,0,1,0,0)"
font-family="Arial" font-size="10.6667" font-weight="400" font-style="normal" 
>
</g>

<g fill="none" stroke="#000000" stroke-opacity="1" stroke-width="1.51181" stroke-linecap="round" stroke-linejoin="round" transform="matrix(1,0,0,1,0,0)"
font-family="Arial" font-size="10.6667" font-weight="400" font-style="normal" 
>
</g>

<g fill="#000000" fill-opacity="1" stroke="#000000" stroke-opacity="1" stroke-width="1.51181" stroke-linecap="round" stroke-linejoin="round" transform="matrix(1,0,0,1,0,0)"
font-family="Arial" font-size="10.6667" font-weight="400" font-style="normal" 
>
<path vector-effect="none" fill-rule="evenodd" d="M469.95,892.947 L464.488,874.856 L477.395,875.578 L469.95,892.947 L501.6,326.902 L507.062,344.993 L494.155,344.272 L501.6,326.902"/>
</g>

<g fill="none" stroke="#000000" stroke-opacity="1" stroke-width="1.51181" stroke-linecap="round" stroke-linejoin="round" transform="matrix(1,0,0,1,0,0)"
font-family="Arial" font-size="10.6667" font-weight="400" font-style="normal" 
>
</g>

<g fill="none" stroke="#000000" stroke-opacity="1" stroke-width="1.51181" stroke-linecap="round" stroke-linejoin="round" transform="matrix(1,0,0,1,0,0)"
font-family="Arial" font-size="10.6667" font-weight="400" font-style="normal" 
>
</g>

<g fill="none" stroke="#000000" stroke-opacity="1" stroke-width="1.51181" stroke-linecap="round" stroke-linejoin="round" transform="matrix(1,0,0,1,0,0)"
font-family="Arial" font-size="10.6667" font-weight="400" font-style="normal" 
>
</g>

<g fill="none" stroke="#000000" stroke-opacity="1" stroke-width="1" stroke-linecap="square" stroke-linejoin="bevel" transform="matrix(1,0,0,1,0,0)"
font-family="Arial" font-size="10.6667" font-weight="400" font-style="normal" 
>
<path vector-effect="none" fill-rule="nonzero" d="M2394.13,1800.56 L2284.77,1758.51 L2286.39,1754.13 L2289.05,1745.26 L2291.03,1736.25 L2292.33,1727.12 L2292.97,1717.9 L2292.96,1708.6 L2292.31,1699.24 L2291.04,1689.83 L2289.16,1680.39 L2286.67,1670.94 L2283.6,1661.5 L2279.94,1652.08 L2275.73,1642.7 L2270.95,1633.38 L2265.64,1624.13 L2259.8,1614.97 L2253.44,1605.92 L2246.57,1596.99 L2239.22,1588.21 L2236.56,1585.23 L2231.38,1579.59 L2223.07,1571.14 L2214.3,1562.88 L2205.09,1554.84 L2195.45,1547.02 L2185.38,1539.45 L2174.9,1532.14 L2164.03,1525.11 L2152.77,1518.37 L2141.14,1511.95 L2129.15,1505.86 L2116.8,1500.11 L2104.12,1494.73 L2097.65,1492.2 L2088.06,1488.6 L2069.46,1482.47 L2051.57,1477.5 L2034.41,1473.59 L2018,1470.62 L2002.38,1468.49 L1987.57,1467.08 L1973.59,1466.28 L1954.14,1465.94 L1931.5,1466.67 L1912.68,1467.83 L1897.86,1468.54 L1892.19,1468.38 L1896.4,1130.96 L1907,1131.07 L1928.13,1130.91 L1949.07,1130.23 L1969.74,1128.91 L1990.02,1126.84 L2009.81,1123.91 L2029.01,1120 L2047.51,1115.01 L2060.84,1110.44 L2069.48,1107.02 L2077.88,1103.27 L2086.04,1099.17 L2093.94,1094.71 L2101.57,1089.88 L2108.92,1084.65 L2115.97,1079.02 L2122.71,1072.97 L2129.13,1066.49 L2135.21,1059.56 L2140.95,1052.17 L2146.33,1044.31 L2151.33,1035.96 L2155.95,1027.11 L2160.16,1017.75 L2162.1,1012.84 L2628.12,1192.03 L2394.13,1800.56 M2672.92,1209.25 L2421.71,1862.59 L2223.31,1786.31 L2240.85,1738.9 L2242.55,1733.21 L2243.76,1727.71 L2244.56,1722.06 L2244.97,1716.26 L2244.96,1710.28 L2244.54,1704.11 L2243.68,1697.75 L2242.37,1691.21 L2240.6,1684.49 L2238.36,1677.62 L2235.65,1670.61 L2232.44,1663.49 L2228.75,1656.28 L2224.57,1649 L2219.91,1641.69 L2214.76,1634.36 L2209.14,1627.05 L2202.92,1619.63 L2200.97,1617.45 L2196.57,1612.64 L2189.49,1605.45 L2182.05,1598.45 L2174.18,1591.58 L2165.9,1584.86 L2157.21,1578.33 L2148.13,1571.99 L2138.67,1565.87 L2128.84,1559.99 L2118.66,1554.37 L2108.14,1549.03 L2097.29,1543.98 L2086,1539.18 L2080.48,1537.02 L2072.11,1533.88 L2055.52,1528.41 L2039.81,1524.05 L2024.8,1520.63 L2010.48,1518.04 L1996.86,1516.18 L1983.92,1514.95 L1971.8,1514.26 L1954.49,1513.96 L1933.76,1514.62 L1915.31,1515.76 L1898.29,1516.58 L1843.61,1514.95 L1848.7,1106.5 L1907.03,1107.07 L1927.65,1106.92 L1947.92,1106.26 L1967.75,1104.99 L1987.04,1103.02 L2005.65,1100.26 L2023.48,1096.63 L2040.49,1092.04 L2052.54,1087.92 L2060.17,1084.9 L2067.6,1081.58 L2074.75,1077.99 L2081.61,1074.12 L2088.18,1069.95 L2094.46,1065.48 L2100.45,1060.69 L2106.15,1055.58 L2111.57,1050.11 L2116.7,1044.27 L2121.55,1038.02 L2126.11,1031.36 L2130.38,1024.23 L2134.35,1016.63 L2138.05,1008.41 L2139.7,1004.23 L2672.92,1209.25 M2200.77,1617.23 L2218.66,1601.23"/>
</g>

<g fill="none" stroke="#000000" stroke-opacity="1" stroke-width="1.51181" stroke-linecap="round" stroke-linejoin="round" transform="matrix(1,0,0,1,0,0)"
font-family="Arial" font-size="10.6667" font-weight="400" font-style="normal" 
>
</g>

<g fill="none" stroke="#000000" stroke-opacity="1" stroke-width="1.51181" stroke-linecap="round" stroke-linejoin="round" transform="matrix(1,0,0,1,0,0)"
font-family="Arial" font-size="10.6667" font-weight="400" font-style="normal" 
>
</g>

<g fill="#000000" fill-opacity="1" stroke="#000000" stroke-opacity="1" stroke-width="1.51181" stroke-linecap="round" stroke-linejoin="round" transform="matrix(1,0,0,1,0,0)"
font-family="Arial" font-size="10.6667" font-weight="400" font-style="normal" 
>
<path vector-effect="none" fill-rule="evenodd" d="M2032.33,1339.98 L2051.23,1340.32 L2046.59,1352.38 L2032.33,1339.98 L2385.11,1475.62 L2366.21,1475.28 L2370.85,1463.21 L2385.11,1475.62"/>
</g>

<g fill="none" stroke="#000000" stroke-opacity="1" stroke-width="1.51181" stroke-linecap="round" stroke-linejoin="round" transform="matrix(1,0,0,1,0,0)"
font-family="Arial" font-size="10.6667" font-weight="400" font-style="normal" 
>
</g>

<g fill="none" stroke="#000000" stroke-opacity="1" stroke-width="1.51181" stroke-linecap="round" stroke-linejoin="round" transform="matrix(1,0,0,1,0,0)"
font-family="Arial" font-size="10.6667" font-weight="400" font-style="normal" 
>
</g>

<g fill="none" stroke="#000000" stroke-opacity="1" stroke-width="1.51181" stroke-linecap="round" stroke-linejoin="round" transform="matrix(1,0,0,1,0,0)"
font-family="Arial" font-size="10.6667" font-weight="400" font-style="normal" 
>
</g>

<g fill="none" stroke="#000000" stroke-opacity="1" stroke-width="1" stroke-linecap="square" stroke-linejoin="bevel" transform="matrix(1,0,0,1,0,0)"
font-family="Arial" font-size="10.6667" font-weight="400" font-style="normal" 
>
<path vector-effect="none" fill-rule="nonzero" d="M270.861,2337.98 L270.391,2241.98 L269.921,2145.98 L267.198,1590.02 L270.241,1589.98 L292.237,1591.21 L314.033,1593.66 L333.707,1596.89 L347.96,1599.78 L363.02,1603.38 L378.733,1607.77 L394.944,1613.03 L411.498,1619.23 L428.239,1626.45 L445.012,1634.78 L453.354,1639.43 L459.205,1642.86 L471.202,1650.75 L483.422,1659.68 L495.719,1669.42 L507.946,1679.74 L519.958,1690.43 L537.326,1706.69 L558.304,1727.58 L575.791,1745.93 L593.72,1765.64 L596.248,1768.57 L602.572,1773.52 L637.186,1799.31 L656.298,1812.61 L667.988,1820.17 L673.102,1823.17 L680.821,1827.52 L695.125,1835.07 L708.148,1841.35 L719.977,1846.44 L730.701,1850.48 L740.408,1853.57 L749.186,1855.82 L757.122,1857.34 L760.772,1857.84 L724.775,2143.75 L712.68,2239.81 L725.715,2335.75 L270.861,2337.98 M780.641,2383.48 L271.096,2385.98 L270.391,2241.98 L269.921,2145.98 L266.963,1542.02 L271.266,1541.96 L296.259,1543.36 L320.611,1546.09 L342.373,1549.67 L358.311,1552.9 L375.061,1556.91 L392.598,1561.81 L410.774,1567.7 L429.438,1574.69 L448.433,1582.89 L467.382,1592.29 L477.189,1597.76 L484.558,1602.08 L498.567,1611.3 L512.489,1621.47 L526.109,1632.26 L539.39,1643.47 L552.318,1654.98 L570.67,1672.15 L592.618,1694.01 L610.922,1713.21 L629.528,1733.66 L631.713,1735.37 L665.243,1760.36 L683.039,1772.74 L693.178,1779.29 L697.046,1781.57 L703.821,1785.39 L716.751,1792.21 L728.068,1797.66 L737.944,1801.92 L746.445,1805.12 L753.653,1807.41 L759.672,1808.96 L764.896,1809.96 L814.329,1816.71 L772.399,2149.75 L761.089,2239.58 L780.641,2383.48 M629.528,1733.66 L612.967,1751.03"/>
</g>

<g fill="none" stroke="#000000" stroke-opacity="1" stroke-width="1.51181" stroke-linecap="round" stroke-linejoin="round" transform="matrix(1,0,0,1,0,0)"
font-family="Arial" font-size="10.6667" font-weight="400" font-style="normal" 
>
</g>

<g fill="none" stroke="#000000" stroke-opacity="1" stroke-width="1.51181" stroke-linecap="round" stroke-linejoin="round" transform="matrix(1,0,0,1,0,0)"
font-family="Arial" font-size="10.6667" font-weight="400" font-style="normal" 
>
</g>

<g fill="#000000" fill-opacity="1" stroke="#000000" stroke-opacity="1" stroke-width="1.51181" stroke-linecap="round" stroke-linejoin="round" transform="matrix(1,0,0,1,0,0)"
font-family="Arial" font-size="10.6667" font-weight="400" font-style="normal" 
>
<path vector-effect="none" fill-rule="evenodd" d="M434.206,1784.59 L440.756,1802.32 L427.829,1802.38 L434.206,1784.59 L436.056,2162.54 L429.506,2144.81 L442.433,2144.75 L436.056,2162.54"/>
</g>

<g fill="none" stroke="#000000" stroke-opacity="1" stroke-width="1.51181" stroke-linecap="round" stroke-linejoin="round" transform="matrix(1,0,0,1,0,0)"
font-family="Arial" font-size="10.6667" font-weight="400" font-style="normal" 
>
</g>

<g fill="none" stroke="#000000" stroke-opacity="1" stroke-width="1.51181" stroke-linecap="round" stroke-linejoin="round" transform="matrix(1,0,0,1,0,0)"
font-family="Arial" font-size="10.6667" font-weight="400" font-style="normal" 
>
</g>

<g fill="none" stroke="#000000" stroke-opacity="1" stroke-width="1.51181" stroke-linecap="round" stroke-linejoin="round" transform="matrix(1,0,0,1,0,0)"
font-family="Arial" font-size="10.6667" font-weight="400" font-style="normal" 
>
</g>
</g>
</svg>
