<?xml version="1.0" encoding="UTF-8" standalone="no"?>
<svg width="840.846mm" height="2298.17mm"
 viewBox="0 0 3178 8686"
 xmlns="http://www.w3.org/2000/svg" xmlns:xlink="http://www.w3.org/1999/xlink"  version="1.2" baseProfile="tiny">
<title>Pattern</title>
<defs>
</defs>
<g fill="none" stroke="black" stroke-width="1" fill-rule="evenodd" stroke-linecap="square" stroke-linejoin="bevel" >

<g fill="none" stroke="#000000" stroke-opacity="1" stroke-width="1.51181" stroke-linecap="round" stroke-linejoin="round" transform="matrix(1,0,0,1,0,0)"
font-family="Arial" font-size="10.6667" font-weight="400" font-style="normal" 
>
</g>

<g fill="none" stroke="#000000" stroke-opacity="1" stroke-width="1.51181" stroke-linecap="round" stroke-linejoin="round" transform="matrix(1,0,0,1,0,0)"
font-family="Arial" font-size="10.6667" font-weight="400" font-style="normal" 
>
</g>

<g fill="none" stroke="#000000" stroke-opacity="1" stroke-width="1.51181" stroke-linecap="round" stroke-linejoin="round" transform="matrix(1,0,0,1,0,0)"
font-family="Arial" font-size="10.6667" font-weight="400" font-style="normal" 
>
</g>

<g fill="none" stroke="#000000" stroke-opacity="1" stroke-width="1" stroke-linecap="square" stroke-linejoin="bevel" transform="matrix(1,0,0,1,0,0)"
font-family="Arial" font-size="10.6667" font-weight="400" font-style="normal" 
>
<path vector-effect="none" fill-rule="nonzero" d="M2490.37,0 L2483.77,188.976 L2490.37,377.953 L2540.47,1812.66 L2542.3,1845.27 L2547.06,1908.95 L2553.07,1970.77 L2560.25,2030.78 L2568.51,2089 L2577.77,2145.44 L2587.94,2200.13 L2598.94,2253.11 L2610.7,2304.39 L2623.12,2354 L2636.12,2401.96 L2649.62,2448.29 L2663.54,2493.03 L2677.79,2536.19 L2692.29,2577.81 L2706.96,2617.9 L2721.72,2656.49 L2736.47,2693.6 L2758.45,2746.74 L2786.97,2812.41 L2814,2872.62 L2838.88,2927.56 L2860.93,2977.44 L2875.1,3011.49 L2883.39,3032.82 L2890.6,3052.98 L2896.65,3072.02 L2899.16,3081.07 L2877.88,3086.8 L2836.65,3098.21 L2797.1,3109.68 L2759.3,3121.33 L2723.36,3133.27 L2689.34,3145.64 L2657.35,3158.54 L2634.8,3168.67 L2620.4,3175.64 L2606.55,3182.81 L2593.27,3190.2 L2580.56,3197.82 L2568.44,3205.68 L2556.92,3213.81 L2546,3222.22 L2535.71,3230.92 L2526.04,3239.92 L2517.01,3249.25 L2508.63,3258.92 L2500.91,3268.93 L2493.87,3279.32 L2487.51,3290.08 L2481.84,3301.24 L2476.88,3312.82 L2472.64,3324.82 L2470.82,3331.01 L2196.77,4300.16 L2182.82,4296.25 L2155.26,4288.96 L2128.15,4282.25 L2101.49,4276.11 L2075.33,4270.51 L2049.67,4265.43 L2015.66,4259.31 L2012.12,4258.68 L1964.14,4251.35 L1918.6,4245.67 L1875.7,4241.45 L1835.62,4238.51 L1798.55,4236.64 L1764.66,4235.67 L1734.14,4235.41 L1707.17,4235.66 L1673.3,4236.58 L1642.91,4237.91 L1634.96,4238.07 L1635.33,3951.92 L1554.85,4226.52 L1546.37,4223.85 L1521.68,4215.02 L1487.89,4203.27 L1456.43,4193.36 L1432.9,4186.6 L1407.21,4179.9 L1379.38,4173.42 L1349.44,4167.34 L1317.41,4161.84 L1283.32,4157.1 L1247.19,4153.27 L1209.04,4150.55 L1168.91,4149.1 L1148.02,4148.98 L1148.77,4129.82 L1154.84,4001.68 L1161.37,3883.12 L1167.69,3783.1 L1172.49,3714.36 L1177.79,3645.47 L1183.59,3577.92 L1189.88,3513.2 L1196.64,3452.82 L1202.04,3411.48 L1205.78,3385.94 L1209.64,3362.32 L1213.6,3340.81 L1215.64,3331.01 L1218.87,3316.32 L1227.87,3279.47 L1246.13,3208.7 L1269.94,3116.23 L1287.82,3044.68 L1307.05,2964.77 L1327.29,2876.63 L1348.18,2780.38 L1364.08,2702.7 L1374.7,2648.62 L1385.29,2592.58 L1395.8,2534.6 L1406.2,2474.7 L1416.44,2412.89 L1426.47,2349.19 L1436.26,2283.61 L1445.76,2216.17 L1454.92,2146.89 L1463.71,2075.78 L1472.07,2002.86 L1479.98,1928.15 L1487.37,1851.65 L1490.84,1812.66 L1540.94,377.953 L1547.54,188.976 L1540.94,0 L2015.66,0 L2490.37,0 M2538.4,0 L2531.8,188.976 L2538.34,376.278 L2588.42,1810.48 L2590.2,1842.14 L2594.89,1904.83 L2600.8,1965.6 L2607.85,2024.56 L2615.96,2081.74 L2625.05,2137.16 L2635.04,2190.86 L2645.84,2242.87 L2657.38,2293.2 L2669.57,2341.89 L2682.33,2388.96 L2695.58,2434.45 L2709.25,2478.38 L2723.25,2520.77 L2737.5,2561.66 L2751.92,2601.08 L2766.44,2639.05 L2780.95,2675.56 L2802.65,2728 L2830.88,2793.02 L2857.76,2852.89 L2882.69,2907.96 L2905.05,2958.51 L2919.63,2993.58 L2928.37,3016.04 L2936.09,3037.63 L2942.67,3058.33 L2958.33,3114.86 L2890.52,3133.1 L2849.74,3144.39 L2810.85,3155.67 L2773.94,3167.04 L2739.13,3178.61 L2706.53,3190.47 L2676.17,3202.71 L2655.09,3212.18 L2641.9,3218.56 L2629.26,3225.1 L2617.29,3231.77 L2605.98,3238.54 L2595.35,3245.44 L2585.41,3252.46 L2576.15,3259.59 L2567.57,3266.84 L2559.66,3274.2 L2552.41,3281.69 L2545.81,3289.31 L2539.82,3297.08 L2534.44,3305.02 L2529.62,3313.18 L2525.35,3321.58 L2521.62,3330.3 L2518.32,3339.61 L2517,3344.09 L2372.1,4399.04 L2170.21,4342.57 L2143.36,4335.46 L2117,4328.94 L2091.09,4322.97 L2065.65,4317.53 L2040.76,4312.6 L2007.16,4306.56 L2004.25,4306.03 L1957.54,4298.9 L1913.28,4293.38 L1871.59,4289.28 L1832.66,4286.42 L1796.65,4284.61 L1763.76,4283.67 L1734.15,4283.41 L1708.05,4283.65 L1674.99,4284.55 L1644.46,4285.88 L1586.9,4287.09 L1531.07,4269.35 L1505.71,4260.29 L1472.8,4248.84 L1442.59,4239.33 L1420.21,4232.9 L1395.71,4226.5 L1369.17,4220.32 L1340.61,4214.53 L1310.04,4209.28 L1277.49,4204.75 L1242.96,4201.09 L1206.47,4198.49 L1167.9,4197.1 L1098.11,4196.67 L1100.82,4127.74 L1106.9,3999.23 L1113.45,3880.28 L1119.79,3779.91 L1124.62,3710.85 L1129.95,3641.58 L1135.79,3573.55 L1142.14,3508.21 L1148.99,3447.03 L1154.5,3404.9 L1158.34,3378.6 L1162.34,3354.1 L1166.5,3331.58 L1168.69,3320.98 L1172.11,3305.46 L1181.32,3267.78 L1199.65,3196.72 L1223.41,3104.43 L1241.2,3033.25 L1260.32,2953.78 L1280.44,2866.16 L1301.22,2770.47 L1317.02,2693.27 L1327.57,2639.54 L1338.09,2583.84 L1348.54,2526.21 L1358.88,2466.67 L1369.05,2405.23 L1379.03,2341.91 L1388.76,2276.72 L1398.2,2209.68 L1407.31,2140.8 L1416.04,2070.11 L1424.36,1997.6 L1432.22,1923.31 L1439.58,1847.21 L1442.92,1809.69 L1492.97,376.278 L1499.51,188.976 L1492.91,0 L2015.66,0 L2538.4,0 M2531.8,188.976 L2507.8,188.976 M2538.34,376.278 L2514.36,377.115 M2588.42,1810.48 L2564.44,1811.57 M1442.92,1809.69 L1466.87,1811.18 M1492.97,376.278 L1516.95,377.115 M1499.51,188.976 L1523.51,188.976"/>
</g>

<g fill="none" stroke="#000000" stroke-opacity="1" stroke-width="1.51181" stroke-linecap="round" stroke-linejoin="round" transform="matrix(1,0,0,1,0,0)"
font-family="Arial" font-size="10.6667" font-weight="400" font-style="normal" 
>
</g>

<g fill="none" stroke="#000000" stroke-opacity="1" stroke-width="1.51181" stroke-linecap="round" stroke-linejoin="round" transform="matrix(1,0,0,1,0,0)"
font-family="Arial" font-size="10.6667" font-weight="400" font-style="normal" 
>
</g>

<g fill="none" stroke="#000000" stroke-opacity="1" stroke-width="1" stroke-linecap="square" stroke-linejoin="bevel" transform="matrix(1,0,0,1,0,0)"
font-family="Arial" font-size="10.6667" font-weight="400" font-style="normal" 
>
<path vector-effect="none" fill-rule="nonzero" d="M1547.54,188.976 L2015.66,188.976 L2483.77,188.976"/>
</g>

<g fill="none" stroke="#000000" stroke-opacity="1" stroke-width="1.51181" stroke-linecap="round" stroke-linejoin="round" transform="matrix(1,0,0,1,0,0)"
font-family="Arial" font-size="10.6667" font-weight="400" font-style="normal" 
>
</g>

<g fill="none" stroke="#000000" stroke-opacity="1" stroke-width="1.51181" stroke-linecap="round" stroke-linejoin="round" transform="matrix(1,0,0,1,0,0)"
font-family="Arial" font-size="10.6667" font-weight="400" font-style="normal" 
>
</g>

<g fill="none" stroke="#000000" stroke-opacity="1" stroke-width="1" stroke-linecap="square" stroke-linejoin="bevel" transform="matrix(1,0,0,1,0,0)"
font-family="Arial" font-size="10.6667" font-weight="400" font-style="normal" 
>
<path vector-effect="none" fill-rule="nonzero" d="M1540.94,377.953 L2015.66,377.953 L2490.37,377.953"/>
</g>

<g fill="none" stroke="#000000" stroke-opacity="1" stroke-width="1.51181" stroke-linecap="round" stroke-linejoin="round" transform="matrix(1,0,0,1,0,0)"
font-family="Arial" font-size="10.6667" font-weight="400" font-style="normal" 
>
</g>

<g fill="none" stroke="#000000" stroke-opacity="1" stroke-width="1.51181" stroke-linecap="round" stroke-linejoin="round" transform="matrix(1,0,0,1,0,0)"
font-family="Arial" font-size="10.6667" font-weight="400" font-style="normal" 
>
</g>

<g fill="none" stroke="#000000" stroke-opacity="1" stroke-width="1" stroke-linecap="square" stroke-linejoin="bevel" transform="matrix(1,0,0,1,0,0)"
font-family="Arial" font-size="10.6667" font-weight="400" font-style="normal" 
>
<path vector-effect="none" fill-rule="nonzero" d="M2015.66,0 L2015.66,1812.66 L2015.66,4259.31"/>
</g>

<g fill="none" stroke="#000000" stroke-opacity="1" stroke-width="1.51181" stroke-linecap="round" stroke-linejoin="round" transform="matrix(1,0,0,1,0,0)"
font-family="Arial" font-size="10.6667" font-weight="400" font-style="normal" 
>
</g>

<g fill="none" stroke="#000000" stroke-opacity="1" stroke-width="1.51181" stroke-linecap="round" stroke-linejoin="round" transform="matrix(1,0,0,1,0,0)"
font-family="Arial" font-size="10.6667" font-weight="400" font-style="normal" 
>
</g>

<g fill="none" stroke="#000000" stroke-opacity="1" stroke-width="1" stroke-linecap="square" stroke-linejoin="bevel" transform="matrix(1,0,0,1,0,0)"
font-family="Arial" font-size="10.6667" font-weight="400" font-style="normal" 
>
<path vector-effect="none" fill-rule="nonzero" d="M1373.47,3914.17 L1635.33,3951.92 L1897.19,3989.67"/>
</g>

<g fill="none" stroke="#000000" stroke-opacity="1" stroke-width="1.51181" stroke-linecap="round" stroke-linejoin="round" transform="matrix(1,0,0,1,0,0)"
font-family="Arial" font-size="10.6667" font-weight="400" font-style="normal" 
>
</g>

<g fill="none" stroke="#000000" stroke-opacity="1" stroke-width="1.51181" stroke-linecap="round" stroke-linejoin="round" transform="matrix(1,0,0,1,0,0)"
font-family="Arial" font-size="10.6667" font-weight="400" font-style="normal" 
>
</g>

<g fill="#000000" fill-opacity="1" stroke="#000000" stroke-opacity="1" stroke-width="1.51181" stroke-linecap="round" stroke-linejoin="round" transform="matrix(1,0,0,1,0,0)"
font-family="Arial" font-size="10.6667" font-weight="400" font-style="normal" 
>
<path vector-effect="none" fill-rule="evenodd" d="M2195.42,1125.49 L2201.89,1143.24 L2188.96,1143.24 L2195.42,1125.49 L2195.42,3015.25 L2188.96,2997.49 L2201.89,2997.49 L2195.42,3015.25"/>
</g>

<g fill="none" stroke="#000000" stroke-opacity="1" stroke-width="1.51181" stroke-linecap="round" stroke-linejoin="round" transform="matrix(1,0,0,1,0,0)"
font-family="Arial" font-size="10.6667" font-weight="400" font-style="normal" 
>
</g>

<g fill="none" stroke="#000000" stroke-opacity="1" stroke-width="1.51181" stroke-linecap="round" stroke-linejoin="round" transform="matrix(1,0,0,1,0,0)"
font-family="Arial" font-size="10.6667" font-weight="400" font-style="normal" 
>
</g>

<g fill="none" stroke="#000000" stroke-opacity="1" stroke-width="1.51181" stroke-linecap="round" stroke-linejoin="round" transform="matrix(1,0,0,1,0,0)"
font-family="Arial" font-size="10.6667" font-weight="400" font-style="normal" 
>
</g>

<g fill="none" stroke="#000000" stroke-opacity="1" stroke-width="1" stroke-linecap="square" stroke-linejoin="bevel" transform="matrix(1,0,0,1,0,0)"
font-family="Arial" font-size="10.6667" font-weight="400" font-style="normal" 
>
<path vector-effect="none" fill-rule="nonzero" d="M802.258,1805.34 L796.442,1753.6 L786.116,1654.53 L777.274,1560.7 L769.827,1472.1 L763.684,1388.67 L758.757,1310.38 L754.955,1237.21 L752.189,1169.11 L750.538,1111.96 L750.369,1106.05 L749.407,1047.99 L749.211,994.903 L749.367,979.321 L795.643,979.321 L795.711,968.923 L796.524,947.994 L798.146,926.953 L800.575,905.854 L803.808,884.747 L807.843,863.687 L812.675,842.724 L818.304,821.913 L824.725,801.304 L831.936,780.951 L839.934,760.906 L848.716,741.222 L858.28,721.95 L868.623,703.144 L879.741,684.855 L891.633,667.137 L904.294,650.042 L917.723,633.621 L931.917,617.928 L946.872,603.016 L962.586,588.935 L979.057,575.74 L996.28,563.482 L1014.25,552.214 L1032.98,541.988 L1052.44,532.856 L1072.65,524.872 L1093.6,518.087 L1115.28,512.555 L1137.7,508.327 L1160.85,505.456 L1184.72,503.994 L1196.96,503.87 L1423.73,503.87 L1423.73,1751.87 L1389.11,1753.41 L1319.78,1757.05 L1247.01,1761.57 L1171.19,1767.04 L1092.7,1773.53 L1011.9,1781.12 L952.542,1787.33 L929.172,1789.85 L844.898,1799.82 L802.258,1805.34 M760.01,1859.2 L748.721,1758.77 L738.35,1659.27 L729.463,1564.96 L721.974,1475.87 L715.795,1391.94 L710.835,1313.14 L707.005,1239.43 L704.217,1170.78 L702.558,1113.34 L702.381,1107.13 L701.408,1048.48 L701.21,994.752 L701.844,931.321 L747.955,931.321 L747.717,967.835 L748.595,945.217 L750.357,922.362 L752.993,899.473 L756.497,876.595 L760.868,853.776 L766.105,831.063 L772.206,808.503 L779.172,786.144 L787.005,764.035 L795.708,742.226 L805.282,720.765 L815.734,699.706 L827.066,679.1 L839.286,659 L852.398,639.464 L866.408,620.547 L881.323,602.309 L897.148,584.813 L913.886,568.122 L931.541,552.303 L950.111,537.425 L969.593,523.56 L989.979,510.779 L1011.26,499.156 L1033.41,488.764 L1056.42,479.674 L1080.26,471.954 L1104.89,465.669 L1130.29,460.878 L1156.42,457.637 L1183.01,456.009 L1196.72,455.87 L1423.73,455.87 L1423.73,1799.92 L1391.43,1801.35 L1322.52,1804.97 L1250.23,1809.46 L1174.9,1814.9 L1096.92,1821.35 L1016.64,1828.88 L957.622,1835.06 L934.572,1837.55 L850.797,1847.46 L760.01,1859.2"/>
</g>

<g fill="none" stroke="#000000" stroke-opacity="1" stroke-width="1.51181" stroke-linecap="round" stroke-linejoin="round" transform="matrix(1,0,0,1,0,0)"
font-family="Arial" font-size="10.6667" font-weight="400" font-style="normal" 
>
</g>

<g fill="none" stroke="#000000" stroke-opacity="1" stroke-width="1.51181" stroke-linecap="round" stroke-linejoin="round" transform="matrix(1,0,0,1,0,0)"
font-family="Arial" font-size="10.6667" font-weight="400" font-style="normal" 
>
</g>

<g fill="none" stroke="#000000" stroke-opacity="1" stroke-width="1" stroke-linecap="square" stroke-linejoin="bevel" transform="matrix(1,0,0,1,0,0)"
font-family="Arial" font-size="10.6667" font-weight="400" font-style="normal" 
>
<path vector-effect="none" fill-rule="nonzero" d="M750.538,1111.96 L952.542,1787.33"/>
</g>

<g fill="none" stroke="#000000" stroke-opacity="1" stroke-width="1.51181" stroke-linecap="round" stroke-linejoin="round" transform="matrix(1,0,0,1,0,0)"
font-family="Arial" font-size="10.6667" font-weight="400" font-style="normal" 
>
</g>

<g fill="none" stroke="#000000" stroke-opacity="1" stroke-width="1.51181" stroke-linecap="round" stroke-linejoin="round" transform="matrix(1,0,0,1,0,0)"
font-family="Arial" font-size="10.6667" font-weight="400" font-style="normal" 
>
</g>

<g fill="#000000" fill-opacity="1" stroke="#000000" stroke-opacity="1" stroke-width="1.51181" stroke-linecap="round" stroke-linejoin="round" transform="matrix(1,0,0,1,0,0)"
font-family="Arial" font-size="10.6667" font-weight="400" font-style="normal" 
>
<path vector-effect="none" fill-rule="evenodd" d="M1213.66,796.327 L1220.13,814.085 L1207.2,814.085 L1213.66,796.327 L1213.66,1552.23 L1207.2,1534.47 L1220.13,1534.47 L1213.66,1552.23"/>
</g>

<g fill="none" stroke="#000000" stroke-opacity="1" stroke-width="1.51181" stroke-linecap="round" stroke-linejoin="round" transform="matrix(1,0,0,1,0,0)"
font-family="Arial" font-size="10.6667" font-weight="400" font-style="normal" 
>
</g>

<g fill="none" stroke="#000000" stroke-opacity="1" stroke-width="1.51181" stroke-linecap="round" stroke-linejoin="round" transform="matrix(1,0,0,1,0,0)"
font-family="Arial" font-size="10.6667" font-weight="400" font-style="normal" 
>
</g>

<g fill="none" stroke="#000000" stroke-opacity="1" stroke-width="1.51181" stroke-linecap="round" stroke-linejoin="round" transform="matrix(1,0,0,1,0,0)"
font-family="Arial" font-size="10.6667" font-weight="400" font-style="normal" 
>
</g>

<g fill="none" stroke="#000000" stroke-opacity="1" stroke-width="1" stroke-linecap="square" stroke-linejoin="bevel" transform="matrix(1,0,0,1,0,0)"
font-family="Arial" font-size="10.6667" font-weight="400" font-style="normal" 
>
<path vector-effect="none" fill-rule="nonzero" d="M2775.99,113.533 L2943.99,113.533 L2943.99,2417.84 L2775.99,2417.84 L2775.99,113.533 M2727.99,65.533 L2991.99,65.533 L2991.99,2465.84 L2727.99,2465.84 L2727.99,65.533"/>
</g>

<g fill="none" stroke="#000000" stroke-opacity="1" stroke-width="1.51181" stroke-linecap="round" stroke-linejoin="round" transform="matrix(1,0,0,1,0,0)"
font-family="Arial" font-size="10.6667" font-weight="400" font-style="normal" 
>
</g>

<g fill="none" stroke="#000000" stroke-opacity="1" stroke-width="1.51181" stroke-linecap="round" stroke-linejoin="round" transform="matrix(1,0,0,1,0,0)"
font-family="Arial" font-size="10.6667" font-weight="400" font-style="normal" 
>
</g>

<g fill="#000000" fill-opacity="1" stroke="#000000" stroke-opacity="1" stroke-width="1.51181" stroke-linecap="round" stroke-linejoin="round" transform="matrix(1,0,0,1,0,0)"
font-family="Arial" font-size="10.6667" font-weight="400" font-style="normal" 
>
<path vector-effect="none" fill-rule="evenodd" d="M2848.94,471.519 L2855.4,489.277 L2842.47,489.277 L2848.94,471.519 L2848.94,2361.28 L2842.47,2343.53 L2855.4,2343.53 L2848.94,2361.28"/>
</g>

<g fill="none" stroke="#000000" stroke-opacity="1" stroke-width="1.51181" stroke-linecap="round" stroke-linejoin="round" transform="matrix(1,0,0,1,0,0)"
font-family="Arial" font-size="10.6667" font-weight="400" font-style="normal" 
>
</g>

<g fill="none" stroke="#000000" stroke-opacity="1" stroke-width="1.51181" stroke-linecap="round" stroke-linejoin="round" transform="matrix(1,0,0,1,0,0)"
font-family="Arial" font-size="10.6667" font-weight="400" font-style="normal" 
>
</g>

<g fill="none" stroke="#000000" stroke-opacity="1" stroke-width="1.51181" stroke-linecap="round" stroke-linejoin="round" transform="matrix(1,0,0,1,0,0)"
font-family="Arial" font-size="10.6667" font-weight="400" font-style="normal" 
>
</g>

<g fill="none" stroke="#000000" stroke-opacity="1" stroke-width="1" stroke-linecap="square" stroke-linejoin="bevel" transform="matrix(1,0,0,1,0,0)"
font-family="Arial" font-size="10.6667" font-weight="400" font-style="normal" 
>
<path vector-effect="none" fill-rule="nonzero" d="M1364.44,1925.26 L1362.8,1940.76 L1356.49,1993.47 L1348.85,2051.03 L1339.79,2113.46 L1329.2,2180.79 L1317,2253.04 L1303.09,2330.23 L1287.38,2412.4 L1269.78,2499.56 L1250.2,2591.74 L1228.53,2688.97 L1216.8,2739.69 L1175.08,2729.3 L1092.51,2709.7 L1011.34,2691.49 L931.952,2674.66 L854.724,2659.17 L847.716,2657.84 L1214.26,1907.85 L1364.44,1925.26 M1198.34,1906.01 L1412.12,1930.79 L1410.5,1946.13 L1404.12,1999.48 L1396.4,2057.64 L1387.25,2120.64 L1376.57,2188.51 L1364.28,2261.29 L1350.28,2339 L1334.48,2421.66 L1316.78,2509.3 L1297.1,2601.95 L1275.34,2699.6 L1252.56,2798.07 L1163.73,2775.94 L1081.71,2756.47 L1001.11,2738.39 L922.254,2721.67 L845.534,2706.28 L810.464,2699.63 L1198.34,1906.01"/>
</g>

<g fill="none" stroke="#000000" stroke-opacity="1" stroke-width="1.51181" stroke-linecap="round" stroke-linejoin="round" transform="matrix(1,0,0,1,0,0)"
font-family="Arial" font-size="10.6667" font-weight="400" font-style="normal" 
>
</g>

<g fill="none" stroke="#000000" stroke-opacity="1" stroke-width="1.51181" stroke-linecap="round" stroke-linejoin="round" transform="matrix(1,0,0,1,0,0)"
font-family="Arial" font-size="10.6667" font-weight="400" font-style="normal" 
>
</g>

<g fill="#000000" fill-opacity="1" stroke="#000000" stroke-opacity="1" stroke-width="1.51181" stroke-linecap="round" stroke-linejoin="round" transform="matrix(1,0,0,1,0,0)"
font-family="Arial" font-size="10.6667" font-weight="400" font-style="normal" 
>
<path vector-effect="none" fill-rule="evenodd" d="M1129.88,2675.96 L1125.5,2657.58 L1138.34,2659.07 L1129.88,2675.96 L1195.15,2112.81 L1199.52,2131.19 L1186.68,2129.7 L1195.15,2112.81"/>
</g>

<g fill="none" stroke="#000000" stroke-opacity="1" stroke-width="1.51181" stroke-linecap="round" stroke-linejoin="round" transform="matrix(1,0,0,1,0,0)"
font-family="Arial" font-size="10.6667" font-weight="400" font-style="normal" 
>
</g>

<g fill="none" stroke="#000000" stroke-opacity="1" stroke-width="1.51181" stroke-linecap="round" stroke-linejoin="round" transform="matrix(1,0,0,1,0,0)"
font-family="Arial" font-size="10.6667" font-weight="400" font-style="normal" 
>
</g>

<g fill="none" stroke="#000000" stroke-opacity="1" stroke-width="1.51181" stroke-linecap="round" stroke-linejoin="round" transform="matrix(1,0,0,1,0,0)"
font-family="Arial" font-size="10.6667" font-weight="400" font-style="normal" 
>
</g>

<g fill="none" stroke="#000000" stroke-opacity="1" stroke-width="1" stroke-linecap="square" stroke-linejoin="bevel" transform="matrix(1,0,0,1,0,0)"
font-family="Arial" font-size="10.6667" font-weight="400" font-style="normal" 
>
<path vector-effect="none" fill-rule="nonzero" d="M853.968,3610.47 L860.664,3497.28 L898.609,2855.88 L909.93,2856.5 L938.229,2857.5 L972.976,2858.15 L1013.79,2858.4 L1060.31,2858.17 L1066.72,2858.08 L1028.78,3499.48 L1028.54,3503 L1027.74,3509.88 L1026.58,3516.56 L1025.06,3523.03 L1022.2,3532.37 L1017.22,3544.06 L1011.08,3554.9 L1003.89,3564.86 L995.741,3573.93 L986.756,3582.1 L977.039,3589.34 L966.696,3595.65 L955.837,3601.01 L944.568,3605.4 L932.999,3608.81 L921.235,3611.21 L909.387,3612.6 L897.56,3612.96 L891.697,3612.7 L853.968,3610.47 M803.217,3655.55 L812.747,3494.45 L853.514,2805.36 L912.078,2808.55 L939.528,2809.51 L973.575,2810.16 L1013.82,2810.4 L1059.86,2810.17 L1164.3,2808.73 L1123.05,3505.92 L1117.35,3532.73 L1113.37,3543.59 L1108.69,3554.44 L1103.28,3565.21 L1094.57,3579.88 L1081.67,3597.28 L1067.17,3612.85 L1051.63,3626.23 L1035.36,3637.48 L1018.62,3646.7 L1001.62,3654.01 L984.064,3657.91 L967.146,3661.82 L950.338,3664.2 L933.726,3665.12 L917.389,3664.64 L901.406,3662.8 L885.918,3660.95 L889.612,3660.66 L803.217,3655.55 M812.747,3494.45 L836.706,3495.87"/>
</g>

<g fill="none" stroke="#000000" stroke-opacity="1" stroke-width="1.51181" stroke-linecap="round" stroke-linejoin="round" transform="matrix(1,0,0,1,0,0)"
font-family="Arial" font-size="10.6667" font-weight="400" font-style="normal" 
>
</g>

<g fill="none" stroke="#000000" stroke-opacity="1" stroke-width="1.51181" stroke-linecap="round" stroke-linejoin="round" transform="matrix(1,0,0,1,0,0)"
font-family="Arial" font-size="10.6667" font-weight="400" font-style="normal" 
>
</g>

<g fill="#000000" fill-opacity="1" stroke="#000000" stroke-opacity="1" stroke-width="1.51181" stroke-linecap="round" stroke-linejoin="round" transform="matrix(1,0,0,1,0,0)"
font-family="Arial" font-size="10.6667" font-weight="400" font-style="normal" 
>
<path vector-effect="none" fill-rule="evenodd" d="M985.589,3331.35 L979.126,3313.59 L992.053,3313.59 L985.589,3331.35 L985.589,2953.39 L992.053,2971.15 L979.126,2971.15 L985.589,2953.39"/>
</g>

<g fill="none" stroke="#000000" stroke-opacity="1" stroke-width="1.51181" stroke-linecap="round" stroke-linejoin="round" transform="matrix(1,0,0,1,0,0)"
font-family="Arial" font-size="10.6667" font-weight="400" font-style="normal" 
>
</g>

<g fill="none" stroke="#000000" stroke-opacity="1" stroke-width="1.51181" stroke-linecap="round" stroke-linejoin="round" transform="matrix(1,0,0,1,0,0)"
font-family="Arial" font-size="10.6667" font-weight="400" font-style="normal" 
>
</g>

<g fill="none" stroke="#000000" stroke-opacity="1" stroke-width="1.51181" stroke-linecap="round" stroke-linejoin="round" transform="matrix(1,0,0,1,0,0)"
font-family="Arial" font-size="10.6667" font-weight="400" font-style="normal" 
>
</g>

<g fill="none" stroke="#000000" stroke-opacity="1" stroke-width="1" stroke-linecap="square" stroke-linejoin="bevel" transform="matrix(1,0,0,1,0,0)"
font-family="Arial" font-size="10.6667" font-weight="400" font-style="normal" 
>
<path vector-effect="none" fill-rule="nonzero" d="M2805.04,3254.85 L2798.35,3368.04 L2760.4,4009.43 L2749.08,4008.82 L2720.78,4007.82 L2686.04,4007.17 L2645.22,4006.92 L2598.71,4007.15 L2592.29,4007.24 L2630.24,3365.84 L2630.48,3362.32 L2631.27,3355.44 L2632.44,3348.76 L2633.95,3342.29 L2636.81,3332.94 L2641.79,3321.26 L2647.93,3310.42 L2655.13,3300.46 L2663.27,3291.39 L2672.26,3283.22 L2681.97,3275.98 L2692.32,3269.66 L2703.18,3264.31 L2714.44,3259.92 L2726.01,3256.51 L2737.78,3254.1 L2749.62,3252.71 L2761.45,3252.36 L2767.31,3252.62 L2805.04,3254.85 M2855.8,3209.77 L2846.26,3370.87 L2805.5,4059.96 L2746.93,4056.77 L2719.48,4055.81 L2685.44,4055.16 L2645.19,4054.92 L2599.16,4055.15 L2541.32,4055.95 L2582.33,3362.78 L2582.67,3357.91 L2583.75,3348.55 L2585.38,3339.17 L2587.58,3329.78 L2591.66,3316.47 L2598.69,3299.95 L2607.47,3284.45 L2617.71,3270.29 L2629.18,3257.51 L2641.69,3246.14 L2655.07,3236.16 L2669.15,3227.57 L2683.8,3220.34 L2698.92,3214.45 L2714.41,3209.89 L2730.16,3206.67 L2746.1,3204.8 L2761.78,3204.33 L2769.79,3204.68 L2855.8,3209.77 M2846.26,3370.87 L2822.31,3369.45"/>
</g>

<g fill="none" stroke="#000000" stroke-opacity="1" stroke-width="1.51181" stroke-linecap="round" stroke-linejoin="round" transform="matrix(1,0,0,1,0,0)"
font-family="Arial" font-size="10.6667" font-weight="400" font-style="normal" 
>
</g>

<g fill="none" stroke="#000000" stroke-opacity="1" stroke-width="1.51181" stroke-linecap="round" stroke-linejoin="round" transform="matrix(1,0,0,1,0,0)"
font-family="Arial" font-size="10.6667" font-weight="400" font-style="normal" 
>
</g>

<g fill="#000000" fill-opacity="1" stroke="#000000" stroke-opacity="1" stroke-width="1.51181" stroke-linecap="round" stroke-linejoin="round" transform="matrix(1,0,0,1,0,0)"
font-family="Arial" font-size="10.6667" font-weight="400" font-style="normal" 
>
<path vector-effect="none" fill-rule="evenodd" d="M2689.8,3476.65 L2696.26,3494.41 L2683.34,3494.41 L2689.8,3476.65 L2689.8,3854.6 L2683.34,3836.84 L2696.26,3836.84 L2689.8,3854.6"/>
</g>

<g fill="none" stroke="#000000" stroke-opacity="1" stroke-width="1.51181" stroke-linecap="round" stroke-linejoin="round" transform="matrix(1,0,0,1,0,0)"
font-family="Arial" font-size="10.6667" font-weight="400" font-style="normal" 
>
</g>

<g fill="none" stroke="#000000" stroke-opacity="1" stroke-width="1.51181" stroke-linecap="round" stroke-linejoin="round" transform="matrix(1,0,0,1,0,0)"
font-family="Arial" font-size="10.6667" font-weight="400" font-style="normal" 
>
</g>

<g fill="none" stroke="#000000" stroke-opacity="1" stroke-width="1.51181" stroke-linecap="round" stroke-linejoin="round" transform="matrix(1,0,0,1,0,0)"
font-family="Arial" font-size="10.6667" font-weight="400" font-style="normal" 
>
</g>

<g fill="none" stroke="#000000" stroke-opacity="1" stroke-width="1" stroke-linecap="square" stroke-linejoin="bevel" transform="matrix(1,0,0,1,0,0)"
font-family="Arial" font-size="10.6667" font-weight="400" font-style="normal" 
>
<path vector-effect="none" fill-rule="nonzero" d="M2807.67,4418 L2801.07,4606.98 L2807.67,4795.95 L2857.77,6230.66 L2859.03,6264.7 L2862.22,6331.54 L2866.18,6396.86 L2870.83,6460.66 L2876.14,6522.9 L2882.05,6583.58 L2888.5,6642.67 L2895.44,6700.15 L2902.82,6756 L2910.58,6810.2 L2918.68,6862.74 L2927.05,6913.59 L2935.65,6962.74 L2944.42,7010.16 L2953.31,7055.83 L2962.26,7099.74 L2975.71,7162.48 L2993.37,7239.48 L3010.34,7309.07 L3026.18,7371.08 L3047.19,7450.58 L3062.73,7510.18 L3069.83,7540.36 L3072.04,7551.98 L3061.44,7553.96 L3040.76,7558.84 L3020.79,7564.84 L3001.6,7571.94 L2983.29,7580.14 L2965.94,7589.41 L2953.64,7597.1 L2945.76,7602.54 L2938.17,7608.24 L2930.88,7614.2 L2923.9,7620.42 L2917.23,7626.9 L2910.9,7633.64 L2904.9,7640.63 L2899.26,7647.87 L2893.98,7655.37 L2889.07,7663.12 L2884.55,7671.12 L2880.42,7679.36 L2876.69,7687.86 L2873.37,7696.59 L2870.49,7705.58 L2868.03,7714.8 L2866.03,7724.26 L2864.48,7733.96 L2863.4,7743.9 L2863.06,7748.97 L2862.66,7755.7 L2855.96,7868.89 L2818.02,8510.28 L2806.7,8509.67 L2778.4,8508.67 L2743.65,8508.01 L2702.83,8507.77 L2656.32,8508 L2649.91,8508.09 L2604.49,8508.77 L2547.72,8510.16 L2486.39,8512.23 L2420.87,8515.05 L2408.55,8515.7 L2351.54,8518.68 L2278.78,8523.2 L2202.96,8528.68 L2124.46,8535.17 L2043.66,8542.75 L1984.3,8548.97 L1817.24,8637.39 L1632.15,7855.97 L1782.3,7873.6 L1781.13,7740.96 L1781.45,7708.39 L1782.52,7665.13 L1784.09,7626.73 L1786.07,7593.17 L1788.36,7564.39 L1789.61,7551.98 L1790.53,7543.61 L1792.88,7525.68 L1797.39,7496.29 L1805.28,7451.79 L1814.92,7401.4 L1831.88,7315.3 L1851.33,7213.79 L1864.95,7138.76 L1878.8,7057.31 L1892.58,6969.33 L1902.67,6898.78 L1909.22,6849.79 L1915.58,6799.11 L1921.72,6746.73 L1927.59,6692.62 L1933.16,6636.79 L1938.38,6579.21 L1943.23,6519.87 L1947.67,6458.76 L1951.64,6395.87 L1955.13,6331.17 L1958.08,6264.67 L1959.33,6230.66 L2009.42,4795.95 L2016.02,4606.98 L2009.42,4418 L2408.55,4418 L2807.67,4418 M2855.7,4418 L2849.1,4606.98 L2855.64,4794.28 L2905.73,6228.93 L2906.99,6262.67 L2910.15,6328.94 L2914.07,6393.66 L2918.69,6456.87 L2923.94,6518.54 L2929.79,6578.65 L2936.18,6637.18 L2943.06,6694.13 L2950.37,6749.45 L2958.06,6803.14 L2966.08,6855.19 L2974.37,6905.56 L2982.89,6954.24 L2991.58,7001.21 L3000.38,7046.45 L3009.25,7089.92 L3022.57,7152.09 L3040.08,7228.43 L3056.91,7297.44 L3072.64,7359.01 L3093.61,7438.39 L3109.32,7498.62 L3116.79,7530.37 L3128.22,7590.36 L3071.35,7600.94 L3053.19,7605.22 L3036.04,7610.38 L3019.76,7616.4 L3004.44,7623.26 L2990,7630.98 L2980.01,7637.23 L2973.81,7641.5 L2967.78,7646.03 L2962.05,7650.72 L2956.61,7655.57 L2951.46,7660.57 L2946.62,7665.71 L2942.08,7671.01 L2937.84,7676.46 L2933.9,7682.05 L2930.26,7687.8 L2926.92,7693.7 L2923.88,7699.78 L2921.13,7706.03 L2918.69,7712.46 L2916.56,7719.1 L2914.74,7725.95 L2913.24,7733.02 L2912.07,7740.34 L2911.23,7748.11 L2910.96,7752 L2910.6,7758.06 L2901.05,7919.64 L2877.11,7918.98 L2839.15,8559.5 L2804.55,8557.62 L2777.1,8556.66 L2743.05,8556.01 L2702.81,8555.77 L2656.77,8556 L2650.6,8556.08 L2605.44,8556.76 L2549.12,8558.14 L2488.23,8560.2 L2423.16,8563 L2411.06,8563.63 L2354.28,8566.61 L2281.99,8571.1 L2206.66,8576.54 L2128.68,8582.99 L2048.4,8590.52 L1998.54,8595.74 L1828.67,8685.65 L1632.15,7855.97 L1733.97,7836.33 L1733.13,7740.93 L1733.46,7707.55 L1734.55,7663.56 L1736.15,7624.34 L1738.18,7589.85 L1740.55,7560.08 L1741.87,7546.96 L1742.87,7537.88 L1745.35,7518.93 L1750.03,7488.46 L1758.07,7443.09 L1767.8,7392.25 L1784.77,7306.14 L1804.15,7204.99 L1817.67,7130.45 L1831.43,7049.57 L1845.11,6962.21 L1855.12,6892.2 L1861.61,6843.62 L1867.93,6793.33 L1874.02,6741.34 L1879.85,6687.65 L1885.37,6632.23 L1890.56,6575.08 L1895.38,6516.18 L1899.78,6455.51 L1903.73,6393.06 L1907.19,6328.82 L1910.12,6262.73 L1911.36,6228.95 L1961.45,4794.28 L1967.99,4606.98 L1961.39,4418 L2408.55,4418 L2855.7,4418 M2849.1,4606.98 L2825.1,4606.98 M2855.64,4794.28 L2831.66,4795.12 M2905.73,6228.88 L2881.75,6229.77 M2889.08,7919.31 L2875.9,7899.25 M2650.63,8556.08 L2650.27,8532.08 M2411.06,8563.63 L2409.8,8539.66 M2400.81,8540.13 L2418.79,8539.19 M1998.54,8595.74 L1991.55,8572.78 M1911.36,6228.99 L1935.34,6229.82 M1961.45,4794.28 L1985.44,4795.12 M1967.99,4606.98 L1991.99,4606.98 M2408.55,4418"/>
</g>

<g fill="none" stroke="#000000" stroke-opacity="1" stroke-width="1.51181" stroke-linecap="round" stroke-linejoin="round" transform="matrix(1,0,0,1,0,0)"
font-family="Arial" font-size="10.6667" font-weight="400" font-style="normal" 
>
</g>

<g fill="none" stroke="#000000" stroke-opacity="1" stroke-width="1.51181" stroke-linecap="round" stroke-linejoin="round" transform="matrix(1,0,0,1,0,0)"
font-family="Arial" font-size="10.6667" font-weight="400" font-style="normal" 
>
</g>

<g fill="none" stroke="#000000" stroke-opacity="1" stroke-width="1" stroke-linecap="square" stroke-linejoin="bevel" transform="matrix(1,0,0,1,0,0)"
font-family="Arial" font-size="10.6667" font-weight="400" font-style="normal" 
>
<path vector-effect="none" fill-rule="nonzero" d="M2016.02,4606.98 L2408.55,4606.98 L2801.07,4606.98"/>
</g>

<g fill="none" stroke="#000000" stroke-opacity="1" stroke-width="1.51181" stroke-linecap="round" stroke-linejoin="round" transform="matrix(1,0,0,1,0,0)"
font-family="Arial" font-size="10.6667" font-weight="400" font-style="normal" 
>
</g>

<g fill="none" stroke="#000000" stroke-opacity="1" stroke-width="1.51181" stroke-linecap="round" stroke-linejoin="round" transform="matrix(1,0,0,1,0,0)"
font-family="Arial" font-size="10.6667" font-weight="400" font-style="normal" 
>
</g>

<g fill="none" stroke="#000000" stroke-opacity="1" stroke-width="1" stroke-linecap="square" stroke-linejoin="bevel" transform="matrix(1,0,0,1,0,0)"
font-family="Arial" font-size="10.6667" font-weight="400" font-style="normal" 
>
<path vector-effect="none" fill-rule="nonzero" d="M2009.42,4795.95 L2408.55,4795.95 L2807.67,4795.95"/>
</g>

<g fill="none" stroke="#000000" stroke-opacity="1" stroke-width="1.51181" stroke-linecap="round" stroke-linejoin="round" transform="matrix(1,0,0,1,0,0)"
font-family="Arial" font-size="10.6667" font-weight="400" font-style="normal" 
>
</g>

<g fill="none" stroke="#000000" stroke-opacity="1" stroke-width="1.51181" stroke-linecap="round" stroke-linejoin="round" transform="matrix(1,0,0,1,0,0)"
font-family="Arial" font-size="10.6667" font-weight="400" font-style="normal" 
>
</g>

<g fill="none" stroke="#000000" stroke-opacity="1" stroke-width="1" stroke-linecap="square" stroke-linejoin="bevel" transform="matrix(1,0,0,1,0,0)"
font-family="Arial" font-size="10.6667" font-weight="400" font-style="normal" 
>
<path vector-effect="none" fill-rule="nonzero" d="M2408.55,4418 L2408.55,4606.98 L2408.55,4795.95 L2408.55,6230.66 L2408.55,7551.98 L2408.55,8515.7"/>
</g>

<g fill="none" stroke="#000000" stroke-opacity="1" stroke-width="1.51181" stroke-linecap="round" stroke-linejoin="round" transform="matrix(1,0,0,1,0,0)"
font-family="Arial" font-size="10.6667" font-weight="400" font-style="normal" 
>
</g>

<g fill="none" stroke="#000000" stroke-opacity="1" stroke-width="1.51181" stroke-linecap="round" stroke-linejoin="round" transform="matrix(1,0,0,1,0,0)"
font-family="Arial" font-size="10.6667" font-weight="400" font-style="normal" 
>
</g>

<g fill="#000000" fill-opacity="1" stroke="#000000" stroke-opacity="1" stroke-width="1.51181" stroke-linecap="round" stroke-linejoin="round" transform="matrix(1,0,0,1,0,0)"
font-family="Arial" font-size="10.6667" font-weight="400" font-style="normal" 
>
<path vector-effect="none" fill-rule="evenodd" d="M2597.54,5550.63 L2604.01,5568.38 L2591.08,5568.38 L2597.54,5550.63 L2597.54,7440.39 L2591.08,7422.63 L2604.01,7422.63 L2597.54,7440.39"/>
</g>

<g fill="none" stroke="#000000" stroke-opacity="1" stroke-width="1.51181" stroke-linecap="round" stroke-linejoin="round" transform="matrix(1,0,0,1,0,0)"
font-family="Arial" font-size="10.6667" font-weight="400" font-style="normal" 
>
</g>

<g fill="none" stroke="#000000" stroke-opacity="1" stroke-width="1.51181" stroke-linecap="round" stroke-linejoin="round" transform="matrix(1,0,0,1,0,0)"
font-family="Arial" font-size="10.6667" font-weight="400" font-style="normal" 
>
</g>

<g fill="none" stroke="#000000" stroke-opacity="1" stroke-width="1.51181" stroke-linecap="round" stroke-linejoin="round" transform="matrix(1,0,0,1,0,0)"
font-family="Arial" font-size="10.6667" font-weight="400" font-style="normal" 
>
</g>
</g>
</svg>
