<?xml version="1.0" encoding="UTF-8" standalone="no"?>
<svg width="840.846mm" height="2153.71mm"
 viewBox="0 0 3178 8140"
 xmlns="http://www.w3.org/2000/svg" xmlns:xlink="http://www.w3.org/1999/xlink"  version="1.2" baseProfile="tiny">
<title>Pattern</title>
<defs>
</defs>
<g fill="none" stroke="black" stroke-width="1" fill-rule="evenodd" stroke-linecap="square" stroke-linejoin="bevel" >

<g fill="none" stroke="#000000" stroke-opacity="1" stroke-width="1.51181" stroke-linecap="round" stroke-linejoin="round" transform="matrix(1,0,0,1,0,0)"
font-family="Arial" font-size="10.6667" font-weight="400" font-style="normal" 
>
</g>

<g fill="none" stroke="#000000" stroke-opacity="1" stroke-width="1.51181" stroke-linecap="round" stroke-linejoin="round" transform="matrix(1,0,0,1,0,0)"
font-family="Arial" font-size="10.6667" font-weight="400" font-style="normal" 
>
</g>

<g fill="none" stroke="#000000" stroke-opacity="1" stroke-width="1.51181" stroke-linecap="round" stroke-linejoin="round" transform="matrix(1,0,0,1,0,0)"
font-family="Arial" font-size="10.6667" font-weight="400" font-style="normal" 
>
</g>

<g fill="none" stroke="#000000" stroke-opacity="1" stroke-width="1" stroke-linecap="square" stroke-linejoin="bevel" transform="matrix(1,0,0,1,0,0)"
font-family="Arial" font-size="10.6667" font-weight="400" font-style="normal" 
>
<path vector-effect="none" fill-rule="nonzero" d="M3173,192 L3173,3264.57 L3139.24,3264.58 L3076.07,3265.08 L3032.71,3266.34 L3005.67,3267.73 L2980.32,3269.7 L2956.76,3272.35 L2935.09,3275.78 L2915.38,3280.09 L2902.02,3283.99 L2893.73,3286.9 L2885.99,3290.09 L2878.8,3293.56 L2872.18,3297.34 L2866.14,3301.43 L2860.69,3305.85 L2855.84,3310.61 L2851.6,3315.71 L2847.99,3321.19 L2845.02,3327.04 L2842.69,3333.28 L2841.8,3336.57 L2823.36,3430.92 L2185.31,3270.67 L2209.93,3177.87 L2218.81,3142.01 L2234.21,3075.23 L2246.91,3014.77 L2257.09,2961.05 L2264.9,2914.5 L2270.51,2875.55 L2274.09,2844.61 L2275.79,2822.13 L2275.82,2820.57 L2275.93,2814.57 L2276,2810.19 L2276.7,2799.27 L2278.47,2778.64 L2280.28,2752.49 L2281.04,2732.73 L2281.12,2711.15 L2280.26,2687.91 L2278.16,2663.16 L2275.57,2643.66 L2273.34,2630.3 L2270.65,2616.65 L2267.46,2602.73 L2263.75,2588.56 L2259.47,2574.16 L2254.58,2559.55 L2249.07,2544.74 L2242.88,2529.76 L2235.99,2514.63 L2228.36,2499.37 L2219.96,2483.99 L2210.76,2468.52 L2200.71,2452.97 L2195.32,2445.18 L2190.12,2437.97 L2179.38,2425.05 L2168.27,2413.82 L2156.88,2404.14 L2145.29,2395.91 L2133.55,2388.98 L2121.76,2383.25 L2109.97,2378.58 L2098.28,2374.86 L2086.75,2371.96 L2075.46,2369.76 L2064.49,2368.12 L2048.71,2366.45 L2029.53,2365.15 L2021,2364.57 L2030,2252.78 L2063.75,1820.11 L2076.41,1651.7 L2086.53,1509.79 L2091.28,1434.74 L2092.86,1402.48 L2093,1393.7 L2092.86,1385.98 L2091.28,1368.42 L2088.32,1347.98 L2084.21,1324.27 L2076.41,1282.3 L2067.02,1229.85 L2060.38,1189.36 L2053.63,1143.74 L2046.98,1092.62 L2040.65,1035.62 L2034.85,972.372 L2029.79,902.495 L2025.68,825.618 L2023.38,762.902 L2022.23,718.863 L2021.44,672.864 L2021.04,624.857 L2021,600 L2021,192 L3173,192 M3173,0 L3173,3288.57 L3139.34,3288.58 L3076.52,3289.08 L3033.67,3290.33 L3007.21,3291.69 L2982.59,3293.6 L2959.98,3296.14 L2939.53,3299.38 L2921.32,3303.36 L2909.36,3306.85 L2902.28,3309.34 L2895.78,3312.01 L2889.98,3314.81 L2884.87,3317.73 L2880.45,3320.72 L2876.68,3323.78 L2873.53,3326.87 L2870.92,3330.02 L2868.77,3333.27 L2867.03,3336.7 L2865.57,3340.62 L2865.19,3342.01 L2837.45,3483.95 L2126.44,3305.38 L2163.43,3165.95 L2172.12,3130.85 L2187.33,3064.9 L2199.84,3005.36 L2209.83,2952.61 L2217.47,2907.1 L2222.9,2869.37 L2226.3,2840.04 L2227.83,2819.88 L2227.94,2813.75 L2228.02,2808.26 L2228.84,2795.68 L2230.62,2774.94 L2232.34,2749.91 L2233.04,2731.71 L2233.12,2711.95 L2232.33,2690.83 L2230.43,2668.35 L2228.09,2650.78 L2226.11,2638.89 L2223.7,2626.65 L2220.84,2614.18 L2217.52,2601.49 L2213.68,2588.61 L2209.32,2575.54 L2204.38,2562.29 L2198.84,2548.88 L2192.67,2535.31 L2185.82,2521.61 L2178.26,2507.78 L2169.96,2493.83 L2160.8,2479.65 L2156.1,2472.86 L2152.16,2467.39 L2143.79,2457.33 L2135.61,2449.05 L2127.4,2442.07 L2119.15,2436.22 L2110.83,2431.31 L2102.4,2427.21 L2093.84,2423.82 L2085.13,2421.05 L2076.29,2418.82 L2067.33,2417.07 L2058.42,2415.75 L2044.55,2414.28 L2026.28,2413.04 L1969.25,2409.16 L1982.15,2248.99 L2015.89,1816.45 L2028.53,1648.19 L2038.64,1506.56 L2043.35,1432.05 L2044.88,1400.92 L2044.99,1393.75 L2044.9,1388.58 L2043.59,1374.01 L2040.91,1355.51 L2036.97,1332.76 L2029.19,1290.92 L2019.71,1237.96 L2012.95,1196.76 L2006.08,1150.35 L1999.32,1098.36 L1992.89,1040.46 L1987.01,976.298 L1981.88,905.511 L1977.72,827.777 L1975.4,764.404 L1974.25,719.9 L1973.45,673.48 L1973.04,625.095 L1973,600.034 L1973,0 L3173,0 M2227.88,2816.87 L2251.88,2817.3 M2227.78,2822.54 L2251.77,2822.97"/>
</g>

<g fill="none" stroke="#000000" stroke-opacity="1" stroke-width="1.51181" stroke-linecap="round" stroke-linejoin="round" transform="matrix(1,0,0,1,0,0)"
font-family="Arial" font-size="10.6667" font-weight="400" font-style="normal" 
>
</g>

<g fill="none" stroke="#000000" stroke-opacity="1" stroke-width="1.51181" stroke-linecap="round" stroke-linejoin="round" transform="matrix(1,0,0,1,0,0)"
font-family="Arial" font-size="10.6667" font-weight="400" font-style="normal" 
>
</g>

<g fill="#000000" fill-opacity="1" stroke="#000000" stroke-opacity="1" stroke-width="1.51181" stroke-linecap="round" stroke-linejoin="round" transform="matrix(1,0,0,1,0,0)"
font-family="Arial" font-size="10.6667" font-weight="400" font-style="normal" 
>
<path vector-effect="none" fill-rule="evenodd" d="M2895.01,1055.85 L2911.42,1100.95 L2878.59,1100.95 L2895.01,1055.85 L2895.01,2495.85 L2878.59,2450.74 L2911.42,2450.74 L2895.01,2495.85"/>
</g>

<g fill="none" stroke="#000000" stroke-opacity="1" stroke-width="1.51181" stroke-linecap="round" stroke-linejoin="round" transform="matrix(1,0,0,1,0,0)"
font-family="Arial" font-size="10.6667" font-weight="400" font-style="normal" 
>
</g>

<g fill="none" stroke="#000000" stroke-opacity="1" stroke-width="1.51181" stroke-linecap="round" stroke-linejoin="round" transform="matrix(1,0,0,1,0,0)"
font-family="Arial" font-size="10.6667" font-weight="400" font-style="normal" 
>
</g>

<g fill="none" stroke="#000000" stroke-opacity="1" stroke-width="1.51181" stroke-linecap="round" stroke-linejoin="round" transform="matrix(1,0,0,1,0,0)"
font-family="Arial" font-size="10.6667" font-weight="400" font-style="normal" 
>
</g>

<g fill="none" stroke="#000000" stroke-opacity="1" stroke-width="1" stroke-linecap="square" stroke-linejoin="bevel" transform="matrix(1,0,0,1,0,0)"
font-family="Arial" font-size="10.6667" font-weight="400" font-style="normal" 
>
<path vector-effect="none" fill-rule="nonzero" d="M1906.09,801.722 L1906.66,1209.72 L1906.66,1234.58 L1906.32,1282.59 L1905.6,1328.59 L1904.51,1372.63 L1902.31,1435.35 L1898.3,1512.23 L1893.34,1582.11 L1887.63,1645.37 L1881.38,1702.38 L1874.81,1753.51 L1868.12,1799.14 L1861.53,1839.63 L1852.22,1892.1 L1844.48,1934.08 L1840.4,1957.79 L1837.47,1978.24 L1835.91,1995.81 L1835.78,2003.52 L1835.94,2012.3 L1837.57,2044.56 L1842.42,2119.6 L1852.74,2261.5 L1865.64,2429.9 L1900,2862.51 L1909.16,2974.29 L1900.63,2974.88 L1881.45,2976.21 L1865.68,2977.91 L1854.7,2979.55 L1843.41,2981.77 L1831.89,2984.69 L1820.2,2988.43 L1808.43,2993.11 L1796.64,2998.86 L1784.92,3005.8 L1773.33,3014.06 L1761.95,3023.75 L1750.86,3035 L1740.14,3047.93 L1734.95,3055.14 L1729.58,3062.95 L1719.55,3078.51 L1710.36,3093.99 L1701.99,3109.38 L1694.38,3124.66 L1687.51,3139.8 L1681.35,3154.78 L1675.85,3169.6 L1670.99,3184.22 L1666.73,3198.62 L1663.03,3212.8 L1659.86,3226.72 L1657.2,3240.38 L1654.99,3253.74 L1652.42,3273.24 L1652.3,3274.65 L1650.36,3298 L1649.52,3321.24 L1649.64,3342.82 L1650.43,3362.57 L1652.27,3388.73 L1654.07,3409.35 L1654.79,3420.27 L1654.87,3424.65 L1655.01,3432.21 L1656.75,3454.69 L1660.37,3485.62 L1666.04,3524.56 L1673.92,3571.1 L1684.17,3624.8 L1696.96,3685.25 L1699.1,3694.47 L1061.28,3855.62 L1055.93,3841.75 L1049.47,3826.12 L1042.65,3810.75 L1035.46,3795.66 L1027.9,3780.89 L1019.95,3766.48 L1011.61,3752.44 L1002.87,3738.81 L993.714,3725.62 L984.141,3712.9 L974.14,3700.69 L963.703,3689.01 L952.821,3677.89 L941.486,3667.37 L929.688,3657.48 L917.421,3648.24 L904.675,3639.69 L891.441,3631.86 L877.711,3624.78 L863.476,3618.48 L848.729,3612.99 L833.46,3608.34 L817.66,3604.56 L801.322,3601.69 L784.437,3599.76 L766.995,3598.79 L758.04,3598.72 L754.086,803.351 L1906.09,801.722 M753.815,611.352 L1953.81,609.654 L1954.66,1209.69 L1954.66,1234.75 L1954.32,1283.13 L1953.59,1329.56 L1952.49,1374.06 L1950.26,1437.44 L1946.21,1515.18 L1941.18,1585.97 L1935.39,1650.15 L1929.04,1708.06 L1922.36,1760.05 L1915.56,1806.47 L1908.86,1847.68 L1899.45,1900.65 L1891.73,1942.5 L1887.82,1965.26 L1885.17,1983.76 L1883.88,1998.33 L1883.79,2003.51 L1883.92,2010.67 L1885.49,2041.8 L1890.31,2116.31 L1900.61,2257.92 L1913.49,2426.16 L1947.84,2858.65 L1960.97,3018.81 L1903.95,3022.76 L1885.68,3024.03 L1871.81,3025.52 L1862.9,3026.86 L1853.95,3028.62 L1845.11,3030.86 L1836.4,3033.64 L1827.85,3037.05 L1819.42,3041.16 L1811.11,3046.08 L1802.87,3051.95 L1794.67,3058.93 L1786.5,3067.22 L1778.15,3077.29 L1774.21,3082.77 L1769.52,3089.57 L1760.38,3103.76 L1752.1,3117.72 L1744.56,3131.56 L1737.73,3145.28 L1731.58,3158.85 L1726.06,3172.27 L1721.14,3185.52 L1716.79,3198.6 L1712.98,3211.49 L1709.67,3224.18 L1706.83,3236.65 L1704.44,3248.9 L1702.47,3260.79 L1700.14,3278.63 L1698.29,3300.85 L1697.53,3321.97 L1697.63,3341.73 L1698.36,3359.93 L1700.12,3384.95 L1701.93,3405.69 L1702.76,3418.27 L1702.86,3423.77 L1702.98,3429.89 L1704.53,3450.05 L1707.97,3479.37 L1713.46,3517.1 L1721.16,3562.59 L1731.23,3615.34 L1743.82,3674.86 L1756.49,3729.48 L1055.24,3906.65 L1033.64,3850.65 L1027.41,3835.57 L1020.84,3820.78 L1013.95,3806.3 L1006.71,3792.16 L999.122,3778.4 L991.189,3765.05 L982.903,3752.13 L974.262,3739.68 L965.261,3727.73 L955.899,3716.29 L946.171,3705.41 L936.073,3695.09 L925.601,3685.37 L914.749,3676.27 L903.508,3667.81 L891.869,3660 L879.819,3652.87 L867.344,3646.43 L854.425,3640.72 L841.041,3635.73 L827.171,3631.51 L812.791,3628.08 L797.875,3625.46 L782.401,3623.68 L766.232,3622.78 L758.074,3622.72 L753.815,611.352 M1700.14,3278.63 L1676.22,3276.64"/>
</g>

<g fill="none" stroke="#000000" stroke-opacity="1" stroke-width="1.51181" stroke-linecap="round" stroke-linejoin="round" transform="matrix(1,0,0,1,0,0)"
font-family="Arial" font-size="10.6667" font-weight="400" font-style="normal" 
>
</g>

<g fill="none" stroke="#000000" stroke-opacity="1" stroke-width="1.51181" stroke-linecap="round" stroke-linejoin="round" transform="matrix(1,0,0,1,0,0)"
font-family="Arial" font-size="10.6667" font-weight="400" font-style="normal" 
>
</g>

<g fill="#000000" fill-opacity="1" stroke="#000000" stroke-opacity="1" stroke-width="1.51181" stroke-linecap="round" stroke-linejoin="round" transform="matrix(1,0,0,1,0,0)"
font-family="Arial" font-size="10.6667" font-weight="400" font-style="normal" 
>
<path vector-effect="none" fill-rule="evenodd" d="M1041.8,2980.3 L1025.32,2935.22 L1058.15,2935.18 L1041.8,2980.3 L1039.76,1540.3 L1056.24,1585.39 L1023.41,1585.43 L1039.76,1540.3"/>
</g>

<g fill="none" stroke="#000000" stroke-opacity="1" stroke-width="1.51181" stroke-linecap="round" stroke-linejoin="round" transform="matrix(1,0,0,1,0,0)"
font-family="Arial" font-size="10.6667" font-weight="400" font-style="normal" 
>
</g>

<g fill="none" stroke="#000000" stroke-opacity="1" stroke-width="1.51181" stroke-linecap="round" stroke-linejoin="round" transform="matrix(1,0,0,1,0,0)"
font-family="Arial" font-size="10.6667" font-weight="400" font-style="normal" 
>
</g>

<g fill="none" stroke="#000000" stroke-opacity="1" stroke-width="1.51181" stroke-linecap="round" stroke-linejoin="round" transform="matrix(1,0,0,1,0,0)"
font-family="Arial" font-size="10.6667" font-weight="400" font-style="normal" 
>
</g>

<g fill="none" stroke="#000000" stroke-opacity="1" stroke-width="1" stroke-linecap="square" stroke-linejoin="bevel" transform="matrix(1,0,0,1,0,0)"
font-family="Arial" font-size="10.6667" font-weight="400" font-style="normal" 
>
<path vector-effect="none" fill-rule="nonzero" d="M2787.32,3553.32 L2787.32,3817.32 L2787.32,4081.32 L1868.52,4081.32 L1868.52,3817.32 L1868.52,3553.32 L2787.32,3553.32 M2835.32,3505.32 L2835.32,3817.32 L2835.32,4129.32 L1820.52,4129.32 L1820.52,3817.32 L1820.52,3505.32 L2835.32,3505.32"/>
</g>

<g fill="none" stroke="#000000" stroke-opacity="1" stroke-width="1.51181" stroke-linecap="round" stroke-linejoin="round" transform="matrix(1,0,0,1,0,0)"
font-family="Arial" font-size="10.6667" font-weight="400" font-style="normal" 
>
</g>

<g fill="none" stroke="#000000" stroke-opacity="1" stroke-width="1.51181" stroke-linecap="round" stroke-linejoin="round" transform="matrix(1,0,0,1,0,0)"
font-family="Arial" font-size="10.6667" font-weight="400" font-style="normal" 
>
</g>

<g fill="none" stroke="#000000" stroke-opacity="1" stroke-width="1" stroke-linecap="square" stroke-linejoin="bevel" transform="matrix(1,0,0,1,0,0)"
font-family="Arial" font-size="10.6667" font-weight="400" font-style="normal" 
>
<path vector-effect="none" fill-rule="nonzero" d="M2787.32,3817.32 L1868.52,3817.32"/>
</g>

<g fill="none" stroke="#000000" stroke-opacity="1" stroke-width="1.51181" stroke-linecap="round" stroke-linejoin="round" transform="matrix(1,0,0,1,0,0)"
font-family="Arial" font-size="10.6667" font-weight="400" font-style="normal" 
>
</g>

<g fill="none" stroke="#000000" stroke-opacity="1" stroke-width="1.51181" stroke-linecap="round" stroke-linejoin="round" transform="matrix(1,0,0,1,0,0)"
font-family="Arial" font-size="10.6667" font-weight="400" font-style="normal" 
>
</g>

<g fill="#000000" fill-opacity="1" stroke="#000000" stroke-opacity="1" stroke-width="1.51181" stroke-linecap="round" stroke-linejoin="round" transform="matrix(1,0,0,1,0,0)"
font-family="Arial" font-size="10.6667" font-weight="400" font-style="normal" 
>
<path vector-effect="none" fill-rule="evenodd" d="M2615.52,3969.25 L2570.42,3985.67 L2570.42,3952.84 L2615.52,3969.25 L2135.52,3969.25 L2180.63,3952.84 L2180.63,3985.67 L2135.52,3969.25"/>
</g>

<g fill="none" stroke="#000000" stroke-opacity="1" stroke-width="1.51181" stroke-linecap="round" stroke-linejoin="round" transform="matrix(1,0,0,1,0,0)"
font-family="Arial" font-size="10.6667" font-weight="400" font-style="normal" 
>
</g>

<g fill="none" stroke="#000000" stroke-opacity="1" stroke-width="1.51181" stroke-linecap="round" stroke-linejoin="round" transform="matrix(1,0,0,1,0,0)"
font-family="Arial" font-size="10.6667" font-weight="400" font-style="normal" 
>
</g>

<g fill="none" stroke="#000000" stroke-opacity="1" stroke-width="1.51181" stroke-linecap="round" stroke-linejoin="round" transform="matrix(1,0,0,1,0,0)"
font-family="Arial" font-size="10.6667" font-weight="400" font-style="normal" 
>
</g>

<g fill="none" stroke="#000000" stroke-opacity="1" stroke-width="1" stroke-linecap="square" stroke-linejoin="bevel" transform="matrix(1,0,0,1,0,0)"
font-family="Arial" font-size="10.6667" font-weight="400" font-style="normal" 
>
<path vector-effect="none" fill-rule="evenodd" d="M3112.15,3353.79 L3112.15,3989.79 L3076.15,3989.79 L2998.15,3989.79 L2920.15,3989.79 L2884.15,3989.79 L2884.15,3353.79 L2920.15,3353.79 L2998.15,3353.79 L3076.15,3353.79 L3112.15,3353.79"/>
</g>

<g fill="none" stroke="#000000" stroke-opacity="1" stroke-width="1.51181" stroke-linecap="round" stroke-linejoin="round" transform="matrix(1,0,0,1,0,0)"
font-family="Arial" font-size="10.6667" font-weight="400" font-style="normal" 
>
</g>

<g fill="none" stroke="#000000" stroke-opacity="1" stroke-width="1.51181" stroke-linecap="round" stroke-linejoin="round" transform="matrix(1,0,0,1,0,0)"
font-family="Arial" font-size="10.6667" font-weight="400" font-style="normal" 
>
</g>

<g fill="none" stroke="#000000" stroke-opacity="1" stroke-width="1" stroke-linecap="square" stroke-linejoin="bevel" transform="matrix(1,0,0,1,0,0)"
font-family="Arial" font-size="10.6667" font-weight="400" font-style="normal" 
>
<path vector-effect="none" fill-rule="nonzero" d="M2998.15,3353.79 L2998.15,3989.79"/>
</g>

<g fill="none" stroke="#000000" stroke-opacity="1" stroke-width="1.51181" stroke-linecap="round" stroke-linejoin="round" transform="matrix(1,0,0,1,0,0)"
font-family="Arial" font-size="10.6667" font-weight="400" font-style="normal" 
>
</g>

<g fill="none" stroke="#000000" stroke-opacity="1" stroke-width="1.51181" stroke-linecap="round" stroke-linejoin="round" transform="matrix(1,0,0,1,0,0)"
font-family="Arial" font-size="10.6667" font-weight="400" font-style="normal" 
>
</g>

<g fill="none" stroke="#000000" stroke-opacity="1" stroke-width="1" stroke-linecap="square" stroke-linejoin="bevel" transform="matrix(1,0,0,1,0,0)"
font-family="Arial" font-size="10.6667" font-weight="400" font-style="normal" 
>
<path vector-effect="none" fill-rule="nonzero" d="M3076.15,3353.79 L3076.15,3989.79"/>
</g>

<g fill="none" stroke="#000000" stroke-opacity="1" stroke-width="1.51181" stroke-linecap="round" stroke-linejoin="round" transform="matrix(1,0,0,1,0,0)"
font-family="Arial" font-size="10.6667" font-weight="400" font-style="normal" 
>
</g>

<g fill="none" stroke="#000000" stroke-opacity="1" stroke-width="1.51181" stroke-linecap="round" stroke-linejoin="round" transform="matrix(1,0,0,1,0,0)"
font-family="Arial" font-size="10.6667" font-weight="400" font-style="normal" 
>
</g>

<g fill="none" stroke="#000000" stroke-opacity="1" stroke-width="1" stroke-linecap="square" stroke-linejoin="bevel" transform="matrix(1,0,0,1,0,0)"
font-family="Arial" font-size="10.6667" font-weight="400" font-style="normal" 
>
<path vector-effect="none" fill-rule="nonzero" d="M2920.15,3353.79 L2920.15,3989.79"/>
</g>

<g fill="none" stroke="#000000" stroke-opacity="1" stroke-width="1.51181" stroke-linecap="round" stroke-linejoin="round" transform="matrix(1,0,0,1,0,0)"
font-family="Arial" font-size="10.6667" font-weight="400" font-style="normal" 
>
</g>

<g fill="none" stroke="#000000" stroke-opacity="1" stroke-width="1.51181" stroke-linecap="round" stroke-linejoin="round" transform="matrix(1,0,0,1,0,0)"
font-family="Arial" font-size="10.6667" font-weight="400" font-style="normal" 
>
</g>

<g fill="none" stroke="#000000" stroke-opacity="1" stroke-width="1" stroke-linecap="square" stroke-linejoin="bevel" transform="matrix(1,0,0,1,0,0)"
font-family="Arial" font-size="10.6667" font-weight="400" font-style="normal" 
>
<path vector-effect="none" fill-rule="evenodd" d="M745.42,4388.24 L745.42,3836.24 L781.42,3836.24 L817.42,3836.24 L817.42,3776.24 L895.42,3740.24 L937.42,3759.62 L973.42,3776.24 L973.42,4388.24 L937.42,4388.24 L859.42,4388.24 L781.42,4388.24 L745.42,4388.24"/>
</g>

<g fill="none" stroke="#000000" stroke-opacity="1" stroke-width="1.51181" stroke-linecap="round" stroke-linejoin="round" transform="matrix(1,0,0,1,0,0)"
font-family="Arial" font-size="10.6667" font-weight="400" font-style="normal" 
>
</g>

<g fill="none" stroke="#000000" stroke-opacity="1" stroke-width="1.51181" stroke-linecap="round" stroke-linejoin="round" transform="matrix(1,0,0,1,0,0)"
font-family="Arial" font-size="10.6667" font-weight="400" font-style="normal" 
>
</g>

<g fill="none" stroke="#000000" stroke-opacity="1" stroke-width="1" stroke-linecap="square" stroke-linejoin="bevel" transform="matrix(1,0,0,1,0,0)"
font-family="Arial" font-size="10.6667" font-weight="400" font-style="normal" 
>
<path vector-effect="none" fill-rule="nonzero" d="M781.42,4388.24 L781.42,3836.24"/>
</g>

<g fill="none" stroke="#000000" stroke-opacity="1" stroke-width="1.51181" stroke-linecap="round" stroke-linejoin="round" transform="matrix(1,0,0,1,0,0)"
font-family="Arial" font-size="10.6667" font-weight="400" font-style="normal" 
>
</g>

<g fill="none" stroke="#000000" stroke-opacity="1" stroke-width="1.51181" stroke-linecap="round" stroke-linejoin="round" transform="matrix(1,0,0,1,0,0)"
font-family="Arial" font-size="10.6667" font-weight="400" font-style="normal" 
>
</g>

<g fill="none" stroke="#000000" stroke-opacity="1" stroke-width="1" stroke-linecap="square" stroke-linejoin="bevel" transform="matrix(1,0,0,1,0,0)"
font-family="Arial" font-size="10.6667" font-weight="400" font-style="normal" 
>
<path vector-effect="none" fill-rule="nonzero" d="M937.42,4388.24 L937.42,3759.62"/>
</g>

<g fill="none" stroke="#000000" stroke-opacity="1" stroke-width="1.51181" stroke-linecap="round" stroke-linejoin="round" transform="matrix(1,0,0,1,0,0)"
font-family="Arial" font-size="10.6667" font-weight="400" font-style="normal" 
>
</g>

<g fill="none" stroke="#000000" stroke-opacity="1" stroke-width="1.51181" stroke-linecap="round" stroke-linejoin="round" transform="matrix(1,0,0,1,0,0)"
font-family="Arial" font-size="10.6667" font-weight="400" font-style="normal" 
>
</g>

<g fill="none" stroke="#000000" stroke-opacity="1" stroke-width="1" stroke-linecap="square" stroke-linejoin="bevel" transform="matrix(1,0,0,1,0,0)"
font-family="Arial" font-size="10.6667" font-weight="400" font-style="normal" 
>
<path vector-effect="none" fill-rule="nonzero" d="M859.42,4388.24 L859.42,3756.85"/>
</g>

<g fill="none" stroke="#000000" stroke-opacity="1" stroke-width="1.51181" stroke-linecap="round" stroke-linejoin="round" transform="matrix(1,0,0,1,0,0)"
font-family="Arial" font-size="10.6667" font-weight="400" font-style="normal" 
>
</g>

<g fill="none" stroke="#000000" stroke-opacity="1" stroke-width="1.51181" stroke-linecap="round" stroke-linejoin="round" transform="matrix(1,0,0,1,0,0)"
font-family="Arial" font-size="10.6667" font-weight="400" font-style="normal" 
>
</g>

<g fill="none" stroke="#000000" stroke-opacity="1" stroke-width="1" stroke-linecap="square" stroke-linejoin="bevel" transform="matrix(1,0,0,1,0,0)"
font-family="Arial" font-size="10.6667" font-weight="400" font-style="normal" 
>
<path vector-effect="none" fill-rule="nonzero" d="M2814.03,4455 L3025.2,5944.51 L3016.64,5950.54 L3000.49,5962.34 L2985.39,5973.87 L2971.2,5985.2 L2951.29,6001.91 L2926.92,6023.96 L2903.97,6046.16 L2881.43,6068.96 L2846.48,6105.06 L2820.22,6131.63 L2813.74,6138.16 L2801.22,6151.31 L2783.25,6171.19 L2760.64,6197.9 L2739.05,6224.73 L2707.52,6264.96 L2675.45,6304.74 L2653,6330.84 L2641.2,6343.7 L2626.72,6359.16 L2601.55,6385.21 L2579.89,6406.44 L2560.57,6423.92 L2542.44,6438.77 L2524.32,6452.08 L2505.05,6464.96 L2483.49,6478.5 L2471.31,6485.96 L2461.92,6491.58 L2443.53,6501.61 L2425.64,6510.24 L2408.3,6517.6 L2391.55,6523.77 L2375.44,6528.86 L2360.03,6532.97 L2345.35,6536.21 L2331.46,6538.68 L2318.4,6540.48 L2300.36,6542.21 L2279.82,6543.03 L2263.48,6543.03 L2257.2,6543 L2239.2,6542.98 L2227.43,6542.79 L2209.11,6541.75 L2195.92,6540.46 L2181.96,6538.51 L2167.29,6535.77 L2151.98,6532.1 L2136.08,6527.38 L2119.67,6521.46 L2102.79,6514.22 L2085.52,6505.52 L2067.91,6495.23 L2050.04,6483.21 L2031.95,6469.34 L2022.84,6461.58 L2015.26,6454.91 L2001.12,6441.88 L1988.13,6429.15 L1976.19,6416.68 L1965.19,6404.44 L1955.03,6392.36 L1945.62,6380.4 L1936.83,6368.51 L1924.57,6350.72 L1909.58,6326.82 L1888.17,6289.93 L1873.2,6263.7 L1868.38,6255.43 L1858.87,6239.79 L1849.46,6225.12 L1840.09,6211.35 L1830.7,6198.38 L1821.25,6186.12 L1811.67,6174.46 L1801.92,6163.33 L1791.94,6152.62 L1781.67,6142.24 L1765.67,6127.08 L1742.77,6107.2 L1717.76,6086.96 L1704.21,6076.42 L1693.5,6068.15 L1672.26,6052.03 L1650.55,6036.21 L1627.63,6020.48 L1602.74,6004.59 L1575.14,5988.33 L1544.1,5971.47 L1508.85,5953.78 L1489.2,5944.51 L1700.37,4455 L2214.03,4455 L2310.03,4455 L2358.03,4455 L2454.03,4455 L2550.03,4455 L2814.03,4455 M2855.7,4407 L3076.84,5966.82 L3044.64,5989.53 L3029.22,6000.8 L3014.93,6011.71 L3001.61,6022.34 L2982.84,6038.1 L2959.72,6059.02 L2937.73,6080.28 L2915.75,6102.53 L2880.8,6138.62 L2854.34,6165.4 L2848.17,6171.61 L2836.4,6183.97 L2819.37,6202.8 L2797.67,6228.45 L2776.64,6254.58 L2745.1,6294.83 L2712.34,6335.46 L2688.89,6362.73 L2676.39,6376.34 L2661.5,6392.24 L2635.62,6419.04 L2612.81,6441.39 L2591.9,6460.31 L2571.87,6476.71 L2551.88,6491.4 L2531.16,6505.25 L2508.78,6519.3 L2496.18,6527.01 L2485.76,6533.26 L2465.47,6544.32 L2445.45,6553.98 L2425.97,6562.24 L2407.09,6569.19 L2388.87,6574.95 L2371.39,6579.62 L2354.73,6583.3 L2338.94,6586.1 L2323.97,6588.17 L2303.61,6590.11 L2280.79,6591.03 L2263.35,6591.03 L2257.04,6591 L2238.78,6590.98 L2225.68,6590.77 L2205.41,6589.62 L2190.26,6588.14 L2174.23,6585.9 L2157.29,6582.73 L2139.55,6578.48 L2121.1,6573 L2102.05,6566.13 L2082.51,6557.75 L2062.59,6547.72 L2042.39,6535.91 L2022.01,6522.21 L2001.76,6506.67 L1991.44,6497.88 L1983.14,6490.59 L1968.04,6476.67 L1953.99,6462.9 L1940.99,6449.33 L1928.95,6435.92 L1917.8,6422.66 L1907.45,6409.52 L1897.76,6396.4 L1884.46,6377.1 L1868.48,6351.63 L1846.57,6313.87 L1831.61,6287.68 L1827.13,6279.97 L1818.16,6265.22 L1809.42,6251.6 L1800.8,6238.93 L1792.24,6227.11 L1783.69,6216.01 L1775.07,6205.52 L1766.3,6195.51 L1757.32,6185.87 L1748.1,6176.55 L1733.41,6162.64 L1711.93,6143.99 L1687.93,6124.57 L1674.8,6114.35 L1664.32,6106.26 L1643.62,6090.55 L1622.83,6075.41 L1601.12,6060.5 L1577.63,6045.51 L1551.5,6030.11 L1521.87,6014.02 L1487.84,5996.94 L1436.7,5972.81 L1658.69,4407 L2214.03,4407 L2310.03,4407 L2358.03,4407 L2454.03,4407 L2550.03,4407 L2855.7,4407 M2674.29,6378.59 L2656.77,6362.18 M2678.16,6374.45 L2660.65,6358.04 M1831.71,6287.85 L1852.45,6275.78 M2214.03,4407 L2214.03,4431 M2310.03,4407 L2310.03,4431 M2358.03,4407 L2358.03,4431 M2454.03,4407 L2454.03,4431"/>
</g>

<g fill="none" stroke="#000000" stroke-opacity="1" stroke-width="1.51181" stroke-linecap="round" stroke-linejoin="round" transform="matrix(1,0,0,1,0,0)"
font-family="Arial" font-size="10.6667" font-weight="400" font-style="normal" 
>
</g>

<g fill="none" stroke="#000000" stroke-opacity="1" stroke-width="1.51181" stroke-linecap="round" stroke-linejoin="round" transform="matrix(1,0,0,1,0,0)"
font-family="Arial" font-size="10.6667" font-weight="400" font-style="normal" 
>
</g>

<g fill="none" stroke="#000000" stroke-opacity="1" stroke-width="1" stroke-linecap="square" stroke-linejoin="bevel" transform="matrix(1,0,0,1,0,0)"
font-family="Arial" font-size="10.6667" font-weight="400" font-style="normal" 
>
<path vector-effect="none" fill-rule="nonzero" d="M2550.03,4455 L2550.03,5031"/>
</g>

<g fill="none" stroke="#000000" stroke-opacity="1" stroke-width="1.51181" stroke-linecap="round" stroke-linejoin="round" transform="matrix(1,0,0,1,0,0)"
font-family="Arial" font-size="10.6667" font-weight="400" font-style="normal" 
>
</g>

<g fill="none" stroke="#000000" stroke-opacity="1" stroke-width="1.51181" stroke-linecap="round" stroke-linejoin="round" transform="matrix(1,0,0,1,0,0)"
font-family="Arial" font-size="10.6667" font-weight="400" font-style="normal" 
>
</g>

<g fill="#000000" fill-opacity="1" stroke="#000000" stroke-opacity="1" stroke-width="1.51181" stroke-linecap="round" stroke-linejoin="round" transform="matrix(1,0,0,1,0,0)"
font-family="Arial" font-size="10.6667" font-weight="400" font-style="normal" 
>
<path vector-effect="none" fill-rule="evenodd" d="M1904.31,4913.46 L1920.72,4958.57 L1887.89,4958.57 L1904.31,4913.46 L1904.31,5873.46 L1887.89,5828.35 L1920.72,5828.35 L1904.31,5873.46"/>
</g>

<g fill="none" stroke="#000000" stroke-opacity="1" stroke-width="1.51181" stroke-linecap="round" stroke-linejoin="round" transform="matrix(1,0,0,1,0,0)"
font-family="Arial" font-size="10.6667" font-weight="400" font-style="normal" 
>
</g>

<g fill="none" stroke="#000000" stroke-opacity="1" stroke-width="1.51181" stroke-linecap="round" stroke-linejoin="round" transform="matrix(1,0,0,1,0,0)"
font-family="Arial" font-size="10.6667" font-weight="400" font-style="normal" 
>
</g>

<g fill="none" stroke="#000000" stroke-opacity="1" stroke-width="1.51181" stroke-linecap="round" stroke-linejoin="round" transform="matrix(1,0,0,1,0,0)"
font-family="Arial" font-size="10.6667" font-weight="400" font-style="normal" 
>
</g>

<g fill="none" stroke="#000000" stroke-opacity="1" stroke-width="1" stroke-linecap="square" stroke-linejoin="bevel" transform="matrix(1,0,0,1,0,0)"
font-family="Arial" font-size="10.6667" font-weight="400" font-style="normal" 
>
<path vector-effect="none" fill-rule="nonzero" d="M1568.64,8077.14 L1590.08,7934.75 L1501.01,7249.06 L1520.76,7239.98 L1556.18,7222.65 L1587.4,7206.1 L1615.15,7190.12 L1640.2,7174.49 L1663.29,7158.99 L1685.16,7143.39 L1706.56,7127.49 L1717.35,7119.32 L1731,7108.92 L1756.22,7088.94 L1779.32,7069.29 L1795.47,7054.29 L1805.84,7044.02 L1815.94,7033.41 L1825.8,7022.37 L1835.49,7010.82 L1845.07,6998.65 L1854.59,6985.77 L1864.1,6972.1 L1873.66,6957.53 L1883.32,6941.98 L1888.22,6933.76 L1903.46,6907.69 L1925.24,6871.02 L1940.48,6847.27 L1952.91,6829.6 L1961.82,6817.81 L1971.36,6805.94 L1981.63,6793.97 L1992.75,6781.83 L2004.82,6769.49 L2017.94,6756.89 L2032.21,6744 L2039.86,6737.41 L2049.05,6729.74 L2067.27,6716.05 L2085.27,6704.22 L2102.98,6694.11 L2120.34,6685.58 L2137.29,6678.51 L2153.76,6672.76 L2169.71,6668.2 L2185.06,6664.68 L2199.75,6662.09 L2213.73,6660.28 L2226.93,6659.12 L2245.26,6658.27 L2257.03,6658.2 L2266.26,6658.25 L2275.03,6658.36 L2281.31,6658.39 L2297.65,6658.56 L2318.18,6659.6 L2336.2,6661.5 L2349.24,6663.44 L2363.11,6666.05 L2377.75,6669.43 L2393.13,6673.7 L2409.18,6678.96 L2425.87,6685.3 L2443.13,6692.82 L2460.94,6701.64 L2479.22,6711.85 L2488.55,6717.57 L2500.65,6725.15 L2522.08,6738.91 L2541.22,6751.98 L2559.2,6765.47 L2577.19,6780.51 L2596.33,6798.19 L2617.77,6819.63 L2642.67,6845.94 L2656.99,6861.54 L2668.67,6874.51 L2690.85,6900.85 L2722.52,6940.95 L2753.64,6981.5 L2774.96,7008.54 L2797.29,7035.48 L2815.06,7055.53 L2827.45,7068.81 L2833.86,7075.41 L2859.85,7102.25 L2894.44,7138.7 L2916.74,7161.73 L2939.47,7184.16 L2963.61,7206.45 L2983.35,7223.37 L2997.42,7234.83 L3012.41,7246.52 L3028.44,7258.48 L3036.93,7264.6 L2934.01,7948.35 L2952.56,8091.15 L1568.64,8077.14 M3007.27,8139.7 L1512.96,8124.58 L1541.61,7934.25 L1448.86,7220.2 L1500.18,7196.61 L1534.39,7179.88 L1564.18,7164.09 L1590.47,7148.95 L1614.11,7134.2 L1635.97,7119.52 L1656.9,7104.58 L1677.76,7089.08 L1688.32,7081.1 L1701.55,7071.01 L1725.76,7051.84 L1747.42,7033.41 L1762.25,7019.64 L1771.56,7010.42 L1780.64,7000.87 L1789.51,6990.95 L1798.24,6980.55 L1806.9,6969.53 L1815.58,6957.8 L1824.32,6945.22 L1833.2,6931.69 L1842.32,6917.03 L1846.88,6909.37 L1862.1,6883.32 L1884.39,6845.8 L1900.63,6820.48 L1914.12,6801.32 L1923.95,6788.3 L1934.43,6775.27 L1945.72,6762.11 L1957.89,6748.83 L1971.03,6735.39 L1985.22,6721.76 L2000.46,6708 L2008.82,6700.8 L2019.23,6692.11 L2039.65,6676.77 L2060.16,6663.28 L2080.48,6651.68 L2100.5,6641.85 L2120.12,6633.66 L2139.24,6626.99 L2157.74,6621.69 L2175.53,6617.62 L2192.5,6614.63 L2208.55,6612.55 L2223.72,6611.22 L2244,6610.28 L2257.01,6610.2 L2266.7,6610.25 L2275.45,6610.37 L2281.67,6610.4 L2299.1,6610.57 L2321.92,6611.72 L2342.25,6613.87 L2357.2,6616.09 L2372.96,6619.06 L2389.59,6622.91 L2407.02,6627.75 L2425.18,6633.69 L2443.99,6640.84 L2463.39,6649.29 L2483.3,6659.15 L2503.48,6670.42 L2513.84,6676.78 L2526.36,6684.61 L2548.59,6698.89 L2569.17,6712.95 L2589.02,6727.84 L2608.88,6744.44 L2629.59,6763.57 L2652.18,6786.15 L2677.78,6813.21 L2692.51,6829.25 L2704.87,6842.99 L2728.05,6870.5 L2760.39,6911.46 L2791.53,6952.03 L2812.29,6978.37 L2833.74,7004.24 L2850.57,7023.24 L2862.21,7035.71 L2868.32,7041.99 L2894.5,7069.03 L2929.09,7105.48 L2950.84,7127.95 L2972.61,7149.43 L2995.52,7170.58 L3014.13,7186.53 L3027.34,7197.29 L3041.53,7208.35 L3056.83,7219.77 L3088.76,7242.78 L2982.47,7948.84 L3007.27,8139.7 M1846.98,6909.19 L1867.6,6921.48 M2256.74,6610.2 L2256.88,6634.2 M2694.27,6831.17 L2676.59,6847.4 M2690.43,6826.99 L2672.75,6843.22"/>
</g>

<g fill="none" stroke="#000000" stroke-opacity="1" stroke-width="1.51181" stroke-linecap="round" stroke-linejoin="round" transform="matrix(1,0,0,1,0,0)"
font-family="Arial" font-size="10.6667" font-weight="400" font-style="normal" 
>
</g>

<g fill="none" stroke="#000000" stroke-opacity="1" stroke-width="1.51181" stroke-linecap="round" stroke-linejoin="round" transform="matrix(1,0,0,1,0,0)"
font-family="Arial" font-size="10.6667" font-weight="400" font-style="normal" 
>
</g>

<g fill="#000000" fill-opacity="1" stroke="#000000" stroke-opacity="1" stroke-width="1.51181" stroke-linecap="round" stroke-linejoin="round" transform="matrix(1,0,0,1,0,0)"
font-family="Arial" font-size="10.6667" font-weight="400" font-style="normal" 
>
<path vector-effect="none" fill-rule="evenodd" d="M2620.6,7158.87 L2636.56,7204.14 L2603.73,7203.8 L2620.6,7158.87 L2612.83,7926.83 L2596.87,7881.56 L2629.7,7881.89 L2612.83,7926.83"/>
</g>

<g fill="none" stroke="#000000" stroke-opacity="1" stroke-width="1.51181" stroke-linecap="round" stroke-linejoin="round" transform="matrix(1,0,0,1,0,0)"
font-family="Arial" font-size="10.6667" font-weight="400" font-style="normal" 
>
</g>

<g fill="none" stroke="#000000" stroke-opacity="1" stroke-width="1.51181" stroke-linecap="round" stroke-linejoin="round" transform="matrix(1,0,0,1,0,0)"
font-family="Arial" font-size="10.6667" font-weight="400" font-style="normal" 
>
</g>

<g fill="none" stroke="#000000" stroke-opacity="1" stroke-width="1.51181" stroke-linecap="round" stroke-linejoin="round" transform="matrix(1,0,0,1,0,0)"
font-family="Arial" font-size="10.6667" font-weight="400" font-style="normal" 
>
</g>
</g>
</svg>
