<?xml version="1.0" encoding="UTF-8" standalone="no"?>
<svg width="561.446mm" height="2961.22mm"
 viewBox="0 0 2122 11192"
 xmlns="http://www.w3.org/2000/svg" xmlns:xlink="http://www.w3.org/1999/xlink"  version="1.2" baseProfile="tiny">
<title>Pattern</title>
<defs>
</defs>
<g fill="none" stroke="black" stroke-width="1" fill-rule="evenodd" stroke-linecap="square" stroke-linejoin="bevel" >

<g fill="none" stroke="#000000" stroke-opacity="1" stroke-width="1.51181" stroke-linecap="round" stroke-linejoin="round" transform="matrix(1,0,0,1,0,0)"
font-family="Arial" font-size="10.6667" font-weight="400" font-style="normal" 
>
</g>

<g fill="none" stroke="#000000" stroke-opacity="1" stroke-width="1.51181" stroke-linecap="round" stroke-linejoin="round" transform="matrix(1,0,0,1,0,0)"
font-family="Arial" font-size="10.6667" font-weight="400" font-style="normal" 
>
</g>

<g fill="none" stroke="#000000" stroke-opacity="1" stroke-width="1.51181" stroke-linecap="round" stroke-linejoin="round" transform="matrix(1,0,0,1,0,0)"
font-family="Arial" font-size="10.6667" font-weight="400" font-style="normal" 
>
</g>

<g fill="none" stroke="#000000" stroke-opacity="1" stroke-width="1" stroke-linecap="square" stroke-linejoin="bevel" transform="matrix(1,0,0,1,0,0)"
font-family="Arial" font-size="10.6667" font-weight="400" font-style="normal" 
>
<path vector-effect="none" fill-rule="nonzero" d="M2117,192 L2117,3264.57 L2083.24,3264.58 L2020.07,3265.08 L1976.71,3266.34 L1949.67,3267.73 L1924.32,3269.7 L1900.76,3272.35 L1879.09,3275.78 L1859.38,3280.09 L1846.02,3283.99 L1837.73,3286.9 L1829.99,3290.09 L1822.8,3293.56 L1816.18,3297.34 L1810.14,3301.43 L1804.69,3305.85 L1799.84,3310.61 L1795.6,3315.71 L1791.99,3321.19 L1789.02,3327.04 L1786.69,3333.28 L1785.8,3336.57 L1767.36,3430.92 L1129.31,3270.67 L1153.93,3177.87 L1162.81,3142.01 L1178.21,3075.23 L1190.91,3014.77 L1201.09,2961.05 L1208.9,2914.5 L1214.51,2875.55 L1218.09,2844.61 L1219.79,2822.13 L1219.82,2820.57 L1219.93,2814.57 L1220,2810.19 L1220.7,2799.27 L1222.47,2778.64 L1224.28,2752.49 L1225.04,2732.73 L1225.12,2711.15 L1224.26,2687.91 L1222.16,2663.16 L1219.57,2643.66 L1217.34,2630.3 L1214.65,2616.65 L1211.46,2602.73 L1207.75,2588.56 L1203.47,2574.16 L1198.58,2559.55 L1193.07,2544.74 L1186.88,2529.76 L1179.99,2514.63 L1172.36,2499.37 L1163.96,2483.99 L1154.76,2468.52 L1144.71,2452.97 L1139.32,2445.18 L1134.12,2437.97 L1123.38,2425.05 L1112.27,2413.82 L1100.88,2404.14 L1089.29,2395.91 L1077.55,2388.98 L1065.76,2383.25 L1053.97,2378.58 L1042.28,2374.86 L1030.75,2371.96 L1019.46,2369.76 L1008.49,2368.12 L992.71,2366.45 L973.532,2365.15 L965,2364.57 L974,2252.78 L1007.75,1820.11 L1020.41,1651.7 L1030.53,1509.79 L1035.28,1434.74 L1036.86,1402.48 L1037,1393.7 L1036.86,1385.98 L1035.28,1368.42 L1032.32,1347.98 L1028.21,1324.27 L1020.41,1282.3 L1011.02,1229.85 L1004.38,1189.36 L997.625,1143.74 L990.98,1092.62 L984.652,1035.62 L978.852,972.372 L973.789,902.495 L969.676,825.618 L967.382,762.902 L966.235,718.863 L965.444,672.864 L965.035,624.857 L965,600 L965,192 L2117,192 M2117,0 L2117,3288.57 L2083.34,3288.58 L2020.52,3289.08 L1977.67,3290.33 L1951.21,3291.69 L1926.59,3293.6 L1903.98,3296.14 L1883.53,3299.38 L1865.32,3303.36 L1853.36,3306.85 L1846.28,3309.34 L1839.78,3312.01 L1833.98,3314.81 L1828.87,3317.73 L1824.45,3320.72 L1820.68,3323.78 L1817.53,3326.87 L1814.92,3330.02 L1812.77,3333.27 L1811.03,3336.7 L1809.57,3340.62 L1809.19,3342.01 L1781.45,3483.95 L1070.44,3305.38 L1107.43,3165.95 L1116.12,3130.85 L1131.33,3064.9 L1143.84,3005.36 L1153.83,2952.61 L1161.47,2907.1 L1166.9,2869.37 L1170.3,2840.04 L1171.83,2819.88 L1171.94,2813.75 L1172.02,2808.26 L1172.84,2795.68 L1174.62,2774.94 L1176.34,2749.91 L1177.04,2731.71 L1177.12,2711.95 L1176.33,2690.83 L1174.43,2668.35 L1172.09,2650.78 L1170.11,2638.89 L1167.7,2626.65 L1164.84,2614.18 L1161.52,2601.49 L1157.68,2588.61 L1153.32,2575.54 L1148.38,2562.29 L1142.84,2548.88 L1136.67,2535.31 L1129.82,2521.61 L1122.26,2507.78 L1113.96,2493.83 L1104.8,2479.65 L1100.1,2472.86 L1096.16,2467.39 L1087.79,2457.33 L1079.61,2449.05 L1071.4,2442.07 L1063.15,2436.22 L1054.83,2431.31 L1046.4,2427.21 L1037.84,2423.82 L1029.13,2421.05 L1020.29,2418.82 L1011.33,2417.07 L1002.42,2415.75 L988.548,2414.28 L970.278,2413.04 L913.254,2409.16 L926.15,2248.99 L959.89,1816.45 L972.534,1648.19 L982.639,1506.56 L987.352,1432.05 L988.878,1400.92 L988.993,1393.75 L988.899,1388.58 L987.586,1374.01 L984.914,1355.51 L980.967,1332.76 L973.186,1290.92 L963.709,1237.96 L956.947,1196.76 L950.08,1150.35 L943.323,1098.36 L936.895,1040.46 L931.01,976.298 L925.882,905.511 L921.723,827.777 L919.405,764.404 L918.246,719.9 L917.447,673.48 L917.035,625.095 L917,600.034 L917,0 L2117,0 M1171.88,2816.87 L1195.88,2817.3 M1171.78,2822.54 L1195.77,2822.97"/>
</g>

<g fill="none" stroke="#000000" stroke-opacity="1" stroke-width="1.51181" stroke-linecap="round" stroke-linejoin="round" transform="matrix(1,0,0,1,0,0)"
font-family="Arial" font-size="10.6667" font-weight="400" font-style="normal" 
>
</g>

<g fill="none" stroke="#000000" stroke-opacity="1" stroke-width="1.51181" stroke-linecap="round" stroke-linejoin="round" transform="matrix(1,0,0,1,0,0)"
font-family="Arial" font-size="10.6667" font-weight="400" font-style="normal" 
>
</g>

<g fill="#000000" fill-opacity="1" stroke="#000000" stroke-opacity="1" stroke-width="1.51181" stroke-linecap="round" stroke-linejoin="round" transform="matrix(1,0,0,1,0,0)"
font-family="Arial" font-size="10.6667" font-weight="400" font-style="normal" 
>
<path vector-effect="none" fill-rule="evenodd" d="M1839.01,1055.85 L1855.42,1100.95 L1822.59,1100.95 L1839.01,1055.85 L1839,2495.85 L1822.59,2450.74 L1855.42,2450.74 L1839,2495.85"/>
</g>

<g fill="none" stroke="#000000" stroke-opacity="1" stroke-width="1.51181" stroke-linecap="round" stroke-linejoin="round" transform="matrix(1,0,0,1,0,0)"
font-family="Arial" font-size="10.6667" font-weight="400" font-style="normal" 
>
</g>

<g fill="none" stroke="#000000" stroke-opacity="1" stroke-width="1.51181" stroke-linecap="round" stroke-linejoin="round" transform="matrix(1,0,0,1,0,0)"
font-family="Arial" font-size="10.6667" font-weight="400" font-style="normal" 
>
</g>

<g fill="none" stroke="#000000" stroke-opacity="1" stroke-width="1.51181" stroke-linecap="round" stroke-linejoin="round" transform="matrix(1,0,0,1,0,0)"
font-family="Arial" font-size="10.6667" font-weight="400" font-style="normal" 
>
</g>

<g fill="none" stroke="#000000" stroke-opacity="1" stroke-width="1" stroke-linecap="square" stroke-linejoin="bevel" transform="matrix(1,0,0,1,0,0)"
font-family="Arial" font-size="10.6667" font-weight="400" font-style="normal" 
>
<path vector-effect="none" fill-rule="nonzero" d="M1731.32,3553.32 L1731.32,3817.32 L1731.32,4081.32 L812.522,4081.32 L812.522,3817.32 L812.522,3553.32 L1731.32,3553.32 M1779.32,3505.32 L1779.32,3817.32 L1779.32,4129.32 L764.522,4129.32 L764.522,3817.32 L764.522,3505.32 L1779.32,3505.32"/>
</g>

<g fill="none" stroke="#000000" stroke-opacity="1" stroke-width="1.51181" stroke-linecap="round" stroke-linejoin="round" transform="matrix(1,0,0,1,0,0)"
font-family="Arial" font-size="10.6667" font-weight="400" font-style="normal" 
>
</g>

<g fill="none" stroke="#000000" stroke-opacity="1" stroke-width="1.51181" stroke-linecap="round" stroke-linejoin="round" transform="matrix(1,0,0,1,0,0)"
font-family="Arial" font-size="10.6667" font-weight="400" font-style="normal" 
>
</g>

<g fill="none" stroke="#000000" stroke-opacity="1" stroke-width="1" stroke-linecap="square" stroke-linejoin="bevel" transform="matrix(1,0,0,1,0,0)"
font-family="Arial" font-size="10.6667" font-weight="400" font-style="normal" 
>
<path vector-effect="none" fill-rule="nonzero" d="M1731.32,3817.32 L812.522,3817.32"/>
</g>

<g fill="none" stroke="#000000" stroke-opacity="1" stroke-width="1.51181" stroke-linecap="round" stroke-linejoin="round" transform="matrix(1,0,0,1,0,0)"
font-family="Arial" font-size="10.6667" font-weight="400" font-style="normal" 
>
</g>

<g fill="none" stroke="#000000" stroke-opacity="1" stroke-width="1.51181" stroke-linecap="round" stroke-linejoin="round" transform="matrix(1,0,0,1,0,0)"
font-family="Arial" font-size="10.6667" font-weight="400" font-style="normal" 
>
</g>

<g fill="#000000" fill-opacity="1" stroke="#000000" stroke-opacity="1" stroke-width="1.51181" stroke-linecap="round" stroke-linejoin="round" transform="matrix(1,0,0,1,0,0)"
font-family="Arial" font-size="10.6667" font-weight="400" font-style="normal" 
>
<path vector-effect="none" fill-rule="evenodd" d="M1559.52,3969.25 L1514.42,3985.67 L1514.42,3952.84 L1559.52,3969.25 L1079.52,3969.25 L1124.63,3952.84 L1124.63,3985.67 L1079.52,3969.25"/>
</g>

<g fill="none" stroke="#000000" stroke-opacity="1" stroke-width="1.51181" stroke-linecap="round" stroke-linejoin="round" transform="matrix(1,0,0,1,0,0)"
font-family="Arial" font-size="10.6667" font-weight="400" font-style="normal" 
>
</g>

<g fill="none" stroke="#000000" stroke-opacity="1" stroke-width="1.51181" stroke-linecap="round" stroke-linejoin="round" transform="matrix(1,0,0,1,0,0)"
font-family="Arial" font-size="10.6667" font-weight="400" font-style="normal" 
>
</g>

<g fill="none" stroke="#000000" stroke-opacity="1" stroke-width="1.51181" stroke-linecap="round" stroke-linejoin="round" transform="matrix(1,0,0,1,0,0)"
font-family="Arial" font-size="10.6667" font-weight="400" font-style="normal" 
>
</g>

<g fill="none" stroke="#000000" stroke-opacity="1" stroke-width="1" stroke-linecap="square" stroke-linejoin="bevel" transform="matrix(1,0,0,1,0,0)"
font-family="Arial" font-size="10.6667" font-weight="400" font-style="normal" 
>
<path vector-effect="none" fill-rule="evenodd" d="M1008.59,2437.8 L1008.59,3073.8 L972.594,3073.8 L894.594,3073.8 L816.594,3073.8 L780.594,3073.8 L780.594,2437.8 L816.594,2437.8 L894.594,2437.8 L972.594,2437.8 L1008.59,2437.8"/>
</g>

<g fill="none" stroke="#000000" stroke-opacity="1" stroke-width="1.51181" stroke-linecap="round" stroke-linejoin="round" transform="matrix(1,0,0,1,0,0)"
font-family="Arial" font-size="10.6667" font-weight="400" font-style="normal" 
>
</g>

<g fill="none" stroke="#000000" stroke-opacity="1" stroke-width="1.51181" stroke-linecap="round" stroke-linejoin="round" transform="matrix(1,0,0,1,0,0)"
font-family="Arial" font-size="10.6667" font-weight="400" font-style="normal" 
>
</g>

<g fill="none" stroke="#000000" stroke-opacity="1" stroke-width="1" stroke-linecap="square" stroke-linejoin="bevel" transform="matrix(1,0,0,1,0,0)"
font-family="Arial" font-size="10.6667" font-weight="400" font-style="normal" 
>
<path vector-effect="none" fill-rule="nonzero" d="M894.594,2437.8 L894.594,3073.8"/>
</g>

<g fill="none" stroke="#000000" stroke-opacity="1" stroke-width="1.51181" stroke-linecap="round" stroke-linejoin="round" transform="matrix(1,0,0,1,0,0)"
font-family="Arial" font-size="10.6667" font-weight="400" font-style="normal" 
>
</g>

<g fill="none" stroke="#000000" stroke-opacity="1" stroke-width="1.51181" stroke-linecap="round" stroke-linejoin="round" transform="matrix(1,0,0,1,0,0)"
font-family="Arial" font-size="10.6667" font-weight="400" font-style="normal" 
>
</g>

<g fill="none" stroke="#000000" stroke-opacity="1" stroke-width="1" stroke-linecap="square" stroke-linejoin="bevel" transform="matrix(1,0,0,1,0,0)"
font-family="Arial" font-size="10.6667" font-weight="400" font-style="normal" 
>
<path vector-effect="none" fill-rule="nonzero" d="M972.594,2437.8 L972.594,3073.8"/>
</g>

<g fill="none" stroke="#000000" stroke-opacity="1" stroke-width="1.51181" stroke-linecap="round" stroke-linejoin="round" transform="matrix(1,0,0,1,0,0)"
font-family="Arial" font-size="10.6667" font-weight="400" font-style="normal" 
>
</g>

<g fill="none" stroke="#000000" stroke-opacity="1" stroke-width="1.51181" stroke-linecap="round" stroke-linejoin="round" transform="matrix(1,0,0,1,0,0)"
font-family="Arial" font-size="10.6667" font-weight="400" font-style="normal" 
>
</g>

<g fill="none" stroke="#000000" stroke-opacity="1" stroke-width="1" stroke-linecap="square" stroke-linejoin="bevel" transform="matrix(1,0,0,1,0,0)"
font-family="Arial" font-size="10.6667" font-weight="400" font-style="normal" 
>
<path vector-effect="none" fill-rule="nonzero" d="M816.594,2437.8 L816.594,3073.8"/>
</g>

<g fill="none" stroke="#000000" stroke-opacity="1" stroke-width="1.51181" stroke-linecap="round" stroke-linejoin="round" transform="matrix(1,0,0,1,0,0)"
font-family="Arial" font-size="10.6667" font-weight="400" font-style="normal" 
>
</g>

<g fill="none" stroke="#000000" stroke-opacity="1" stroke-width="1.51181" stroke-linecap="round" stroke-linejoin="round" transform="matrix(1,0,0,1,0,0)"
font-family="Arial" font-size="10.6667" font-weight="400" font-style="normal" 
>
</g>

<g fill="none" stroke="#000000" stroke-opacity="1" stroke-width="1" stroke-linecap="square" stroke-linejoin="bevel" transform="matrix(1,0,0,1,0,0)"
font-family="Arial" font-size="10.6667" font-weight="400" font-style="normal" 
>
<path vector-effect="none" fill-rule="evenodd" d="M2056.15,3353.79 L2056.15,3905.79 L2020.15,3905.79 L1984.15,3905.79 L1984.15,3965.79 L1906.15,4001.79 L1864.15,3982.4 L1828.15,3965.79 L1828.15,3353.79 L1864.15,3353.79 L1942.15,3353.79 L2020.15,3353.79 L2056.15,3353.79"/>
</g>

<g fill="none" stroke="#000000" stroke-opacity="1" stroke-width="1.51181" stroke-linecap="round" stroke-linejoin="round" transform="matrix(1,0,0,1,0,0)"
font-family="Arial" font-size="10.6667" font-weight="400" font-style="normal" 
>
</g>

<g fill="none" stroke="#000000" stroke-opacity="1" stroke-width="1.51181" stroke-linecap="round" stroke-linejoin="round" transform="matrix(1,0,0,1,0,0)"
font-family="Arial" font-size="10.6667" font-weight="400" font-style="normal" 
>
</g>

<g fill="none" stroke="#000000" stroke-opacity="1" stroke-width="1" stroke-linecap="square" stroke-linejoin="bevel" transform="matrix(1,0,0,1,0,0)"
font-family="Arial" font-size="10.6667" font-weight="400" font-style="normal" 
>
<path vector-effect="none" fill-rule="nonzero" d="M2020.15,3353.79 L2020.15,3905.79"/>
</g>

<g fill="none" stroke="#000000" stroke-opacity="1" stroke-width="1.51181" stroke-linecap="round" stroke-linejoin="round" transform="matrix(1,0,0,1,0,0)"
font-family="Arial" font-size="10.6667" font-weight="400" font-style="normal" 
>
</g>

<g fill="none" stroke="#000000" stroke-opacity="1" stroke-width="1.51181" stroke-linecap="round" stroke-linejoin="round" transform="matrix(1,0,0,1,0,0)"
font-family="Arial" font-size="10.6667" font-weight="400" font-style="normal" 
>
</g>

<g fill="none" stroke="#000000" stroke-opacity="1" stroke-width="1" stroke-linecap="square" stroke-linejoin="bevel" transform="matrix(1,0,0,1,0,0)"
font-family="Arial" font-size="10.6667" font-weight="400" font-style="normal" 
>
<path vector-effect="none" fill-rule="nonzero" d="M1864.15,3353.79 L1864.15,3982.4"/>
</g>

<g fill="none" stroke="#000000" stroke-opacity="1" stroke-width="1.51181" stroke-linecap="round" stroke-linejoin="round" transform="matrix(1,0,0,1,0,0)"
font-family="Arial" font-size="10.6667" font-weight="400" font-style="normal" 
>
</g>

<g fill="none" stroke="#000000" stroke-opacity="1" stroke-width="1.51181" stroke-linecap="round" stroke-linejoin="round" transform="matrix(1,0,0,1,0,0)"
font-family="Arial" font-size="10.6667" font-weight="400" font-style="normal" 
>
</g>

<g fill="none" stroke="#000000" stroke-opacity="1" stroke-width="1" stroke-linecap="square" stroke-linejoin="bevel" transform="matrix(1,0,0,1,0,0)"
font-family="Arial" font-size="10.6667" font-weight="400" font-style="normal" 
>
<path vector-effect="none" fill-rule="nonzero" d="M1942.15,3353.79 L1942.15,3985.17"/>
</g>

<g fill="none" stroke="#000000" stroke-opacity="1" stroke-width="1.51181" stroke-linecap="round" stroke-linejoin="round" transform="matrix(1,0,0,1,0,0)"
font-family="Arial" font-size="10.6667" font-weight="400" font-style="normal" 
>
</g>

<g fill="none" stroke="#000000" stroke-opacity="1" stroke-width="1.51181" stroke-linecap="round" stroke-linejoin="round" transform="matrix(1,0,0,1,0,0)"
font-family="Arial" font-size="10.6667" font-weight="400" font-style="normal" 
>
</g>

<g fill="none" stroke="#000000" stroke-opacity="1" stroke-width="1" stroke-linecap="square" stroke-linejoin="bevel" transform="matrix(1,0,0,1,0,0)"
font-family="Arial" font-size="10.6667" font-weight="400" font-style="normal" 
>
<path vector-effect="none" fill-rule="nonzero" d="M2117,4340 L2117,7135.37 L2108.04,7135.45 L2090.6,7136.45 L2073.72,7138.41 L2057.39,7141.3 L2041.59,7145.1 L2026.33,7149.77 L2011.59,7155.28 L1997.37,7161.6 L1983.65,7168.7 L1970.42,7176.55 L1957.69,7185.12 L1945.43,7194.37 L1933.65,7204.28 L1922.33,7214.82 L1911.47,7225.95 L1901.04,7237.64 L1891.06,7249.87 L1881.51,7262.6 L1872.37,7275.8 L1863.65,7289.45 L1855.32,7303.5 L1847.4,7317.93 L1839.85,7332.71 L1832.69,7347.8 L1825.89,7363.18 L1819.46,7378.82 L1814.13,7392.7 L1176.08,7232.45 L1178.21,7223.23 L1190.91,7162.77 L1201.09,7109.05 L1208.9,7062.5 L1214.51,7023.55 L1218.09,6992.61 L1219.79,6970.13 L1219.93,6962.57 L1220,6958.19 L1220.7,6947.27 L1222.47,6926.64 L1224.28,6900.49 L1225.04,6880.73 L1225.12,6859.15 L1224.26,6835.91 L1222.28,6812.57 L1222.16,6811.16 L1219.57,6791.66 L1217.34,6778.3 L1214.65,6764.65 L1211.46,6750.73 L1207.75,6736.56 L1203.47,6722.16 L1198.58,6707.55 L1193.07,6692.74 L1186.88,6677.76 L1179.99,6662.63 L1172.36,6647.37 L1163.96,6631.99 L1154.76,6616.52 L1144.71,6600.97 L1139.32,6593.18 L1134.12,6585.97 L1123.38,6573.05 L1112.27,6561.82 L1100.88,6552.14 L1089.29,6543.91 L1077.55,6536.98 L1065.76,6531.25 L1053.97,6526.58 L1042.28,6522.86 L1030.75,6519.96 L1019.46,6517.76 L1008.49,6516.12 L992.71,6514.45 L973.532,6513.15 L965,6512.57 L974,6400.78 L1007.75,5968.11 L1020.41,5799.7 L1030.53,5657.79 L1035.28,5582.74 L1036.86,5550.48 L1037,5541.7 L1036.86,5533.98 L1035.28,5516.42 L1032.32,5495.98 L1028.21,5472.27 L1020.41,5430.3 L1011.02,5377.85 L1004.38,5337.36 L997.625,5291.74 L990.98,5240.62 L984.652,5183.62 L978.852,5120.37 L973.789,5050.49 L969.676,4973.62 L967.382,4910.9 L966.235,4866.86 L965.444,4820.86 L965.035,4772.86 L965,4748 L965,4340 L2117,4340 M2117,4148 L2117,7159.37 L2108.84,7159.44 L2092.67,7160.37 L2077.2,7162.16 L2062.29,7164.81 L2047.92,7168.26 L2034.05,7172.5 L2020.67,7177.5 L2007.76,7183.24 L1995.3,7189.69 L1983.26,7196.84 L1971.63,7204.66 L1960.4,7213.14 L1949.56,7222.26 L1939.1,7231.99 L1929.02,7242.32 L1919.31,7253.22 L1909.96,7264.67 L1900.98,7276.64 L1892.35,7289.1 L1884.09,7302.03 L1876.17,7315.39 L1868.61,7329.16 L1861.39,7343.31 L1854.51,7357.8 L1847.97,7372.6 L1841.76,7387.69 L1820.24,7443.72 L1118.73,7267.54 L1131.33,7212.9 L1143.84,7153.36 L1153.83,7100.61 L1161.47,7055.1 L1166.9,7017.37 L1170.3,6988.04 L1171.83,6967.88 L1171.94,6961.75 L1172.02,6956.26 L1172.84,6943.68 L1174.62,6922.94 L1176.34,6897.91 L1177.04,6879.71 L1177.12,6859.95 L1176.33,6838.83 L1174.45,6816.62 L1172.09,6798.78 L1170.11,6786.89 L1167.7,6774.65 L1164.84,6762.18 L1161.52,6749.49 L1157.68,6736.61 L1153.32,6723.54 L1148.38,6710.29 L1142.84,6696.88 L1136.67,6683.31 L1129.82,6669.61 L1122.26,6655.78 L1113.96,6641.83 L1104.8,6627.65 L1100.1,6620.86 L1096.16,6615.39 L1087.79,6605.33 L1079.61,6597.05 L1071.4,6590.07 L1063.15,6584.22 L1054.83,6579.31 L1046.4,6575.21 L1037.84,6571.82 L1029.13,6569.05 L1020.29,6566.82 L1011.33,6565.07 L1002.42,6563.75 L988.548,6562.28 L970.278,6561.04 L913.254,6557.16 L926.15,6396.99 L959.89,5964.45 L972.534,5796.19 L982.639,5654.56 L987.352,5580.05 L988.878,5548.92 L988.993,5541.75 L988.899,5536.58 L987.586,5522.01 L984.914,5503.51 L980.967,5480.76 L973.186,5438.92 L963.709,5385.96 L956.947,5344.76 L950.08,5298.35 L943.323,5246.36 L936.895,5188.46 L931.01,5124.3 L925.882,5053.51 L921.723,4975.78 L919.405,4912.4 L918.246,4867.9 L917.447,4821.48 L917.035,4773.1 L917,4748.03 L917,4148 L2117,4148 M1174.45,6816.62 L1198.37,6814.59"/>
</g>

<g fill="none" stroke="#000000" stroke-opacity="1" stroke-width="1.51181" stroke-linecap="round" stroke-linejoin="round" transform="matrix(1,0,0,1,0,0)"
font-family="Arial" font-size="10.6667" font-weight="400" font-style="normal" 
>
</g>

<g fill="none" stroke="#000000" stroke-opacity="1" stroke-width="1.51181" stroke-linecap="round" stroke-linejoin="round" transform="matrix(1,0,0,1,0,0)"
font-family="Arial" font-size="10.6667" font-weight="400" font-style="normal" 
>
</g>

<g fill="#000000" fill-opacity="1" stroke="#000000" stroke-opacity="1" stroke-width="1.51181" stroke-linecap="round" stroke-linejoin="round" transform="matrix(1,0,0,1,0,0)"
font-family="Arial" font-size="10.6667" font-weight="400" font-style="normal" 
>
<path vector-effect="none" fill-rule="evenodd" d="M1832.37,5077.36 L1848.78,5122.46 L1815.95,5122.46 L1832.37,5077.36 L1832.37,6517.36 L1815.95,6472.25 L1848.78,6472.25 L1832.37,6517.36"/>
</g>

<g fill="none" stroke="#000000" stroke-opacity="1" stroke-width="1.51181" stroke-linecap="round" stroke-linejoin="round" transform="matrix(1,0,0,1,0,0)"
font-family="Arial" font-size="10.6667" font-weight="400" font-style="normal" 
>
</g>

<g fill="none" stroke="#000000" stroke-opacity="1" stroke-width="1.51181" stroke-linecap="round" stroke-linejoin="round" transform="matrix(1,0,0,1,0,0)"
font-family="Arial" font-size="10.6667" font-weight="400" font-style="normal" 
>
</g>

<g fill="none" stroke="#000000" stroke-opacity="1" stroke-width="1.51181" stroke-linecap="round" stroke-linejoin="round" transform="matrix(1,0,0,1,0,0)"
font-family="Arial" font-size="10.6667" font-weight="400" font-style="normal" 
>
</g>

<g fill="none" stroke="#000000" stroke-opacity="1" stroke-width="1" stroke-linecap="square" stroke-linejoin="bevel" transform="matrix(1,0,0,1,0,0)"
font-family="Arial" font-size="10.6667" font-weight="400" font-style="normal" 
>
<path vector-effect="none" fill-rule="nonzero" d="M1651.93,7511 L1863.1,9000.51 L1854.54,9006.54 L1838.39,9018.34 L1823.29,9029.87 L1809.1,9041.2 L1789.19,9057.91 L1764.82,9079.96 L1741.87,9102.16 L1719.33,9124.96 L1684.38,9161.06 L1658.12,9187.63 L1651.64,9194.16 L1639.12,9207.31 L1621.15,9227.19 L1598.54,9253.9 L1576.95,9280.73 L1545.42,9320.96 L1513.35,9360.74 L1490.9,9386.84 L1479.1,9399.7 L1464.62,9415.16 L1439.45,9441.21 L1417.79,9462.44 L1398.47,9479.92 L1380.34,9494.77 L1362.22,9508.08 L1342.95,9520.96 L1321.39,9534.5 L1309.21,9541.96 L1299.82,9547.58 L1281.43,9557.61 L1263.54,9566.24 L1246.2,9573.6 L1229.45,9579.77 L1213.34,9584.86 L1197.93,9588.97 L1183.25,9592.21 L1169.36,9594.68 L1156.3,9596.48 L1138.26,9598.21 L1117.72,9599.03 L1101.38,9599.03 L1095.1,9599 L1077.1,9598.98 L1065.33,9598.79 L1047.01,9597.75 L1033.82,9596.46 L1019.86,9594.51 L1005.19,9591.77 L989.881,9588.1 L973.985,9583.38 L957.567,9577.46 L940.691,9570.22 L923.418,9561.52 L905.813,9551.23 L887.936,9539.21 L869.851,9525.34 L860.745,9517.58 L853.157,9510.91 L839.017,9497.88 L826.028,9485.15 L814.087,9472.68 L803.09,9460.44 L792.934,9448.36 L783.515,9436.4 L774.732,9424.51 L762.473,9406.72 L747.476,9382.82 L726.067,9345.93 L711.096,9319.7 L706.282,9311.43 L696.774,9295.79 L687.362,9281.12 L677.99,9267.35 L668.604,9254.38 L659.15,9242.12 L649.575,9230.46 L639.822,9219.33 L629.84,9208.62 L619.572,9198.24 L603.569,9183.08 L580.673,9163.2 L555.659,9142.96 L542.108,9132.42 L531.404,9124.15 L510.163,9108.03 L488.452,9092.21 L465.526,9076.48 L440.638,9060.59 L413.043,9044.33 L381.995,9027.47 L346.748,9009.78 L327.096,9000.51 L538.266,7511 L1051.93,7511 L1147.93,7511 L1195.93,7511 L1291.93,7511 L1387.93,7511 L1651.93,7511 M1693.6,7463 L1914.74,9022.82 L1882.54,9045.53 L1867.12,9056.8 L1852.83,9067.71 L1839.51,9078.34 L1820.74,9094.1 L1797.62,9115.02 L1775.63,9136.28 L1753.65,9158.53 L1718.7,9194.62 L1692.24,9221.4 L1686.07,9227.61 L1674.3,9239.97 L1657.27,9258.8 L1635.57,9284.45 L1614.54,9310.58 L1583,9350.83 L1550.24,9391.46 L1526.79,9418.73 L1514.29,9432.34 L1499.4,9448.24 L1473.52,9475.04 L1450.71,9497.39 L1429.8,9516.31 L1409.77,9532.71 L1389.78,9547.4 L1369.06,9561.25 L1346.68,9575.3 L1334.08,9583.01 L1323.66,9589.26 L1303.37,9600.32 L1283.35,9609.98 L1263.87,9618.24 L1244.99,9625.19 L1226.77,9630.95 L1209.29,9635.62 L1192.63,9639.3 L1176.84,9642.1 L1161.87,9644.17 L1141.51,9646.11 L1118.69,9647.03 L1101.25,9647.03 L1094.94,9647 L1076.68,9646.98 L1063.58,9646.77 L1043.31,9645.62 L1028.16,9644.14 L1012.13,9641.9 L995.189,9638.73 L977.445,9634.48 L958.997,9629 L939.95,9622.13 L920.412,9613.75 L900.489,9603.72 L880.288,9591.91 L859.913,9578.21 L839.655,9562.67 L829.336,9553.88 L821.044,9546.59 L805.944,9532.67 L791.893,9518.9 L778.89,9505.33 L766.852,9491.92 L755.698,9478.66 L745.349,9465.52 L735.656,9452.4 L722.362,9433.1 L706.376,9407.63 L684.466,9369.87 L669.51,9343.68 L665.026,9335.97 L656.061,9321.22 L647.317,9307.6 L638.697,9294.93 L630.142,9283.11 L621.588,9272.01 L612.967,9261.52 L604.203,9251.51 L595.215,9241.87 L585.996,9232.55 L571.312,9218.64 L549.834,9199.99 L525.826,9180.57 L512.696,9170.35 L502.219,9162.26 L481.52,9146.55 L460.733,9131.41 L439.023,9116.5 L415.533,9101.51 L389.398,9086.11 L359.771,9070.02 L325.739,9052.94 L274.603,9028.81 L496.591,7463 L1051.93,7463 L1147.93,7463 L1195.93,7463 L1291.93,7463 L1387.93,7463 L1693.6,7463 M1512.19,9434.59 L1494.67,9418.18 M1516.06,9430.45 L1498.55,9414.04 M669.612,9343.85 L690.354,9331.78 M1051.93,7463 L1051.93,7487 M1147.93,7463 L1147.93,7487 M1195.93,7463 L1195.93,7487 M1291.93,7463 L1291.93,7487"/>
</g>

<g fill="none" stroke="#000000" stroke-opacity="1" stroke-width="1.51181" stroke-linecap="round" stroke-linejoin="round" transform="matrix(1,0,0,1,0,0)"
font-family="Arial" font-size="10.6667" font-weight="400" font-style="normal" 
>
</g>

<g fill="none" stroke="#000000" stroke-opacity="1" stroke-width="1.51181" stroke-linecap="round" stroke-linejoin="round" transform="matrix(1,0,0,1,0,0)"
font-family="Arial" font-size="10.6667" font-weight="400" font-style="normal" 
>
</g>

<g fill="none" stroke="#000000" stroke-opacity="1" stroke-width="1" stroke-linecap="square" stroke-linejoin="bevel" transform="matrix(1,0,0,1,0,0)"
font-family="Arial" font-size="10.6667" font-weight="400" font-style="normal" 
>
<path vector-effect="none" fill-rule="nonzero" d="M1387.93,7511 L1387.93,8087"/>
</g>

<g fill="none" stroke="#000000" stroke-opacity="1" stroke-width="1.51181" stroke-linecap="round" stroke-linejoin="round" transform="matrix(1,0,0,1,0,0)"
font-family="Arial" font-size="10.6667" font-weight="400" font-style="normal" 
>
</g>

<g fill="none" stroke="#000000" stroke-opacity="1" stroke-width="1.51181" stroke-linecap="round" stroke-linejoin="round" transform="matrix(1,0,0,1,0,0)"
font-family="Arial" font-size="10.6667" font-weight="400" font-style="normal" 
>
</g>

<g fill="#000000" fill-opacity="1" stroke="#000000" stroke-opacity="1" stroke-width="1.51181" stroke-linecap="round" stroke-linejoin="round" transform="matrix(1,0,0,1,0,0)"
font-family="Arial" font-size="10.6667" font-weight="400" font-style="normal" 
>
<path vector-effect="none" fill-rule="evenodd" d="M742.206,7969.46 L758.623,8014.57 L725.789,8014.57 L742.206,7969.46 L742.206,8929.46 L725.789,8884.35 L758.623,8884.35 L742.206,8929.46"/>
</g>

<g fill="none" stroke="#000000" stroke-opacity="1" stroke-width="1.51181" stroke-linecap="round" stroke-linejoin="round" transform="matrix(1,0,0,1,0,0)"
font-family="Arial" font-size="10.6667" font-weight="400" font-style="normal" 
>
</g>

<g fill="none" stroke="#000000" stroke-opacity="1" stroke-width="1.51181" stroke-linecap="round" stroke-linejoin="round" transform="matrix(1,0,0,1,0,0)"
font-family="Arial" font-size="10.6667" font-weight="400" font-style="normal" 
>
</g>

<g fill="none" stroke="#000000" stroke-opacity="1" stroke-width="1.51181" stroke-linecap="round" stroke-linejoin="round" transform="matrix(1,0,0,1,0,0)"
font-family="Arial" font-size="10.6667" font-weight="400" font-style="normal" 
>
</g>

<g fill="none" stroke="#000000" stroke-opacity="1" stroke-width="1" stroke-linecap="square" stroke-linejoin="bevel" transform="matrix(1,0,0,1,0,0)"
font-family="Arial" font-size="10.6667" font-weight="400" font-style="normal" 
>
<path vector-effect="none" fill-rule="nonzero" d="M394.74,11136.1 L415.547,10993.7 L323.463,10308.4 L343.169,10299.2 L378.516,10281.7 L409.66,10265 L437.347,10248.9 L462.325,10233.2 L485.341,10217.6 L507.142,10201.9 L528.475,10185.9 L539.226,10177.7 L552.838,10167.2 L577.966,10147.1 L600.976,10127.4 L617.065,10112.3 L627.392,10102 L637.436,10091.3 L647.251,10080.3 L656.894,10068.7 L666.417,10056.4 L675.877,10043.5 L685.327,10029.8 L694.824,10015.2 L704.421,9999.6 L709.282,9991.36 L724.403,9965.22 L746.022,9928.46 L761.156,9904.64 L773.516,9886.92 L782.367,9875.09 L791.854,9863.18 L802.079,9851.16 L813.146,9838.97 L825.158,9826.58 L838.22,9813.93 L852.434,9800.97 L860.06,9794.35 L869.21,9786.64 L887.374,9772.87 L905.319,9760.95 L922.983,9750.76 L940.305,9742.16 L957.222,9735.02 L973.674,9729.2 L989.597,9724.56 L1004.93,9720.98 L1019.61,9718.32 L1033.58,9716.45 L1046.78,9715.24 L1065.1,9714.3 L1076.87,9714.18 L1086.1,9714.19 L1094.87,9714.27 L1101.15,9714.27 L1117.5,9714.36 L1138.03,9715.31 L1156.06,9717.13 L1169.11,9719.01 L1182.99,9721.56 L1197.64,9724.88 L1213.04,9729.09 L1229.11,9734.27 L1245.83,9740.53 L1263.13,9747.98 L1280.97,9756.72 L1299.3,9766.85 L1308.65,9772.53 L1320.79,9780.06 L1342.28,9793.72 L1361.47,9806.71 L1379.51,9820.12 L1397.56,9835.08 L1416.78,9852.67 L1438.32,9874.02 L1463.34,9900.22 L1477.73,9915.75 L1489.46,9928.68 L1511.76,9954.92 L1543.6,9994.88 L1574.9,10035.3 L1596.34,10062.2 L1618.79,10089.1 L1636.65,10109.1 L1649.1,10122.3 L1655.54,10128.9 L1681.65,10155.6 L1716.39,10191.9 L1738.79,10214.8 L1761.62,10237.1 L1785.86,10259.3 L1805.68,10276.1 L1819.8,10287.5 L1834.84,10299.2 L1850.92,10311.1 L1859.44,10317.1 L1759.53,11001.3 L1778.7,11144.1 L394.74,11136.1 M1833.63,11192.4 L339.267,11183.8 L367.079,10993.4 L271.185,10279.7 L322.406,10255.9 L356.535,10239 L386.254,10223.1 L412.477,10207.9 L436.052,10193 L457.846,10178.2 L478.72,10163.2 L499.509,10147.6 L510.031,10139.6 L523.22,10129.4 L547.338,10110.2 L568.923,10091.6 L583.686,10077.8 L592.958,10068.5 L602.001,10058.9 L610.822,10049 L619.503,10038.5 L628.12,10027.5 L636.742,10015.7 L645.435,10003.1 L654.257,9989.53 L663.306,9974.83 L667.834,9967.15 L682.94,9941.04 L705.065,9903.41 L721.196,9878.03 L734.6,9858.81 L744.368,9845.75 L754.792,9832.67 L766.021,9819.46 L778.136,9806.13 L791.217,9792.63 L805.346,9778.94 L820.525,9765.11 L828.858,9757.87 L839.228,9749.13 L859.574,9733.71 L880.027,9720.13 L900.295,9708.44 L920.275,9698.52 L939.862,9690.25 L958.947,9683.49 L977.426,9678.11 L995.194,9673.96 L1012.15,9670.9 L1028.19,9668.75 L1043.36,9667.35 L1063.63,9666.32 L1076.65,9666.18 L1086.33,9666.19 L1095.08,9666.27 L1101.3,9666.27 L1118.74,9666.37 L1141.56,9667.42 L1161.9,9669.48 L1176.86,9671.63 L1192.63,9674.53 L1209.28,9678.3 L1226.73,9683.07 L1244.91,9688.93 L1263.75,9695.99 L1283.19,9704.36 L1303.15,9714.14 L1323.38,9725.32 L1333.76,9731.62 L1346.32,9739.41 L1368.61,9753.58 L1389.26,9767.55 L1409.16,9782.36 L1429.1,9798.87 L1449.9,9817.91 L1472.58,9840.39 L1498.31,9867.33 L1513.11,9883.31 L1525.53,9897 L1548.83,9924.41 L1581.35,9965.22 L1612.66,10005.7 L1633.54,10031.9 L1655.1,10057.7 L1672.02,10076.6 L1683.71,10089 L1689.84,10095.3 L1716.15,10122.2 L1750.9,10158.5 L1772.75,10180.9 L1794.61,10202.3 L1817.61,10223.3 L1836.3,10239.2 L1849.55,10249.9 L1863.79,10260.9 L1879.13,10272.2 L1911.17,10295.1 L1807.99,11001.6 L1833.63,11192.4 M667.937,9966.98 L688.609,9979.17 M1076.37,9666.18 L1076.62,9690.18 M1514.87,9885.22 L1497.26,9901.53 M1511.02,9881.06 L1493.41,9897.37"/>
</g>

<g fill="none" stroke="#000000" stroke-opacity="1" stroke-width="1.51181" stroke-linecap="round" stroke-linejoin="round" transform="matrix(1,0,0,1,0,0)"
font-family="Arial" font-size="10.6667" font-weight="400" font-style="normal" 
>
</g>

<g fill="none" stroke="#000000" stroke-opacity="1" stroke-width="1.51181" stroke-linecap="round" stroke-linejoin="round" transform="matrix(1,0,0,1,0,0)"
font-family="Arial" font-size="10.6667" font-weight="400" font-style="normal" 
>
</g>

<g fill="#000000" fill-opacity="1" stroke="#000000" stroke-opacity="1" stroke-width="1.51181" stroke-linecap="round" stroke-linejoin="round" transform="matrix(1,0,0,1,0,0)"
font-family="Arial" font-size="10.6667" font-weight="400" font-style="normal" 
>
<path vector-effect="none" fill-rule="evenodd" d="M1442.65,10213.2 L1458.8,10258.4 L1425.97,10258.3 L1442.65,10213.2 L1438.26,10981.2 L1422.1,10936 L1454.93,10936.2 L1438.26,10981.2"/>
</g>

<g fill="none" stroke="#000000" stroke-opacity="1" stroke-width="1.51181" stroke-linecap="round" stroke-linejoin="round" transform="matrix(1,0,0,1,0,0)"
font-family="Arial" font-size="10.6667" font-weight="400" font-style="normal" 
>
</g>

<g fill="none" stroke="#000000" stroke-opacity="1" stroke-width="1.51181" stroke-linecap="round" stroke-linejoin="round" transform="matrix(1,0,0,1,0,0)"
font-family="Arial" font-size="10.6667" font-weight="400" font-style="normal" 
>
</g>

<g fill="none" stroke="#000000" stroke-opacity="1" stroke-width="1.51181" stroke-linecap="round" stroke-linejoin="round" transform="matrix(1,0,0,1,0,0)"
font-family="Arial" font-size="10.6667" font-weight="400" font-style="normal" 
>
</g>
</g>
</svg>
