<?xml version="1.0" encoding="UTF-8" standalone="no"?>
<svg width="561.446mm" height="841.904mm"
 viewBox="0 0 2122 3182"
 xmlns="http://www.w3.org/2000/svg" xmlns:xlink="http://www.w3.org/1999/xlink"  version="1.2" baseProfile="tiny">
<title>Pattern</title>
<defs>
</defs>
<g fill="none" stroke="black" stroke-width="1" fill-rule="evenodd" stroke-linecap="square" stroke-linejoin="bevel" >

<g fill="none" stroke="#000000" stroke-opacity="1" stroke-width="1.51181" stroke-linecap="round" stroke-linejoin="round" transform="matrix(1,0,0,1,0,0)"
font-family="Arial" font-size="10.6667" font-weight="400" font-style="normal" 
>
</g>

<g fill="none" stroke="#000000" stroke-opacity="1" stroke-width="1.51181" stroke-linecap="round" stroke-linejoin="round" transform="matrix(1,0,0,1,0,0)"
font-family="Arial" font-size="10.6667" font-weight="400" font-style="normal" 
>
</g>

<g fill="none" stroke="#000000" stroke-opacity="1" stroke-width="1.51181" stroke-linecap="round" stroke-linejoin="round" transform="matrix(1,0,0,1,0,0)"
font-family="Arial" font-size="10.6667" font-weight="400" font-style="normal" 
>
</g>

<g fill="none" stroke="#000000" stroke-opacity="1" stroke-width="1" stroke-linecap="square" stroke-linejoin="bevel" transform="matrix(1,0,0,1,0,0)"
font-family="Arial" font-size="10.6667" font-weight="400" font-style="normal" 
>
<path vector-effect="none" fill-rule="nonzero" d="M1905.84,740.913 L1823.82,740.913 L1665.08,740.913 L1347.6,722.016 L1003.67,740.913 L997.558,740.913 L995.769,734.945 L992.744,726.482 L989.304,718.229 L985.467,710.199 L981.247,702.405 L976.661,694.859 L971.724,687.573 L966.451,680.559 L960.859,673.83 L954.963,667.399 L948.779,661.277 L942.322,655.477 L935.609,650.011 L928.654,644.891 L921.474,640.13 L914.085,635.741 L906.501,631.735 L898.739,628.125 L892.064,625.428 L890.814,624.922 L882.743,622.141 L874.54,619.792 L866.222,617.888 L857.804,616.442 L849.301,615.465 L840.731,614.971 L836.423,614.929 L827.355,614.968 L809.631,615.423 L792.397,616.307 L775.649,617.591 L759.38,619.25 L743.589,621.256 L720.726,624.822 L691.946,630.595 L664.99,637.272 L639.822,644.638 L616.406,652.477 L594.707,660.575 L574.688,668.714 L547.534,680.593 L517.148,694.54 L498.545,702.503 L487.855,706.37 L483.107,707.702 L469.583,674.943 L444.79,613.418 L422.832,557.357 L403.85,507.509 L387.989,464.624 L375.39,429.45 L366.195,402.737 L360.549,385.232 L359.257,380.598 L342.658,316.573 L558.859,239.907 L596.729,68.2286 L1100.04,48 L1481.78,48 L1493.41,48.0597 L1516.09,48.7609 L1538.06,50.1327 L1559.35,52.1447 L1579.96,54.7663 L1599.91,57.9669 L1619.22,61.716 L1637.89,65.9832 L1655.95,70.7379 L1673.4,75.9495 L1690.25,81.5875 L1706.53,87.6214 L1722.24,94.0207 L1737.41,100.755 L1752.03,107.793 L1766.14,115.105 L1779.73,122.661 L1792.82,130.429 L1811.63,142.396 L1835.01,158.842 L1856.65,175.59 L1876.66,192.395 L1895.15,209.012 L1920.44,233.153 L1935.41,248.091 L1905.84,740.913 M2073.34,788.913 L1823.82,788.913 L1663.66,788.913 L1347.49,770.094 L1004.98,788.913 L961.835,788.913 L950.149,749.924 L947.961,743.804 L945.468,737.822 L942.68,731.988 L939.607,726.311 L936.259,720.803 L932.648,715.474 L928.787,710.338 L924.689,705.407 L920.367,700.692 L915.836,696.207 L911.112,691.963 L906.21,687.972 L901.147,684.245 L895.939,680.792 L890.603,677.622 L885.156,674.745 L879.613,672.167 L874.081,669.932 L868.306,667.936 L862.57,666.293 L856.797,664.972 L850.996,663.975 L845.177,663.307 L839.115,662.957 L836.293,662.93 L828.074,662.966 L811.476,663.392 L795.461,664.212 L779.919,665.404 L764.84,666.942 L750.313,668.787 L729.149,672.089 L702.441,677.446 L677.507,683.622 L654.188,690.447 L632.421,697.734 L612.141,705.302 L593.35,712.942 L567.166,724.397 L536.607,738.423 L516.168,747.172 L502.52,752.109 L455.011,765.434 L425.137,693.072 L400.181,631.141 L378.055,574.651 L358.911,524.375 L342.884,481.043 L330.1,445.354 L320.657,417.917 L314.57,399.05 L312.903,393.066 L291.2,309.356 L538.29,221.737 L582.624,20.7567 L1099.08,0 L1481.9,0 L1494.28,0.0635112 L1518.33,0.807141 L1541.82,2.27368 L1564.64,4.43054 L1586.79,7.24839 L1608.29,10.6973 L1629.14,14.7466 L1649.35,19.3651 L1668.93,24.5207 L1687.88,30.1806 L1706.21,36.3114 L1723.93,42.8788 L1741.04,49.8482 L1757.56,57.1843 L1773.49,64.8513 L1788.85,72.8131 L1803.64,81.0335 L1817.96,89.5301 L1838.34,102.498 L1863.52,120.212 L1886.78,138.215 L1908.14,156.153 L1927.78,173.793 L1953.97,198.801 L2007.71,252.429 L2105.18,258.277 L2073.34,788.913 M874.081,669.932 L883.073,647.68"/>
</g>

<g fill="none" stroke="#000000" stroke-opacity="1" stroke-width="1.51181" stroke-linecap="round" stroke-linejoin="round" transform="matrix(1,0,0,1,0,0)"
font-family="Arial" font-size="10.6667" font-weight="400" font-style="normal" 
>
</g>

<g fill="none" stroke="#000000" stroke-opacity="1" stroke-width="1.51181" stroke-linecap="round" stroke-linejoin="round" transform="matrix(1,0,0,1,0,0)"
font-family="Arial" font-size="10.6667" font-weight="400" font-style="normal" 
>
</g>

<g fill="none" stroke="#000000" stroke-opacity="1" stroke-width="1" stroke-linecap="square" stroke-linejoin="bevel" transform="matrix(1,0,0,1,0,0)"
font-family="Arial" font-size="10.6667" font-weight="400" font-style="normal" 
>
<path vector-effect="none" fill-rule="nonzero" d="M1003.67,294.929 L1230.44,294.929 L1192.64,521.701 L965.871,521.701 L1003.67,294.929"/>
</g>

<g fill="none" stroke="#000000" stroke-opacity="1" stroke-width="1.51181" stroke-linecap="round" stroke-linejoin="round" transform="matrix(1,0,0,1,0,0)"
font-family="Arial" font-size="10.6667" font-weight="400" font-style="normal" 
>
</g>

<g fill="none" stroke="#000000" stroke-opacity="1" stroke-width="1.51181" stroke-linecap="round" stroke-linejoin="round" transform="matrix(1,0,0,1,0,0)"
font-family="Arial" font-size="10.6667" font-weight="400" font-style="normal" 
>
</g>

<g fill="none" stroke="#000000" stroke-opacity="1" stroke-width="1" stroke-linecap="square" stroke-linejoin="bevel" transform="matrix(1,0,0,1,0,0)"
font-family="Arial" font-size="10.6667" font-weight="400" font-style="normal" 
>
<path vector-effect="none" fill-rule="nonzero" d="M1510.12,294.929 L1963.67,294.929 L1937.14,737.046 L1485.22,709.931 L1510.12,294.929"/>
</g>

<g fill="none" stroke="#000000" stroke-opacity="1" stroke-width="1.51181" stroke-linecap="round" stroke-linejoin="round" transform="matrix(1,0,0,1,0,0)"
font-family="Arial" font-size="10.6667" font-weight="400" font-style="normal" 
>
</g>

<g fill="none" stroke="#000000" stroke-opacity="1" stroke-width="1.51181" stroke-linecap="round" stroke-linejoin="round" transform="matrix(1,0,0,1,0,0)"
font-family="Arial" font-size="10.6667" font-weight="400" font-style="normal" 
>
</g>

<g fill="#000000" fill-opacity="1" stroke="#000000" stroke-opacity="1" stroke-width="1.51181" stroke-linecap="round" stroke-linejoin="round" transform="matrix(1,0,0,1,0,0)"
font-family="Arial" font-size="10.6667" font-weight="400" font-style="normal" 
>
<path vector-effect="none" fill-rule="evenodd" d="M1342.54,174.268 L1324.78,180.731 L1324.78,167.805 L1342.54,174.268 L775.612,174.268 L793.37,167.805 L793.37,180.731 L775.612,174.268"/>
</g>

<g fill="none" stroke="#000000" stroke-opacity="1" stroke-width="1.51181" stroke-linecap="round" stroke-linejoin="round" transform="matrix(1,0,0,1,0,0)"
font-family="Arial" font-size="10.6667" font-weight="400" font-style="normal" 
>
</g>

<g fill="none" stroke="#000000" stroke-opacity="1" stroke-width="1.51181" stroke-linecap="round" stroke-linejoin="round" transform="matrix(1,0,0,1,0,0)"
font-family="Arial" font-size="10.6667" font-weight="400" font-style="normal" 
>
</g>

<g fill="none" stroke="#000000" stroke-opacity="1" stroke-width="1.51181" stroke-linecap="round" stroke-linejoin="round" transform="matrix(1,0,0,1,0,0)"
font-family="Arial" font-size="10.6667" font-weight="400" font-style="normal" 
>
</g>

<g fill="none" stroke="#000000" stroke-opacity="1" stroke-width="1" stroke-linecap="square" stroke-linejoin="bevel" transform="matrix(1,0,0,1,0,0)"
font-family="Arial" font-size="10.6667" font-weight="400" font-style="normal" 
>
<path vector-effect="none" fill-rule="nonzero" d="M588.519,2358.26 L587.738,2344.45 L586.605,2317.29 L585.959,2290.71 L585.769,2264.71 L586.004,2239.31 L586.634,2214.52 L588.213,2178.41 L591.476,2132.59 L595.768,2089.4 L600.845,2048.9 L606.462,2011.2 L612.376,1976.37 L618.341,1944.51 L626.92,1902.05 L634.099,1867.52 L637.825,1848.35 L640.38,1832.57 L641.33,1823.11 L641.5,1817.84 L641.407,1815.58 L640.703,1804.39 L638.954,1782.49 L636.814,1761.17 L634.302,1740.41 L631.436,1720.22 L628.237,1700.6 L624.723,1681.55 L620.915,1663.07 L616.831,1645.16 L612.491,1627.81 L605.569,1602.79 L595.583,1571.51 L584.922,1542.51 L573.739,1515.76 L562.19,1491.29 L550.429,1469.07 L538.612,1449.12 L526.893,1431.42 L515.427,1415.99 L504.369,1402.8 L493.874,1391.87 L488.919,1387.35 L492.933,1380.4 L498.705,1369.3 L504.074,1357.79 L509.02,1345.87 L513.524,1333.56 L517.567,1320.87 L521.128,1307.83 L524.189,1294.45 L526.73,1280.74 L528.731,1266.73 L530.173,1252.42 L531.037,1237.84 L531.302,1223 L531.17,1217.33 L530.95,1207.92 L529.961,1192.61 L528.315,1177.09 L527.211,1169.25 L525.252,1156.45 L520.874,1132.01 L516.023,1108.92 L510.784,1087.18 L505.245,1066.77 L499.493,1047.65 L493.613,1029.82 L487.693,1013.24 L478.904,990.546 L467.859,964.702 L458.212,943.519 L450.655,926.829 L448.006,920.292 L790.013,788.242 L790.58,789.601 L792.109,792.282 L795.218,796.214 L801.021,801.249 L808.558,806.029 L817.754,810.521 L828.532,814.694 L840.818,818.519 L854.536,821.963 L869.608,824.995 L885.961,827.585 L903.518,829.701 L922.203,831.311 L941.94,832.386 L962.654,832.894 L984.269,832.804 L1006.71,832.084 L1018.24,831.45 L1036.55,1138.94 L1037.56,1792 L1069.56,2329.63 L588.519,2358.26 M1249.44,2489.3 L550.2,2530.92 L539.795,2346.8 L538.63,2318.88 L537.963,2291.47 L537.767,2264.67 L538.01,2238.48 L538.661,2212.86 L540.287,2175.66 L543.644,2128.52 L548.064,2084.04 L553.287,2042.38 L559.058,2003.65 L565.121,1967.94 L571.224,1935.34 L579.898,1892.41 L587.041,1858.06 L590.562,1839.94 L592.765,1826.33 L593.408,1819.94 L593.469,1818.07 L592.823,1807.81 L591.146,1786.8 L589.103,1766.45 L586.709,1746.66 L583.982,1727.46 L580.943,1708.82 L577.61,1690.75 L574.004,1673.25 L570.144,1656.32 L566.071,1640.04 L559.557,1616.5 L550.172,1587.1 L540.232,1560.05 L529.87,1535.27 L519.251,1512.77 L508.545,1492.54 L497.927,1474.62 L487.588,1459.01 L477.74,1445.75 L468.63,1434.89 L460.339,1426.25 L428.051,1396.76 L450.84,1357.31 L455.642,1348.08 L460.133,1338.44 L464.293,1328.42 L468.098,1318.01 L471.528,1307.25 L474.56,1296.15 L477.175,1284.72 L479.353,1272.97 L481.073,1260.93 L482.316,1248.6 L483.062,1235.99 L483.292,1223.13 L483.183,1218.45 L482.986,1210.03 L482.125,1196.69 L480.669,1182.97 L479.72,1176.23 L477.897,1164.32 L473.753,1141.17 L469.194,1119.48 L464.28,1099.09 L459.092,1079.97 L453.71,1062.09 L448.211,1045.41 L442.703,1029.99 L434.441,1008.65 L423.943,984.084 L414.507,963.366 L406.53,945.748 L385.196,893.09 L793.943,735.271 L812.057,778.816 L812.648,779.562 L815.392,781.944 L820.287,785.048 L827.371,788.508 L836.441,792.02 L847.312,795.404 L859.827,798.546 L873.854,801.368 L889.275,803.81 L905.985,805.824 L923.887,807.368 L942.887,808.402 L962.898,808.893 L983.834,808.805 L1005.67,808.105 L1064.75,804.859 L1084.54,1137.47 L1085.29,1622.89 L1198.01,1625.28 L1249.44,2489.3 M483.117,1215.61 L507.11,1215.05 M483.249,1221.28 L507.242,1220.72"/>
</g>

<g fill="none" stroke="#000000" stroke-opacity="1" stroke-width="1.51181" stroke-linecap="round" stroke-linejoin="round" transform="matrix(1,0,0,1,0,0)"
font-family="Arial" font-size="10.6667" font-weight="400" font-style="normal" 
>
</g>

<g fill="none" stroke="#000000" stroke-opacity="1" stroke-width="1.51181" stroke-linecap="round" stroke-linejoin="round" transform="matrix(1,0,0,1,0,0)"
font-family="Arial" font-size="10.6667" font-weight="400" font-style="normal" 
>
</g>

<g fill="#000000" fill-opacity="1" stroke="#000000" stroke-opacity="1" stroke-width="1.51181" stroke-linecap="round" stroke-linejoin="round" transform="matrix(1,0,0,1,0,0)"
font-family="Arial" font-size="10.6667" font-weight="400" font-style="normal" 
>
<path vector-effect="none" fill-rule="evenodd" d="M887.987,1002.53 L895.494,1019.88 L882.59,1020.65 L887.987,1002.53 L921.672,1568.46 L914.165,1551.12 L927.069,1550.35 L921.672,1568.46"/>
</g>

<g fill="none" stroke="#000000" stroke-opacity="1" stroke-width="1.51181" stroke-linecap="round" stroke-linejoin="round" transform="matrix(1,0,0,1,0,0)"
font-family="Arial" font-size="10.6667" font-weight="400" font-style="normal" 
>
</g>

<g fill="none" stroke="#000000" stroke-opacity="1" stroke-width="1.51181" stroke-linecap="round" stroke-linejoin="round" transform="matrix(1,0,0,1,0,0)"
font-family="Arial" font-size="10.6667" font-weight="400" font-style="normal" 
>
</g>

<g fill="none" stroke="#000000" stroke-opacity="1" stroke-width="1.51181" stroke-linecap="round" stroke-linejoin="round" transform="matrix(1,0,0,1,0,0)"
font-family="Arial" font-size="10.6667" font-weight="400" font-style="normal" 
>
</g>

<g fill="none" stroke="#000000" stroke-opacity="1" stroke-width="1" stroke-linecap="square" stroke-linejoin="bevel" transform="matrix(1,0,0,1,0,0)"
font-family="Arial" font-size="10.6667" font-weight="400" font-style="normal" 
>
<path vector-effect="none" fill-rule="nonzero" d="M1846.52,1224.25 L1845.49,1231.42 L1839.38,1285.23 L1834.45,1340.17 L1830.94,1391.09 L1828.89,1428.69 L1827.23,1469.13 L1826.07,1512.15 L1825.54,1557.49 L1825.76,1604.86 L1826.85,1654.02 L1828.94,1704.69 L1830.44,1730.55 L1908.67,2231.04 L1864.9,2288.75 L1860.54,2295.69 L1852.46,2309.67 L1844.99,2323.83 L1837.96,2338.21 L1821.36,2375.16 L1800.12,2422.9 L1787.65,2448.28 L1778.35,2465.81 L1768.03,2483.92 L1756.54,2502.63 L1743.71,2521.99 L1729.37,2542.04 L1721.52,2552.37 L1713.19,2563 L1700.96,2577.39 L1692.92,2586.17 L1684.95,2594.28 L1677.04,2601.71 L1669.18,2608.48 L1661.35,2614.59 L1653.53,2620.05 L1645.7,2624.86 L1637.86,2629.04 L1629.99,2632.59 L1622.06,2635.51 L1614.07,2637.83 L1605.99,2639.53 L1597.82,2640.63 L1593.68,2640.94 L1589.98,2641.13 L1582.41,2641.14 L1574.62,2640.68 L1566.59,2639.73 L1558.32,2638.28 L1549.79,2636.3 L1540.99,2633.78 L1531.89,2630.68 L1522.5,2627 L1512.78,2622.71 L1502.73,2617.8 L1492.34,2612.23 L1481.59,2606 L1470.46,2599.09 L1453.09,2587.47 L1440.89,2578.62 L1431.55,2571.67 L1414.55,2558.43 L1399.08,2545.73 L1384.57,2533.24 L1363.39,2514.29 L1333.24,2486.8 L1315.68,2471.15 L1313.71,2438.12 L1310.55,2373.1 L1308.26,2309.37 L1306.79,2246.95 L1306.1,2185.87 L1306.14,2126.19 L1306.86,2067.93 L1308.21,2011.13 L1310.14,1955.82 L1312.59,1902.05 L1315.53,1849.85 L1318.9,1799.25 L1322.66,1750.29 L1326.75,1703.01 L1331.12,1657.45 L1335.73,1613.64 L1342.97,1551.05 L1353.01,1474.36 L1363.11,1405.33 L1372.88,1344.25 L1386.21,1267.09 L1396.23,1211.61 L1400.72,1185.23 L1402.03,1175.95 L1846.52,1224.25 M1380.55,983.525 L1921.33,1042.28 L1893.1,1237.56 L1887.14,1290.09 L1882.3,1343.96 L1878.85,1394.04 L1876.84,1430.98 L1875.2,1470.76 L1874.06,1513.08 L1873.54,1557.66 L1873.76,1604.22 L1874.83,1652.5 L1876.88,1702.31 L1878.23,1725.44 L1959.24,2243.79 L1904.42,2316.08 L1901.66,2320.47 L1894.48,2332.89 L1887.79,2345.57 L1881.43,2358.59 L1865.18,2394.75 L1843.61,2443.25 L1830.4,2470.12 L1820.41,2488.94 L1809.35,2508.36 L1797.01,2528.46 L1783.25,2549.22 L1768.01,2570.54 L1759.52,2581.7 L1750.39,2593.36 L1736.96,2609.15 L1727.74,2619.22 L1718.51,2628.6 L1709.15,2637.41 L1699.61,2645.62 L1689.86,2653.22 L1679.86,2660.2 L1669.59,2666.52 L1659.03,2672.15 L1648.18,2677.04 L1637.06,2681.14 L1625.71,2684.43 L1614.17,2686.86 L1602.8,2688.4 L1596.69,2688.85 L1591.25,2689.13 L1581.02,2689.14 L1570.39,2688.51 L1559.63,2687.25 L1548.74,2685.33 L1537.74,2682.78 L1526.63,2679.59 L1515.4,2675.77 L1504.04,2671.32 L1492.53,2666.24 L1480.85,2660.53 L1468.98,2654.17 L1456.88,2647.16 L1444.44,2639.43 L1425.64,2626.86 L1412.47,2617.3 L1402.47,2609.86 L1384.57,2595.92 L1368.2,2582.48 L1352.91,2569.32 L1331.21,2549.91 L1301.1,2522.45 L1268.94,2493.79 L1265.78,2440.71 L1262.59,2375.13 L1260.28,2310.79 L1258.8,2247.78 L1258.1,2186.13 L1258.14,2125.88 L1258.87,2067.06 L1260.23,2009.72 L1262.17,1953.89 L1264.66,1899.61 L1267.62,1846.9 L1271.03,1795.82 L1274.82,1746.39 L1278.95,1698.65 L1283.36,1652.65 L1288.02,1608.37 L1295.33,1545.18 L1305.47,1467.77 L1315.67,1398.07 L1325.53,1336.38 L1338.94,1258.73 L1348.95,1203.31 L1353.29,1177.87 L1380.55,983.525 M1904.42,2316.08 L1884.68,2302.43 M1267.71,2491.24 L1289.31,2480.77 M1270.18,2496.34 L1291.78,2485.87"/>
</g>

<g fill="none" stroke="#000000" stroke-opacity="1" stroke-width="1.51181" stroke-linecap="round" stroke-linejoin="round" transform="matrix(1,0,0,1,0,0)"
font-family="Arial" font-size="10.6667" font-weight="400" font-style="normal" 
>
</g>

<g fill="none" stroke="#000000" stroke-opacity="1" stroke-width="1.51181" stroke-linecap="round" stroke-linejoin="round" transform="matrix(1,0,0,1,0,0)"
font-family="Arial" font-size="10.6667" font-weight="400" font-style="normal" 
>
</g>

<g fill="#000000" fill-opacity="1" stroke="#000000" stroke-opacity="1" stroke-width="1.51181" stroke-linecap="round" stroke-linejoin="round" transform="matrix(1,0,0,1,0,0)"
font-family="Arial" font-size="10.6667" font-weight="400" font-style="normal" 
>
<path vector-effect="none" fill-rule="evenodd" d="M1482.73,2315.42 L1475.19,2298.1 L1488.09,2297.3 L1482.73,2315.42 L1447.8,1749.57 L1455.35,1766.9 L1442.45,1767.69 L1447.8,1749.57"/>
</g>

<g fill="none" stroke="#000000" stroke-opacity="1" stroke-width="1.51181" stroke-linecap="round" stroke-linejoin="round" transform="matrix(1,0,0,1,0,0)"
font-family="Arial" font-size="10.6667" font-weight="400" font-style="normal" 
>
</g>

<g fill="none" stroke="#000000" stroke-opacity="1" stroke-width="1.51181" stroke-linecap="round" stroke-linejoin="round" transform="matrix(1,0,0,1,0,0)"
font-family="Arial" font-size="10.6667" font-weight="400" font-style="normal" 
>
</g>

<g fill="none" stroke="#000000" stroke-opacity="1" stroke-width="1.51181" stroke-linecap="round" stroke-linejoin="round" transform="matrix(1,0,0,1,0,0)"
font-family="Arial" font-size="10.6667" font-weight="400" font-style="normal" 
>
</g>

<g fill="none" stroke="#000000" stroke-opacity="1" stroke-width="1" stroke-linecap="square" stroke-linejoin="bevel" transform="matrix(1,0,0,1,0,0)"
font-family="Arial" font-size="10.6667" font-weight="400" font-style="normal" 
>
<path vector-effect="none" fill-rule="nonzero" d="M822.277,2682.34 L829.412,2684.18 L883.161,2696.36 L938.168,2707.5 L989.28,2716.77 L1027.08,2723.07 L1067.8,2729.31 L1111.19,2735.35 L1156.99,2741.02 L1204.94,2746.18 L1254.79,2750.67 L1306.29,2754.35 L1332.62,2755.79 L1358.5,2757.02 L1409.18,2758.58 L1458.35,2759.16 L1505.73,2758.88 L1551.05,2757.88 L1594.06,2756.27 L1634.48,2754.19 L1672.06,2751.75 L1722.94,2747.7 L1777.82,2742.2 L1831.57,2735.52 L1838.73,2734.41 L1833.41,2739.32 L1823.78,2749.16 L1815.28,2759.02 L1807.86,2768.84 L1801.43,2778.6 L1795.91,2788.26 L1791.25,2797.76 L1787.35,2807.08 L1784.15,2816.17 L1781.57,2824.99 L1778.65,2837.68 L1776.34,2853.25 L1775.18,2867.03 L1774.86,2873.06 L1776.57,2878.51 L1780.23,2888.95 L1784.19,2898.9 L1788.48,2908.4 L1793.13,2917.5 L1798.15,2926.27 L1803.57,2934.74 L1809.41,2942.98 L1815.7,2951.04 L1822.46,2958.96 L1833.46,2970.71 L1850.07,2986.4 L1868.98,3002.51 L1879.46,3010.89 L1891.44,3020.2 L1915.04,3037.08 L1937.74,3052.03 L1959.01,3065.22 L1987.46,3082.27 L2009.1,3096.01 L2017.11,3102.01 L2021.32,3105.73 L2023,3107.51 L1990.13,3111.47 L1925.05,3118.18 L1860.85,3123.52 L1797.6,3127.55 L1735.4,3130.36 L1674.31,3132.02 L1614.42,3132.62 L1555.81,3132.22 L1498.55,3130.9 L1442.73,3128.75 L1388.42,3125.83 L1335.71,3122.23 L1284.68,3118.02 L1235.39,3113.28 L1187.94,3108.08 L1142.4,3102.51 L1098.86,3096.64 L1057.38,3090.54 L1018.06,3084.3 L980.969,3077.99 L929.385,3068.55 L869.542,3056.43 L820.055,3045.42 L781.56,3036.14 L744.246,3026.38 L738.139,3024.67 L822.277,2682.34 M544.612,3020.31 L650.756,2588.44 L840.723,2637.53 L893.227,2649.43 L947.214,2660.35 L997.51,2669.48 L1034.67,2675.67 L1074.75,2681.82 L1117.45,2687.75 L1162.51,2693.34 L1209.67,2698.41 L1258.66,2702.83 L1309.31,2706.44 L1335.07,2707.85 L1360.38,2709.06 L1410.2,2710.59 L1458.49,2711.16 L1505.06,2710.89 L1549.62,2709.9 L1591.93,2708.32 L1631.69,2706.27 L1668.6,2703.87 L1718.64,2699.89 L1772.47,2694.49 L1824.93,2687.98 L1866.52,2681.52 L1897.42,2745.61 L1866.85,2773.78 L1859.14,2781.65 L1852.65,2789.18 L1847.09,2796.55 L1842.35,2803.74 L1838.34,2810.76 L1834.97,2817.62 L1832.16,2824.32 L1829.86,2830.88 L1828.04,2837.11 L1825.85,2846.6 L1824.04,2858.79 L1823.36,2866.9 L1825.19,2872.12 L1828.38,2880.12 L1831.76,2887.59 L1835.36,2894.65 L1839.22,2901.39 L1843.39,2907.91 L1847.93,2914.31 L1852.9,2920.68 L1858.26,2926.97 L1867.5,2936.83 L1882.14,2950.66 L1899.54,2965.48 L1909.18,2973.19 L1920.15,2981.72 L1942.22,2997.5 L1963.59,3011.58 L1984,3024.24 L2012.67,3041.41 L2036.38,3056.48 L2047.44,3064.75 L2054.74,3071.21 L2082.28,3100.37 L2073.45,3149.78 L1995.46,3159.17 L1929.5,3165.98 L1864.36,3171.39 L1800.22,3175.48 L1737.14,3178.33 L1675.2,3180.02 L1614.5,3180.62 L1555.1,3180.21 L1497.08,3178.88 L1440.52,3176.7 L1385.5,3173.74 L1332.1,3170.09 L1280.4,3165.83 L1230.48,3161.03 L1182.41,3155.77 L1136.28,3150.12 L1092.16,3144.17 L1050.13,3137.99 L1010.27,3131.67 L972.62,3125.26 L920.3,3115.68 L859.568,3103.38 L809.217,3092.19 L769.862,3082.69 L731.701,3072.72 L544.612,3020.31"/>
</g>

<g fill="none" stroke="#000000" stroke-opacity="1" stroke-width="1.51181" stroke-linecap="round" stroke-linejoin="round" transform="matrix(1,0,0,1,0,0)"
font-family="Arial" font-size="10.6667" font-weight="400" font-style="normal" 
>
</g>

<g fill="none" stroke="#000000" stroke-opacity="1" stroke-width="1.51181" stroke-linecap="round" stroke-linejoin="round" transform="matrix(1,0,0,1,0,0)"
font-family="Arial" font-size="10.6667" font-weight="400" font-style="normal" 
>
</g>

<g fill="#000000" fill-opacity="1" stroke="#000000" stroke-opacity="1" stroke-width="1.51181" stroke-linecap="round" stroke-linejoin="round" transform="matrix(1,0,0,1,0,0)"
font-family="Arial" font-size="10.6667" font-weight="400" font-style="normal" 
>
<path vector-effect="none" fill-rule="evenodd" d="M1622.64,2950.54 L1604.58,2956.09 L1605.24,2943.18 L1622.64,2950.54 L1056.46,2921.53 L1074.52,2915.99 L1073.86,2928.9 L1056.46,2921.53"/>
</g>

<g fill="none" stroke="#000000" stroke-opacity="1" stroke-width="1.51181" stroke-linecap="round" stroke-linejoin="round" transform="matrix(1,0,0,1,0,0)"
font-family="Arial" font-size="10.6667" font-weight="400" font-style="normal" 
>
</g>

<g fill="none" stroke="#000000" stroke-opacity="1" stroke-width="1.51181" stroke-linecap="round" stroke-linejoin="round" transform="matrix(1,0,0,1,0,0)"
font-family="Arial" font-size="10.6667" font-weight="400" font-style="normal" 
>
</g>

<g fill="none" stroke="#000000" stroke-opacity="1" stroke-width="1.51181" stroke-linecap="round" stroke-linejoin="round" transform="matrix(1,0,0,1,0,0)"
font-family="Arial" font-size="10.6667" font-weight="400" font-style="normal" 
>
</g>

<g fill="none" stroke="#000000" stroke-opacity="1" stroke-width="1" stroke-linecap="square" stroke-linejoin="bevel" transform="matrix(1,0,0,1,0,0)"
font-family="Arial" font-size="10.6667" font-weight="400" font-style="normal" 
>
<path vector-effect="none" fill-rule="nonzero" d="M489.315,1995.66 L487.371,2015.21 L481.205,2077.27 L465.51,2235.23 L415.314,2549.29 L400.113,2893.41 L399.509,2899.49 L396.908,2898.42 L388.315,2895.4 L379.504,2892.83 L370.485,2890.71 L361.269,2889.07 L351.866,2887.92 L342.288,2887.28 L337.429,2887.18 L332.553,2887.18 L322.77,2887.77 L312.969,2889.04 L303.172,2891 L293.4,2893.61 L283.676,2896.87 L274.022,2900.77 L264.458,2905.3 L255.008,2910.43 L245.692,2916.17 L236.534,2922.48 L227.553,2929.37 L218.774,2936.82 L210.216,2944.81 L201.902,2953.33 L193.855,2962.38 L191.156,2965.7 L190.239,2964.52 L188.549,2961.78 L186.307,2956.88 L183.906,2948.78 L182.113,2939.1 L180.892,2927.94 L180.209,2915.46 L180.027,2901.76 L180.31,2886.97 L181.484,2863.12 L184.417,2828.53 L188.571,2791.85 L193.661,2754.09 L199.401,2716.24 L205.506,2679.31 L214.768,2627.4 L225.747,2571.09 L233.052,2536.52 L234.318,2531.3 L161.417,1982.83 L489.315,1995.66 M90.0006,1809.82 L554.211,1827.99 L535.136,2019.96 L528.97,2082.02 L513.134,2241.4 L463.146,2554.15 L448.008,2896.84 L440.897,2968.41 L379.819,2943.29 L373.627,2941.12 L367.284,2939.26 L360.79,2937.74 L354.146,2936.56 L347.351,2935.73 L340.183,2935.25 L336.935,2935.18 L334.001,2935.18 L327.311,2935.58 L320.764,2936.43 L314.074,2937.77 L307.253,2939.59 L300.318,2941.92 L293.291,2944.76 L286.196,2948.11 L279.061,2951.99 L271.914,2956.39 L264.785,2961.31 L257.703,2966.74 L250.697,2972.68 L243.798,2979.12 L237.032,2986.06 L230.429,2993.48 L190.372,3042.78 L150.763,2991.96 L146.136,2984.45 L141.25,2973.77 L137.167,2960 L134.591,2946.08 L133.035,2931.87 L132.226,2917.09 L132.021,2901.61 L132.333,2885.33 L133.584,2859.91 L136.646,2823.8 L140.933,2785.95 L146.144,2747.28 L151.992,2708.72 L158.199,2671.17 L167.582,2618.59 L178.706,2561.54 L186.237,2525.9 L185.553,2528.72 L90.0006,1809.82 M185.553,2528.72 L209.519,2529.99"/>
</g>

<g fill="none" stroke="#000000" stroke-opacity="1" stroke-width="1.51181" stroke-linecap="round" stroke-linejoin="round" transform="matrix(1,0,0,1,0,0)"
font-family="Arial" font-size="10.6667" font-weight="400" font-style="normal" 
>
</g>

<g fill="none" stroke="#000000" stroke-opacity="1" stroke-width="1.51181" stroke-linecap="round" stroke-linejoin="round" transform="matrix(1,0,0,1,0,0)"
font-family="Arial" font-size="10.6667" font-weight="400" font-style="normal" 
>
</g>

<g fill="#000000" fill-opacity="1" stroke="#000000" stroke-opacity="1" stroke-width="1.51181" stroke-linecap="round" stroke-linejoin="round" transform="matrix(1,0,0,1,0,0)"
font-family="Arial" font-size="10.6667" font-weight="400" font-style="normal" 
>
<path vector-effect="none" fill-rule="evenodd" d="M304.275,2694.18 L299.599,2675.87 L312.462,2677.15 L304.275,2694.18 L360.33,2130.03 L365.006,2148.34 L352.142,2147.06 L360.33,2130.03"/>
</g>

<g fill="none" stroke="#000000" stroke-opacity="1" stroke-width="1.51181" stroke-linecap="round" stroke-linejoin="round" transform="matrix(1,0,0,1,0,0)"
font-family="Arial" font-size="10.6667" font-weight="400" font-style="normal" 
>
</g>

<g fill="none" stroke="#000000" stroke-opacity="1" stroke-width="1.51181" stroke-linecap="round" stroke-linejoin="round" transform="matrix(1,0,0,1,0,0)"
font-family="Arial" font-size="10.6667" font-weight="400" font-style="normal" 
>
</g>

<g fill="none" stroke="#000000" stroke-opacity="1" stroke-width="1.51181" stroke-linecap="round" stroke-linejoin="round" transform="matrix(1,0,0,1,0,0)"
font-family="Arial" font-size="10.6667" font-weight="400" font-style="normal" 
>
</g>
</g>
</svg>
